%TF.GenerationSoftware,KiCad,Pcbnew,5.1.5*%
%TF.CreationDate,2020-05-13T22:00:42+02:00*%
%TF.ProjectId,thinkpad-keyboard,7468696e-6b70-4616-942d-6b6579626f61,rev?*%
%TF.SameCoordinates,Original*%
%TF.FileFunction,Legend,Top*%
%TF.FilePolarity,Positive*%
%FSLAX46Y46*%
G04 Gerber Fmt 4.6, Leading zero omitted, Abs format (unit mm)*
G04 Created by KiCad (PCBNEW 5.1.5) date 2020-05-13 22:00:42*
%MOMM*%
%LPD*%
G04 APERTURE LIST*
%ADD10C,0.036000*%
%ADD11C,0.150000*%
%ADD12C,0.120000*%
%ADD13C,0.099060*%
%ADD14C,0.149860*%
G04 APERTURE END LIST*
D10*
X114099997Y-75220004D02*
X113343998Y-73492005D01*
X111292000Y-83103996D02*
X111400000Y-79000000D01*
X112695998Y-76948002D02*
X114099997Y-75220004D01*
X108592002Y-76516003D02*
X106864004Y-76732002D01*
X111184000Y-74464004D02*
X110428000Y-72952006D01*
X112695998Y-76840002D02*
X114855997Y-76084003D01*
X114099997Y-75220004D02*
X115071996Y-72952006D01*
X109348002Y-74572004D02*
X109240002Y-72412006D01*
X111184000Y-74464004D02*
X112047999Y-72736006D01*
X111292000Y-83103996D02*
X106540004Y-83535996D01*
X108592002Y-76516003D02*
X107188003Y-75112004D01*
X112695998Y-76948002D02*
X111184000Y-74464004D01*
X114855997Y-76084003D02*
X115287996Y-74896004D01*
X110860000Y-76408003D02*
X109348002Y-74572004D01*
X111400000Y-79000000D02*
X108592002Y-76516003D01*
X111400000Y-79000000D02*
X110860000Y-76408003D01*
X111292000Y-83103996D02*
X117123994Y-83535996D01*
X110860000Y-76408003D02*
X110968000Y-75220004D01*
X108592002Y-76516003D02*
X108052003Y-73492005D01*
X108052003Y-73492005D02*
X109132002Y-70900009D01*
X107188003Y-75112004D02*
X105784005Y-75004004D01*
X108052003Y-73492005D02*
X107512003Y-71764007D01*
X111400000Y-79000000D02*
X112695998Y-76948002D01*
D11*
X151452380Y-100190476D02*
X151452380Y-100666666D01*
X151928571Y-100714285D01*
X151880952Y-100666666D01*
X151833333Y-100571428D01*
X151833333Y-100333333D01*
X151880952Y-100238095D01*
X151928571Y-100190476D01*
X152023809Y-100142857D01*
X152261904Y-100142857D01*
X152357142Y-100190476D01*
X152404761Y-100238095D01*
X152452380Y-100333333D01*
X152452380Y-100571428D01*
X152404761Y-100666666D01*
X152357142Y-100714285D01*
X151452380Y-99857142D02*
X152452380Y-99523809D01*
X151452380Y-99190476D01*
X135252380Y-79161904D02*
X134252380Y-79161904D01*
X134252380Y-78780952D01*
X134300000Y-78685714D01*
X134347619Y-78638095D01*
X134442857Y-78590476D01*
X134585714Y-78590476D01*
X134680952Y-78638095D01*
X134728571Y-78685714D01*
X134776190Y-78780952D01*
X134776190Y-79161904D01*
X134252380Y-78257142D02*
X135252380Y-78019047D01*
X134538095Y-77828571D01*
X135252380Y-77638095D01*
X134252380Y-77400000D01*
X135252380Y-76447619D02*
X134776190Y-76780952D01*
X135252380Y-77019047D02*
X134252380Y-77019047D01*
X134252380Y-76638095D01*
X134300000Y-76542857D01*
X134347619Y-76495238D01*
X134442857Y-76447619D01*
X134585714Y-76447619D01*
X134680952Y-76495238D01*
X134728571Y-76542857D01*
X134776190Y-76638095D01*
X134776190Y-77019047D01*
X135347619Y-76257142D02*
X135347619Y-75495238D01*
X135204761Y-75304761D02*
X135252380Y-75161904D01*
X135252380Y-74923809D01*
X135204761Y-74828571D01*
X135157142Y-74780952D01*
X135061904Y-74733333D01*
X134966666Y-74733333D01*
X134871428Y-74780952D01*
X134823809Y-74828571D01*
X134776190Y-74923809D01*
X134728571Y-75114285D01*
X134680952Y-75209523D01*
X134633333Y-75257142D01*
X134538095Y-75304761D01*
X134442857Y-75304761D01*
X134347619Y-75257142D01*
X134300000Y-75209523D01*
X134252380Y-75114285D01*
X134252380Y-74876190D01*
X134300000Y-74733333D01*
X134252380Y-74400000D02*
X135252380Y-74161904D01*
X134538095Y-73971428D01*
X135252380Y-73780952D01*
X134252380Y-73542857D01*
X148100000Y-73538095D02*
X148052380Y-73633333D01*
X148052380Y-73776190D01*
X148100000Y-73919047D01*
X148195238Y-74014285D01*
X148290476Y-74061904D01*
X148480952Y-74109523D01*
X148623809Y-74109523D01*
X148814285Y-74061904D01*
X148909523Y-74014285D01*
X149004761Y-73919047D01*
X149052380Y-73776190D01*
X149052380Y-73680952D01*
X149004761Y-73538095D01*
X148957142Y-73490476D01*
X148623809Y-73490476D01*
X148623809Y-73680952D01*
X143285000Y-75152380D02*
X143285000Y-74200000D01*
X144604761Y-74961904D02*
X144652380Y-74819047D01*
X144652380Y-74580952D01*
X144604761Y-74485714D01*
X144557142Y-74438095D01*
X144461904Y-74390476D01*
X144366666Y-74390476D01*
X144271428Y-74438095D01*
X144223809Y-74485714D01*
X144176190Y-74580952D01*
X144128571Y-74771428D01*
X144080952Y-74866666D01*
X144033333Y-74914285D01*
X143938095Y-74961904D01*
X143842857Y-74961904D01*
X143747619Y-74914285D01*
X143700000Y-74866666D01*
X143652380Y-74771428D01*
X143652380Y-74533333D01*
X143700000Y-74390476D01*
X143285000Y-74200000D02*
X143285000Y-73247619D01*
X144604761Y-74009523D02*
X144652380Y-73866666D01*
X144652380Y-73628571D01*
X144604761Y-73533333D01*
X144557142Y-73485714D01*
X144461904Y-73438095D01*
X144366666Y-73438095D01*
X144271428Y-73485714D01*
X144223809Y-73533333D01*
X144176190Y-73628571D01*
X144128571Y-73819047D01*
X144080952Y-73914285D01*
X144033333Y-73961904D01*
X143938095Y-74009523D01*
X143842857Y-74009523D01*
X143747619Y-73961904D01*
X143700000Y-73914285D01*
X143652380Y-73819047D01*
X143652380Y-73580952D01*
X143700000Y-73438095D01*
X149652380Y-74390476D02*
X149652380Y-74866666D01*
X150128571Y-74914285D01*
X150080952Y-74866666D01*
X150033333Y-74771428D01*
X150033333Y-74533333D01*
X150080952Y-74438095D01*
X150128571Y-74390476D01*
X150223809Y-74342857D01*
X150461904Y-74342857D01*
X150557142Y-74390476D01*
X150604761Y-74438095D01*
X150652380Y-74533333D01*
X150652380Y-74771428D01*
X150604761Y-74866666D01*
X150557142Y-74914285D01*
X149652380Y-74057142D02*
X150652380Y-73723809D01*
X149652380Y-73390476D01*
X142852380Y-76571428D02*
X141852380Y-76571428D01*
X142566666Y-76238095D01*
X141852380Y-75904761D01*
X142852380Y-75904761D01*
X141852380Y-75238095D02*
X141852380Y-75047619D01*
X141900000Y-74952380D01*
X141995238Y-74857142D01*
X142185714Y-74809523D01*
X142519047Y-74809523D01*
X142709523Y-74857142D01*
X142804761Y-74952380D01*
X142852380Y-75047619D01*
X142852380Y-75238095D01*
X142804761Y-75333333D01*
X142709523Y-75428571D01*
X142519047Y-75476190D01*
X142185714Y-75476190D01*
X141995238Y-75428571D01*
X141900000Y-75333333D01*
X141852380Y-75238095D01*
X142804761Y-74428571D02*
X142852380Y-74285714D01*
X142852380Y-74047619D01*
X142804761Y-73952380D01*
X142757142Y-73904761D01*
X142661904Y-73857142D01*
X142566666Y-73857142D01*
X142471428Y-73904761D01*
X142423809Y-73952380D01*
X142376190Y-74047619D01*
X142328571Y-74238095D01*
X142280952Y-74333333D01*
X142233333Y-74380952D01*
X142138095Y-74428571D01*
X142042857Y-74428571D01*
X141947619Y-74380952D01*
X141900000Y-74333333D01*
X141852380Y-74238095D01*
X141852380Y-74000000D01*
X141900000Y-73857142D01*
X142852380Y-73428571D02*
X141852380Y-73428571D01*
X140252380Y-76571428D02*
X139252380Y-76571428D01*
X139966666Y-76238095D01*
X139252380Y-75904761D01*
X140252380Y-75904761D01*
X140204761Y-75476190D02*
X140252380Y-75333333D01*
X140252380Y-75095238D01*
X140204761Y-75000000D01*
X140157142Y-74952380D01*
X140061904Y-74904761D01*
X139966666Y-74904761D01*
X139871428Y-74952380D01*
X139823809Y-75000000D01*
X139776190Y-75095238D01*
X139728571Y-75285714D01*
X139680952Y-75380952D01*
X139633333Y-75428571D01*
X139538095Y-75476190D01*
X139442857Y-75476190D01*
X139347619Y-75428571D01*
X139300000Y-75380952D01*
X139252380Y-75285714D01*
X139252380Y-75047619D01*
X139300000Y-74904761D01*
X140252380Y-74476190D02*
X139252380Y-74476190D01*
X139252380Y-73809523D02*
X139252380Y-73619047D01*
X139300000Y-73523809D01*
X139395238Y-73428571D01*
X139585714Y-73380952D01*
X139919047Y-73380952D01*
X140109523Y-73428571D01*
X140204761Y-73523809D01*
X140252380Y-73619047D01*
X140252380Y-73809523D01*
X140204761Y-73904761D01*
X140109523Y-74000000D01*
X139919047Y-74047619D01*
X139585714Y-74047619D01*
X139395238Y-74000000D01*
X139300000Y-73904761D01*
X139252380Y-73809523D01*
X137804761Y-76085714D02*
X137852380Y-75942857D01*
X137852380Y-75704761D01*
X137804761Y-75609523D01*
X137757142Y-75561904D01*
X137661904Y-75514285D01*
X137566666Y-75514285D01*
X137471428Y-75561904D01*
X137423809Y-75609523D01*
X137376190Y-75704761D01*
X137328571Y-75895238D01*
X137280952Y-75990476D01*
X137233333Y-76038095D01*
X137138095Y-76085714D01*
X137042857Y-76085714D01*
X136947619Y-76038095D01*
X136900000Y-75990476D01*
X136852380Y-75895238D01*
X136852380Y-75657142D01*
X136900000Y-75514285D01*
X137757142Y-74514285D02*
X137804761Y-74561904D01*
X137852380Y-74704761D01*
X137852380Y-74800000D01*
X137804761Y-74942857D01*
X137709523Y-75038095D01*
X137614285Y-75085714D01*
X137423809Y-75133333D01*
X137280952Y-75133333D01*
X137090476Y-75085714D01*
X136995238Y-75038095D01*
X136900000Y-74942857D01*
X136852380Y-74800000D01*
X136852380Y-74704761D01*
X136900000Y-74561904D01*
X136947619Y-74514285D01*
X137852380Y-74085714D02*
X136852380Y-74085714D01*
X137852380Y-73514285D02*
X137280952Y-73942857D01*
X136852380Y-73514285D02*
X137423809Y-74085714D01*
X151347619Y-107038095D02*
X151300000Y-106990476D01*
X151252380Y-106895238D01*
X151252380Y-106657142D01*
X151300000Y-106561904D01*
X151347619Y-106514285D01*
X151442857Y-106466666D01*
X151538095Y-106466666D01*
X151680952Y-106514285D01*
X152252380Y-107085714D01*
X152252380Y-106466666D01*
X152585714Y-105800000D02*
X151157142Y-105800000D01*
X152252380Y-104561904D02*
X152252380Y-105133333D01*
X152252380Y-104847619D02*
X151252380Y-104847619D01*
X151395238Y-104942857D01*
X151490476Y-105038095D01*
X151538095Y-105133333D01*
X101585714Y-102714285D02*
X102252380Y-102714285D01*
X101204761Y-102952380D02*
X101919047Y-103190476D01*
X101919047Y-102571428D01*
X101252380Y-102000000D02*
X101252380Y-101904761D01*
X101300000Y-101809523D01*
X101347619Y-101761904D01*
X101442857Y-101714285D01*
X101633333Y-101666666D01*
X101871428Y-101666666D01*
X102061904Y-101714285D01*
X102157142Y-101761904D01*
X102204761Y-101809523D01*
X102252380Y-101904761D01*
X102252380Y-102000000D01*
X102204761Y-102095238D01*
X102157142Y-102142857D01*
X102061904Y-102190476D01*
X101871428Y-102238095D01*
X101633333Y-102238095D01*
X101442857Y-102190476D01*
X101347619Y-102142857D01*
X101300000Y-102095238D01*
X101252380Y-102000000D01*
X102585714Y-101000000D02*
X101157142Y-101000000D01*
X101252380Y-100380952D02*
X101252380Y-99761904D01*
X101633333Y-100095238D01*
X101633333Y-99952380D01*
X101680952Y-99857142D01*
X101728571Y-99809523D01*
X101823809Y-99761904D01*
X102061904Y-99761904D01*
X102157142Y-99809523D01*
X102204761Y-99857142D01*
X102252380Y-99952380D01*
X102252380Y-100238095D01*
X102204761Y-100333333D01*
X102157142Y-100380952D01*
X102252380Y-99285714D02*
X102252380Y-99095238D01*
X102204761Y-99000000D01*
X102157142Y-98952380D01*
X102014285Y-98857142D01*
X101823809Y-98809523D01*
X101442857Y-98809523D01*
X101347619Y-98857142D01*
X101300000Y-98904761D01*
X101252380Y-99000000D01*
X101252380Y-99190476D01*
X101300000Y-99285714D01*
X101347619Y-99333333D01*
X101442857Y-99380952D01*
X101680952Y-99380952D01*
X101776190Y-99333333D01*
X101823809Y-99285714D01*
X101871428Y-99190476D01*
X101871428Y-99000000D01*
X101823809Y-98904761D01*
X101776190Y-98857142D01*
X101680952Y-98809523D01*
D12*
X133470000Y-72930000D02*
X133470000Y-71600000D01*
X134800000Y-72930000D02*
X133470000Y-72930000D01*
X136070000Y-72930000D02*
X136070000Y-70270000D01*
X136070000Y-70270000D02*
X151370000Y-70270000D01*
X136070000Y-72930000D02*
X151370000Y-72930000D01*
X151370000Y-72930000D02*
X151370000Y-70270000D01*
D11*
X145575000Y-92200000D02*
X146850000Y-92200000D01*
X135225000Y-92775000D02*
X135900000Y-92775000D01*
X135225000Y-82425000D02*
X135900000Y-82425000D01*
X145575000Y-82425000D02*
X144900000Y-82425000D01*
X145575000Y-92775000D02*
X144900000Y-92775000D01*
X145575000Y-82425000D02*
X145575000Y-83100000D01*
X135225000Y-82425000D02*
X135225000Y-83100000D01*
X135225000Y-92775000D02*
X135225000Y-92100000D01*
X145575000Y-92775000D02*
X145575000Y-92200000D01*
D12*
X151330000Y-96070000D02*
X151330000Y-97400000D01*
X150000000Y-96070000D02*
X151330000Y-96070000D01*
X151330000Y-98670000D02*
X151330000Y-101270000D01*
X148730000Y-98670000D02*
X151330000Y-98670000D01*
X148730000Y-96070000D02*
X148730000Y-98670000D01*
X151330000Y-101270000D02*
X143590000Y-101270000D01*
X148730000Y-96070000D02*
X143590000Y-96070000D01*
X143590000Y-96070000D02*
X143590000Y-101270000D01*
X142950000Y-78800000D02*
X148700000Y-78800000D01*
X142950000Y-75200000D02*
X142950000Y-78800000D01*
X148700000Y-75200000D02*
X142950000Y-75200000D01*
D13*
X113000680Y-87550620D02*
X123099720Y-87550620D01*
X113000680Y-90049980D02*
X123099720Y-90049980D01*
X113000680Y-90049980D02*
X113000680Y-87550620D01*
X123099720Y-90049980D02*
X123099720Y-87550620D01*
D12*
X151330000Y-103470000D02*
X151330000Y-104800000D01*
X150000000Y-103470000D02*
X151330000Y-103470000D01*
X151330000Y-106070000D02*
X151330000Y-108670000D01*
X148730000Y-106070000D02*
X151330000Y-106070000D01*
X148730000Y-103470000D02*
X148730000Y-106070000D01*
X151330000Y-108670000D02*
X100410000Y-108670000D01*
X148730000Y-103470000D02*
X100410000Y-103470000D01*
X100410000Y-103470000D02*
X100410000Y-108670000D01*
X149962779Y-86890000D02*
X149637221Y-86890000D01*
X149962779Y-87910000D02*
X149637221Y-87910000D01*
X146237221Y-80310000D02*
X146562779Y-80310000D01*
X146237221Y-79290000D02*
X146562779Y-79290000D01*
X146550279Y-73690000D02*
X146224721Y-73690000D01*
X146550279Y-74710000D02*
X146224721Y-74710000D01*
D11*
X131922380Y-71933333D02*
X132636666Y-71933333D01*
X132779523Y-71980952D01*
X132874761Y-72076190D01*
X132922380Y-72219047D01*
X132922380Y-72314285D01*
X132922380Y-70933333D02*
X132922380Y-71504761D01*
X132922380Y-71219047D02*
X131922380Y-71219047D01*
X132065238Y-71314285D01*
X132160476Y-71409523D01*
X132208095Y-71504761D01*
X139638095Y-94502380D02*
X139638095Y-95311904D01*
X139685714Y-95407142D01*
X139733333Y-95454761D01*
X139828571Y-95502380D01*
X140019047Y-95502380D01*
X140114285Y-95454761D01*
X140161904Y-95407142D01*
X140209523Y-95311904D01*
X140209523Y-94502380D01*
X141209523Y-95502380D02*
X140638095Y-95502380D01*
X140923809Y-95502380D02*
X140923809Y-94502380D01*
X140828571Y-94645238D01*
X140733333Y-94740476D01*
X140638095Y-94788095D01*
X150266666Y-94652380D02*
X150266666Y-95366666D01*
X150219047Y-95509523D01*
X150123809Y-95604761D01*
X149980952Y-95652380D01*
X149885714Y-95652380D01*
X150695238Y-94747619D02*
X150742857Y-94700000D01*
X150838095Y-94652380D01*
X151076190Y-94652380D01*
X151171428Y-94700000D01*
X151219047Y-94747619D01*
X151266666Y-94842857D01*
X151266666Y-94938095D01*
X151219047Y-95080952D01*
X150647619Y-95652380D01*
X151266666Y-95652380D01*
X140923809Y-78376190D02*
X140923809Y-78852380D01*
X140590476Y-77852380D02*
X140923809Y-78376190D01*
X141257142Y-77852380D01*
X142114285Y-78852380D02*
X141542857Y-78852380D01*
X141828571Y-78852380D02*
X141828571Y-77852380D01*
X141733333Y-77995238D01*
X141638095Y-78090476D01*
X141542857Y-78138095D01*
D14*
X109657844Y-86068809D02*
X109657844Y-86675385D01*
X109693525Y-86746747D01*
X109729206Y-86782428D01*
X109800568Y-86818109D01*
X109943292Y-86818109D01*
X110014654Y-86782428D01*
X110050335Y-86746747D01*
X110086016Y-86675385D01*
X110086016Y-86068809D01*
X110407144Y-86140170D02*
X110442825Y-86104490D01*
X110514187Y-86068809D01*
X110692592Y-86068809D01*
X110763954Y-86104490D01*
X110799635Y-86140170D01*
X110835316Y-86211532D01*
X110835316Y-86282894D01*
X110799635Y-86389937D01*
X110371463Y-86818109D01*
X110835316Y-86818109D01*
X114236559Y-88582428D02*
X114165197Y-88618109D01*
X114022473Y-88618109D01*
X113951111Y-88582428D01*
X113915430Y-88546747D01*
X113879749Y-88475385D01*
X113879749Y-88261299D01*
X113915430Y-88189937D01*
X113951111Y-88154256D01*
X114022473Y-88118575D01*
X114165197Y-88118575D01*
X114236559Y-88154256D01*
X114664730Y-88618109D02*
X114593368Y-88582428D01*
X114557687Y-88546747D01*
X114522006Y-88475385D01*
X114522006Y-88261299D01*
X114557687Y-88189937D01*
X114593368Y-88154256D01*
X114664730Y-88118575D01*
X114771773Y-88118575D01*
X114843135Y-88154256D01*
X114878816Y-88189937D01*
X114914497Y-88261299D01*
X114914497Y-88475385D01*
X114878816Y-88546747D01*
X114843135Y-88582428D01*
X114771773Y-88618109D01*
X114664730Y-88618109D01*
X115235625Y-88118575D02*
X115235625Y-88618109D01*
X115235625Y-88189937D02*
X115271306Y-88154256D01*
X115342668Y-88118575D01*
X115449711Y-88118575D01*
X115521073Y-88154256D01*
X115556754Y-88225618D01*
X115556754Y-88618109D01*
X115913563Y-88118575D02*
X115913563Y-88618109D01*
X115913563Y-88189937D02*
X115949244Y-88154256D01*
X116020606Y-88118575D01*
X116127649Y-88118575D01*
X116199011Y-88154256D01*
X116234692Y-88225618D01*
X116234692Y-88618109D01*
X116591501Y-88332661D02*
X117162397Y-88332661D01*
X117447844Y-88618109D02*
X117840335Y-88118575D01*
X117447844Y-88118575D02*
X117840335Y-88618109D01*
X118090101Y-87940170D02*
X118125782Y-87904490D01*
X118197144Y-87868809D01*
X118375549Y-87868809D01*
X118446911Y-87904490D01*
X118482592Y-87940170D01*
X118518273Y-88011532D01*
X118518273Y-88082894D01*
X118482592Y-88189937D01*
X118054420Y-88618109D01*
X118518273Y-88618109D01*
X118803720Y-87940170D02*
X118839401Y-87904490D01*
X118910763Y-87868809D01*
X119089168Y-87868809D01*
X119160530Y-87904490D01*
X119196211Y-87940170D01*
X119231892Y-88011532D01*
X119231892Y-88082894D01*
X119196211Y-88189937D01*
X118768040Y-88618109D01*
X119231892Y-88618109D01*
X119695744Y-87868809D02*
X119767106Y-87868809D01*
X119838468Y-87904490D01*
X119874149Y-87940170D01*
X119909830Y-88011532D01*
X119945511Y-88154256D01*
X119945511Y-88332661D01*
X119909830Y-88475385D01*
X119874149Y-88546747D01*
X119838468Y-88582428D01*
X119767106Y-88618109D01*
X119695744Y-88618109D01*
X119624382Y-88582428D01*
X119588701Y-88546747D01*
X119553020Y-88475385D01*
X119517340Y-88332661D01*
X119517340Y-88154256D01*
X119553020Y-88011532D01*
X119588701Y-87940170D01*
X119624382Y-87904490D01*
X119695744Y-87868809D01*
X120266640Y-88332661D02*
X120837535Y-88332661D01*
X121194344Y-88618109D02*
X121194344Y-87868809D01*
X121265706Y-88332661D02*
X121479792Y-88618109D01*
X121479792Y-88118575D02*
X121194344Y-88404023D01*
X121800920Y-88618109D02*
X121800920Y-87868809D01*
X121800920Y-88154256D02*
X121872282Y-88118575D01*
X122015006Y-88118575D01*
X122086368Y-88154256D01*
X122122049Y-88189937D01*
X122157730Y-88261299D01*
X122157730Y-88475385D01*
X122122049Y-88546747D01*
X122086368Y-88582428D01*
X122015006Y-88618109D01*
X121872282Y-88618109D01*
X121800920Y-88582428D01*
D11*
X149633333Y-89187142D02*
X149585714Y-89234761D01*
X149442857Y-89282380D01*
X149347619Y-89282380D01*
X149204761Y-89234761D01*
X149109523Y-89139523D01*
X149061904Y-89044285D01*
X149014285Y-88853809D01*
X149014285Y-88710952D01*
X149061904Y-88520476D01*
X149109523Y-88425238D01*
X149204761Y-88330000D01*
X149347619Y-88282380D01*
X149442857Y-88282380D01*
X149585714Y-88330000D01*
X149633333Y-88377619D01*
X149966666Y-88282380D02*
X150585714Y-88282380D01*
X150252380Y-88663333D01*
X150395238Y-88663333D01*
X150490476Y-88710952D01*
X150538095Y-88758571D01*
X150585714Y-88853809D01*
X150585714Y-89091904D01*
X150538095Y-89187142D01*
X150490476Y-89234761D01*
X150395238Y-89282380D01*
X150109523Y-89282380D01*
X150014285Y-89234761D01*
X149966666Y-89187142D01*
M02*
