%TF.GenerationSoftware,KiCad,Pcbnew,5.1.5*%
%TF.CreationDate,2020-05-13T22:00:42+02:00*%
%TF.ProjectId,thinkpad-keyboard,7468696e-6b70-4616-942d-6b6579626f61,rev?*%
%TF.SameCoordinates,Original*%
%TF.FileFunction,Legend,Bot*%
%TF.FilePolarity,Positive*%
%FSLAX46Y46*%
G04 Gerber Fmt 4.6, Leading zero omitted, Abs format (unit mm)*
G04 Created by KiCad (PCBNEW 5.1.5) date 2020-05-13 22:00:42*
%MOMM*%
%LPD*%
G04 APERTURE LIST*
%ADD10C,0.150000*%
%ADD11C,0.010000*%
G04 APERTURE END LIST*
D10*
X120276190Y-76227380D02*
X119704761Y-76227380D01*
X119990476Y-77227380D02*
X119990476Y-76227380D01*
X119371428Y-77227380D02*
X119371428Y-76227380D01*
X118942857Y-77227380D02*
X118942857Y-76703571D01*
X118990476Y-76608333D01*
X119085714Y-76560714D01*
X119228571Y-76560714D01*
X119323809Y-76608333D01*
X119371428Y-76655952D01*
X118466666Y-77227380D02*
X118466666Y-76560714D01*
X118466666Y-76227380D02*
X118514285Y-76275000D01*
X118466666Y-76322619D01*
X118419047Y-76275000D01*
X118466666Y-76227380D01*
X118466666Y-76322619D01*
X117990476Y-76560714D02*
X117990476Y-77227380D01*
X117990476Y-76655952D02*
X117942857Y-76608333D01*
X117847619Y-76560714D01*
X117704761Y-76560714D01*
X117609523Y-76608333D01*
X117561904Y-76703571D01*
X117561904Y-77227380D01*
X117085714Y-77227380D02*
X117085714Y-76227380D01*
X116990476Y-76846428D02*
X116704761Y-77227380D01*
X116704761Y-76560714D02*
X117085714Y-76941666D01*
X116276190Y-77227380D02*
X116276190Y-76227380D01*
X115895238Y-76227380D01*
X115800000Y-76275000D01*
X115752380Y-76322619D01*
X115704761Y-76417857D01*
X115704761Y-76560714D01*
X115752380Y-76655952D01*
X115800000Y-76703571D01*
X115895238Y-76751190D01*
X116276190Y-76751190D01*
X114847619Y-77227380D02*
X114847619Y-76703571D01*
X114895238Y-76608333D01*
X114990476Y-76560714D01*
X115180952Y-76560714D01*
X115276190Y-76608333D01*
X114847619Y-77179761D02*
X114942857Y-77227380D01*
X115180952Y-77227380D01*
X115276190Y-77179761D01*
X115323809Y-77084523D01*
X115323809Y-76989285D01*
X115276190Y-76894047D01*
X115180952Y-76846428D01*
X114942857Y-76846428D01*
X114847619Y-76798809D01*
X113942857Y-77227380D02*
X113942857Y-76227380D01*
X113942857Y-77179761D02*
X114038095Y-77227380D01*
X114228571Y-77227380D01*
X114323809Y-77179761D01*
X114371428Y-77132142D01*
X114419047Y-77036904D01*
X114419047Y-76751190D01*
X114371428Y-76655952D01*
X114323809Y-76608333D01*
X114228571Y-76560714D01*
X114038095Y-76560714D01*
X113942857Y-76608333D01*
X112704761Y-77227380D02*
X112704761Y-76227380D01*
X112133333Y-77227380D02*
X112561904Y-76655952D01*
X112133333Y-76227380D02*
X112704761Y-76798809D01*
X111371428Y-76703571D02*
X111228571Y-76751190D01*
X111180952Y-76798809D01*
X111133333Y-76894047D01*
X111133333Y-77036904D01*
X111180952Y-77132142D01*
X111228571Y-77179761D01*
X111323809Y-77227380D01*
X111704761Y-77227380D01*
X111704761Y-76227380D01*
X111371428Y-76227380D01*
X111276190Y-76275000D01*
X111228571Y-76322619D01*
X111180952Y-76417857D01*
X111180952Y-76513095D01*
X111228571Y-76608333D01*
X111276190Y-76655952D01*
X111371428Y-76703571D01*
X111704761Y-76703571D01*
X109942857Y-77227380D02*
X109942857Y-76227380D01*
X109942857Y-76608333D02*
X109847619Y-76560714D01*
X109657142Y-76560714D01*
X109561904Y-76608333D01*
X109514285Y-76655952D01*
X109466666Y-76751190D01*
X109466666Y-77036904D01*
X109514285Y-77132142D01*
X109561904Y-77179761D01*
X109657142Y-77227380D01*
X109847619Y-77227380D01*
X109942857Y-77179761D01*
X109038095Y-77227380D02*
X109038095Y-76560714D01*
X109038095Y-76751190D02*
X108990476Y-76655952D01*
X108942857Y-76608333D01*
X108847619Y-76560714D01*
X108752380Y-76560714D01*
X108038095Y-77179761D02*
X108133333Y-77227380D01*
X108323809Y-77227380D01*
X108419047Y-77179761D01*
X108466666Y-77084523D01*
X108466666Y-76703571D01*
X108419047Y-76608333D01*
X108323809Y-76560714D01*
X108133333Y-76560714D01*
X108038095Y-76608333D01*
X107990476Y-76703571D01*
X107990476Y-76798809D01*
X108466666Y-76894047D01*
X107133333Y-77227380D02*
X107133333Y-76703571D01*
X107180952Y-76608333D01*
X107276190Y-76560714D01*
X107466666Y-76560714D01*
X107561904Y-76608333D01*
X107133333Y-77179761D02*
X107228571Y-77227380D01*
X107466666Y-77227380D01*
X107561904Y-77179761D01*
X107609523Y-77084523D01*
X107609523Y-76989285D01*
X107561904Y-76894047D01*
X107466666Y-76846428D01*
X107228571Y-76846428D01*
X107133333Y-76798809D01*
X106657142Y-77227380D02*
X106657142Y-76227380D01*
X106561904Y-76846428D02*
X106276190Y-77227380D01*
X106276190Y-76560714D02*
X106657142Y-76941666D01*
X105704761Y-77227380D02*
X105800000Y-77179761D01*
X105847619Y-77132142D01*
X105895238Y-77036904D01*
X105895238Y-76751190D01*
X105847619Y-76655952D01*
X105800000Y-76608333D01*
X105704761Y-76560714D01*
X105561904Y-76560714D01*
X105466666Y-76608333D01*
X105419047Y-76655952D01*
X105371428Y-76751190D01*
X105371428Y-77036904D01*
X105419047Y-77132142D01*
X105466666Y-77179761D01*
X105561904Y-77227380D01*
X105704761Y-77227380D01*
X104514285Y-76560714D02*
X104514285Y-77227380D01*
X104942857Y-76560714D02*
X104942857Y-77084523D01*
X104895238Y-77179761D01*
X104800000Y-77227380D01*
X104657142Y-77227380D01*
X104561904Y-77179761D01*
X104514285Y-77132142D01*
X104180952Y-76560714D02*
X103800000Y-76560714D01*
X104038095Y-76227380D02*
X104038095Y-77084523D01*
X103990476Y-77179761D01*
X103895238Y-77227380D01*
X103800000Y-77227380D01*
X102800000Y-76560714D02*
X102561904Y-77227380D01*
X102323809Y-76560714D01*
X101419047Y-77227380D02*
X101990476Y-77227380D01*
X101704761Y-77227380D02*
X101704761Y-76227380D01*
X101800000Y-76370238D01*
X101895238Y-76465476D01*
X101990476Y-76513095D01*
X117728571Y-78877380D02*
X117728571Y-77877380D01*
X117728571Y-78258333D02*
X117633333Y-78210714D01*
X117442857Y-78210714D01*
X117347619Y-78258333D01*
X117300000Y-78305952D01*
X117252380Y-78401190D01*
X117252380Y-78686904D01*
X117300000Y-78782142D01*
X117347619Y-78829761D01*
X117442857Y-78877380D01*
X117633333Y-78877380D01*
X117728571Y-78829761D01*
X116919047Y-78210714D02*
X116680952Y-78877380D01*
X116442857Y-78210714D02*
X116680952Y-78877380D01*
X116776190Y-79115476D01*
X116823809Y-79163095D01*
X116919047Y-79210714D01*
X115442857Y-77877380D02*
X115109523Y-78877380D01*
X114776190Y-77877380D01*
X114014285Y-78877380D02*
X114014285Y-78353571D01*
X114061904Y-78258333D01*
X114157142Y-78210714D01*
X114347619Y-78210714D01*
X114442857Y-78258333D01*
X114014285Y-78829761D02*
X114109523Y-78877380D01*
X114347619Y-78877380D01*
X114442857Y-78829761D01*
X114490476Y-78734523D01*
X114490476Y-78639285D01*
X114442857Y-78544047D01*
X114347619Y-78496428D01*
X114109523Y-78496428D01*
X114014285Y-78448809D01*
X113395238Y-78877380D02*
X113490476Y-78829761D01*
X113538095Y-78734523D01*
X113538095Y-77877380D01*
X112633333Y-78829761D02*
X112728571Y-78877380D01*
X112919047Y-78877380D01*
X113014285Y-78829761D01*
X113061904Y-78734523D01*
X113061904Y-78353571D01*
X113014285Y-78258333D01*
X112919047Y-78210714D01*
X112728571Y-78210714D01*
X112633333Y-78258333D01*
X112585714Y-78353571D01*
X112585714Y-78448809D01*
X113061904Y-78544047D01*
X112157142Y-78210714D02*
X112157142Y-78877380D01*
X112157142Y-78305952D02*
X112109523Y-78258333D01*
X112014285Y-78210714D01*
X111871428Y-78210714D01*
X111776190Y-78258333D01*
X111728571Y-78353571D01*
X111728571Y-78877380D01*
X111395238Y-78210714D02*
X111014285Y-78210714D01*
X111252380Y-77877380D02*
X111252380Y-78734523D01*
X111204761Y-78829761D01*
X111109523Y-78877380D01*
X111014285Y-78877380D01*
X110680952Y-78877380D02*
X110680952Y-78210714D01*
X110680952Y-77877380D02*
X110728571Y-77925000D01*
X110680952Y-77972619D01*
X110633333Y-77925000D01*
X110680952Y-77877380D01*
X110680952Y-77972619D01*
X110204761Y-78210714D02*
X110204761Y-78877380D01*
X110204761Y-78305952D02*
X110157142Y-78258333D01*
X110061904Y-78210714D01*
X109919047Y-78210714D01*
X109823809Y-78258333D01*
X109776190Y-78353571D01*
X109776190Y-78877380D01*
X107966666Y-78877380D02*
X108300000Y-78401190D01*
X108538095Y-78877380D02*
X108538095Y-77877380D01*
X108157142Y-77877380D01*
X108061904Y-77925000D01*
X108014285Y-77972619D01*
X107966666Y-78067857D01*
X107966666Y-78210714D01*
X108014285Y-78305952D01*
X108061904Y-78353571D01*
X108157142Y-78401190D01*
X108538095Y-78401190D01*
X107395238Y-78877380D02*
X107490476Y-78829761D01*
X107538095Y-78782142D01*
X107585714Y-78686904D01*
X107585714Y-78401190D01*
X107538095Y-78305952D01*
X107490476Y-78258333D01*
X107395238Y-78210714D01*
X107252380Y-78210714D01*
X107157142Y-78258333D01*
X107109523Y-78305952D01*
X107061904Y-78401190D01*
X107061904Y-78686904D01*
X107109523Y-78782142D01*
X107157142Y-78829761D01*
X107252380Y-78877380D01*
X107395238Y-78877380D01*
X106490476Y-78877380D02*
X106585714Y-78829761D01*
X106633333Y-78734523D01*
X106633333Y-77877380D01*
X105680952Y-78877380D02*
X105680952Y-78353571D01*
X105728571Y-78258333D01*
X105823809Y-78210714D01*
X106014285Y-78210714D01*
X106109523Y-78258333D01*
X105680952Y-78829761D02*
X105776190Y-78877380D01*
X106014285Y-78877380D01*
X106109523Y-78829761D01*
X106157142Y-78734523D01*
X106157142Y-78639285D01*
X106109523Y-78544047D01*
X106014285Y-78496428D01*
X105776190Y-78496428D01*
X105680952Y-78448809D01*
X105204761Y-78210714D02*
X105204761Y-78877380D01*
X105204761Y-78305952D02*
X105157142Y-78258333D01*
X105061904Y-78210714D01*
X104919047Y-78210714D01*
X104823809Y-78258333D01*
X104776190Y-78353571D01*
X104776190Y-78877380D01*
X103871428Y-78877380D02*
X103871428Y-77877380D01*
X103871428Y-78829761D02*
X103966666Y-78877380D01*
X104157142Y-78877380D01*
X104252380Y-78829761D01*
X104300000Y-78782142D01*
X104347619Y-78686904D01*
X104347619Y-78401190D01*
X104300000Y-78305952D01*
X104252380Y-78258333D01*
X104157142Y-78210714D01*
X103966666Y-78210714D01*
X103871428Y-78258333D01*
D11*
G36*
X110860122Y-80087776D02*
G01*
X110754388Y-80088355D01*
X110677868Y-80089922D01*
X110625628Y-80092972D01*
X110592737Y-80097996D01*
X110574263Y-80105489D01*
X110565273Y-80115944D01*
X110560837Y-80129853D01*
X110560406Y-80131654D01*
X110553667Y-80164145D01*
X110541192Y-80228252D01*
X110524281Y-80317151D01*
X110504229Y-80424019D01*
X110482336Y-80542033D01*
X110481571Y-80546178D01*
X110459641Y-80661831D01*
X110439123Y-80764014D01*
X110421341Y-80846598D01*
X110407619Y-80903456D01*
X110399282Y-80928458D01*
X110398884Y-80928901D01*
X110374323Y-80941110D01*
X110323685Y-80961456D01*
X110257905Y-80985545D01*
X110257539Y-80985674D01*
X110174683Y-81016818D01*
X110077000Y-81056491D01*
X109984923Y-81096381D01*
X109980566Y-81098353D01*
X109830593Y-81166420D01*
X109498502Y-80939639D01*
X109396626Y-80870504D01*
X109304343Y-80808697D01*
X109226997Y-80757733D01*
X109169936Y-80721127D01*
X109138505Y-80702394D01*
X109135521Y-80701004D01*
X109112679Y-80707190D01*
X109070018Y-80737035D01*
X109005872Y-80791947D01*
X108918579Y-80873334D01*
X108829465Y-80959922D01*
X108743559Y-81045247D01*
X108666673Y-81123108D01*
X108603436Y-81188697D01*
X108558477Y-81237205D01*
X108536424Y-81263825D01*
X108535604Y-81265195D01*
X108533166Y-81283463D01*
X108542350Y-81313295D01*
X108565426Y-81358721D01*
X108604663Y-81423770D01*
X108662330Y-81512470D01*
X108739205Y-81626657D01*
X108807430Y-81727162D01*
X108868418Y-81817303D01*
X108918644Y-81891849D01*
X108954584Y-81945565D01*
X108972713Y-81973218D01*
X108973854Y-81975095D01*
X108971641Y-82001590D01*
X108954862Y-82053086D01*
X108926858Y-82119851D01*
X108916878Y-82141172D01*
X108873328Y-82236159D01*
X108826866Y-82343937D01*
X108789123Y-82437192D01*
X108761927Y-82506406D01*
X108740325Y-82559006D01*
X108727842Y-82586497D01*
X108726291Y-82588616D01*
X108703332Y-82592124D01*
X108649214Y-82601738D01*
X108571132Y-82616089D01*
X108476281Y-82633807D01*
X108371857Y-82653525D01*
X108265056Y-82673874D01*
X108163074Y-82693486D01*
X108073106Y-82710991D01*
X108002347Y-82725022D01*
X107957994Y-82734209D01*
X107947115Y-82736807D01*
X107935878Y-82743218D01*
X107927395Y-82757697D01*
X107921286Y-82785133D01*
X107917168Y-82830411D01*
X107914659Y-82898420D01*
X107913379Y-82994047D01*
X107912946Y-83122180D01*
X107912923Y-83174701D01*
X107912923Y-83601845D01*
X108015500Y-83622091D01*
X108072569Y-83633070D01*
X108157731Y-83649095D01*
X108260628Y-83668233D01*
X108370904Y-83688551D01*
X108401385Y-83694132D01*
X108503145Y-83713917D01*
X108591795Y-83733373D01*
X108659892Y-83750697D01*
X108699996Y-83764088D01*
X108706677Y-83768079D01*
X108723081Y-83796342D01*
X108746601Y-83851109D01*
X108772684Y-83921588D01*
X108777858Y-83936769D01*
X108812044Y-84030896D01*
X108854477Y-84137101D01*
X108896003Y-84232473D01*
X108896208Y-84232916D01*
X108965360Y-84382525D01*
X108510488Y-85051617D01*
X108802500Y-85344116D01*
X108890820Y-85431170D01*
X108971375Y-85507909D01*
X109039640Y-85570237D01*
X109091092Y-85614056D01*
X109121206Y-85635270D01*
X109125526Y-85636616D01*
X109150889Y-85626016D01*
X109202642Y-85596547D01*
X109275132Y-85551705D01*
X109362706Y-85494984D01*
X109457388Y-85431462D01*
X109553484Y-85366668D01*
X109639163Y-85310287D01*
X109708984Y-85265788D01*
X109757506Y-85236639D01*
X109779218Y-85226308D01*
X109805707Y-85235050D01*
X109855938Y-85258087D01*
X109919549Y-85290631D01*
X109926292Y-85294249D01*
X110011954Y-85337210D01*
X110070694Y-85358279D01*
X110107228Y-85358503D01*
X110126269Y-85338928D01*
X110126380Y-85338654D01*
X110135898Y-85315472D01*
X110158597Y-85260441D01*
X110192718Y-85177822D01*
X110236500Y-85071872D01*
X110288184Y-84946852D01*
X110346008Y-84807020D01*
X110402009Y-84671637D01*
X110463553Y-84522234D01*
X110520061Y-84383832D01*
X110569839Y-84260673D01*
X110611194Y-84157002D01*
X110642432Y-84077059D01*
X110661859Y-84025088D01*
X110667846Y-84005692D01*
X110652832Y-83983443D01*
X110613561Y-83947982D01*
X110561193Y-83908887D01*
X110412059Y-83785245D01*
X110295489Y-83643522D01*
X110212882Y-83486704D01*
X110165634Y-83317775D01*
X110155143Y-83139722D01*
X110162769Y-83057539D01*
X110204318Y-82887031D01*
X110275877Y-82736459D01*
X110373005Y-82607309D01*
X110491266Y-82501064D01*
X110626220Y-82419210D01*
X110773429Y-82363232D01*
X110928456Y-82334615D01*
X111086861Y-82334844D01*
X111244206Y-82365405D01*
X111396054Y-82427782D01*
X111537965Y-82523460D01*
X111597197Y-82577572D01*
X111710797Y-82716520D01*
X111789894Y-82868361D01*
X111835014Y-83028667D01*
X111846684Y-83193012D01*
X111825431Y-83356971D01*
X111771780Y-83516118D01*
X111686260Y-83666025D01*
X111569395Y-83802267D01*
X111438807Y-83908887D01*
X111384412Y-83949642D01*
X111345986Y-83984718D01*
X111332154Y-84005726D01*
X111339397Y-84028635D01*
X111359995Y-84083365D01*
X111392254Y-84165672D01*
X111434479Y-84271315D01*
X111484977Y-84396050D01*
X111542052Y-84535636D01*
X111598146Y-84671670D01*
X111660033Y-84821201D01*
X111717356Y-84959767D01*
X111768356Y-85083107D01*
X111811273Y-85186964D01*
X111844347Y-85267080D01*
X111865819Y-85319195D01*
X111873775Y-85338654D01*
X111892571Y-85358423D01*
X111928926Y-85358365D01*
X111987521Y-85337441D01*
X112073032Y-85294613D01*
X112073708Y-85294249D01*
X112138093Y-85261012D01*
X112190139Y-85236802D01*
X112219488Y-85226404D01*
X112220783Y-85226308D01*
X112242876Y-85236855D01*
X112291652Y-85266184D01*
X112361669Y-85310827D01*
X112447486Y-85367314D01*
X112542612Y-85431462D01*
X112639460Y-85496411D01*
X112726747Y-85552896D01*
X112798819Y-85597421D01*
X112850023Y-85626490D01*
X112874474Y-85636616D01*
X112896990Y-85623307D01*
X112942258Y-85586112D01*
X113005756Y-85529128D01*
X113082961Y-85456449D01*
X113169349Y-85372171D01*
X113197601Y-85344016D01*
X113489713Y-85051416D01*
X113267369Y-84725104D01*
X113199798Y-84624897D01*
X113140493Y-84534963D01*
X113092783Y-84460510D01*
X113059993Y-84406751D01*
X113045452Y-84378894D01*
X113045026Y-84376912D01*
X113052692Y-84350655D01*
X113073311Y-84297837D01*
X113103315Y-84227310D01*
X113124375Y-84180093D01*
X113163752Y-84089694D01*
X113200835Y-83998366D01*
X113229585Y-83921200D01*
X113237395Y-83897692D01*
X113259583Y-83834916D01*
X113281273Y-83786411D01*
X113293187Y-83768079D01*
X113319477Y-83756859D01*
X113376858Y-83740954D01*
X113457882Y-83722167D01*
X113555105Y-83702299D01*
X113598615Y-83694132D01*
X113709104Y-83673829D01*
X113815084Y-83654170D01*
X113906199Y-83637088D01*
X113972092Y-83624518D01*
X113984500Y-83622091D01*
X114087077Y-83601845D01*
X114087077Y-83174701D01*
X114086847Y-83034246D01*
X114085901Y-82927979D01*
X114083859Y-82851013D01*
X114080338Y-82798460D01*
X114074957Y-82765433D01*
X114067334Y-82747045D01*
X114057088Y-82738408D01*
X114052885Y-82736807D01*
X114027530Y-82731127D01*
X113971516Y-82719795D01*
X113892036Y-82704179D01*
X113796288Y-82685647D01*
X113691467Y-82665569D01*
X113584768Y-82645312D01*
X113483387Y-82626246D01*
X113394521Y-82609739D01*
X113325363Y-82597159D01*
X113283111Y-82589875D01*
X113273710Y-82588616D01*
X113265193Y-82571763D01*
X113246340Y-82526870D01*
X113220676Y-82462430D01*
X113210877Y-82437192D01*
X113171352Y-82339686D01*
X113124808Y-82231959D01*
X113083123Y-82141172D01*
X113052450Y-82071753D01*
X113032044Y-82014710D01*
X113025232Y-81979777D01*
X113026318Y-81975095D01*
X113040715Y-81952991D01*
X113073588Y-81903831D01*
X113121410Y-81832848D01*
X113180652Y-81745278D01*
X113247785Y-81646357D01*
X113261059Y-81626830D01*
X113338954Y-81511140D01*
X113396213Y-81423044D01*
X113435119Y-81358486D01*
X113457956Y-81313411D01*
X113467006Y-81283763D01*
X113464552Y-81265485D01*
X113464489Y-81265369D01*
X113445173Y-81241361D01*
X113402449Y-81194947D01*
X113340949Y-81130937D01*
X113265302Y-81054145D01*
X113180139Y-80969382D01*
X113170535Y-80959922D01*
X113063210Y-80855989D01*
X112980385Y-80779675D01*
X112920395Y-80729571D01*
X112881577Y-80704270D01*
X112864480Y-80701004D01*
X112839527Y-80715250D01*
X112787745Y-80748156D01*
X112714480Y-80796208D01*
X112625080Y-80855890D01*
X112524889Y-80923688D01*
X112501499Y-80939639D01*
X112169407Y-81166420D01*
X112019435Y-81098353D01*
X111928230Y-81058685D01*
X111830331Y-81018791D01*
X111746169Y-80986983D01*
X111742462Y-80985674D01*
X111676631Y-80961576D01*
X111625884Y-80941200D01*
X111601158Y-80928936D01*
X111601116Y-80928901D01*
X111593271Y-80906734D01*
X111579934Y-80852217D01*
X111562430Y-80771480D01*
X111542083Y-80670650D01*
X111520218Y-80555856D01*
X111518429Y-80546178D01*
X111496496Y-80427904D01*
X111476360Y-80320542D01*
X111459320Y-80230917D01*
X111446672Y-80165851D01*
X111439716Y-80132168D01*
X111439594Y-80131654D01*
X111435361Y-80117325D01*
X111427129Y-80106507D01*
X111409967Y-80098706D01*
X111378942Y-80093429D01*
X111329122Y-80090182D01*
X111255576Y-80088472D01*
X111153371Y-80087807D01*
X111017575Y-80087693D01*
X111000000Y-80087692D01*
X110860122Y-80087776D01*
G37*
X110860122Y-80087776D02*
X110754388Y-80088355D01*
X110677868Y-80089922D01*
X110625628Y-80092972D01*
X110592737Y-80097996D01*
X110574263Y-80105489D01*
X110565273Y-80115944D01*
X110560837Y-80129853D01*
X110560406Y-80131654D01*
X110553667Y-80164145D01*
X110541192Y-80228252D01*
X110524281Y-80317151D01*
X110504229Y-80424019D01*
X110482336Y-80542033D01*
X110481571Y-80546178D01*
X110459641Y-80661831D01*
X110439123Y-80764014D01*
X110421341Y-80846598D01*
X110407619Y-80903456D01*
X110399282Y-80928458D01*
X110398884Y-80928901D01*
X110374323Y-80941110D01*
X110323685Y-80961456D01*
X110257905Y-80985545D01*
X110257539Y-80985674D01*
X110174683Y-81016818D01*
X110077000Y-81056491D01*
X109984923Y-81096381D01*
X109980566Y-81098353D01*
X109830593Y-81166420D01*
X109498502Y-80939639D01*
X109396626Y-80870504D01*
X109304343Y-80808697D01*
X109226997Y-80757733D01*
X109169936Y-80721127D01*
X109138505Y-80702394D01*
X109135521Y-80701004D01*
X109112679Y-80707190D01*
X109070018Y-80737035D01*
X109005872Y-80791947D01*
X108918579Y-80873334D01*
X108829465Y-80959922D01*
X108743559Y-81045247D01*
X108666673Y-81123108D01*
X108603436Y-81188697D01*
X108558477Y-81237205D01*
X108536424Y-81263825D01*
X108535604Y-81265195D01*
X108533166Y-81283463D01*
X108542350Y-81313295D01*
X108565426Y-81358721D01*
X108604663Y-81423770D01*
X108662330Y-81512470D01*
X108739205Y-81626657D01*
X108807430Y-81727162D01*
X108868418Y-81817303D01*
X108918644Y-81891849D01*
X108954584Y-81945565D01*
X108972713Y-81973218D01*
X108973854Y-81975095D01*
X108971641Y-82001590D01*
X108954862Y-82053086D01*
X108926858Y-82119851D01*
X108916878Y-82141172D01*
X108873328Y-82236159D01*
X108826866Y-82343937D01*
X108789123Y-82437192D01*
X108761927Y-82506406D01*
X108740325Y-82559006D01*
X108727842Y-82586497D01*
X108726291Y-82588616D01*
X108703332Y-82592124D01*
X108649214Y-82601738D01*
X108571132Y-82616089D01*
X108476281Y-82633807D01*
X108371857Y-82653525D01*
X108265056Y-82673874D01*
X108163074Y-82693486D01*
X108073106Y-82710991D01*
X108002347Y-82725022D01*
X107957994Y-82734209D01*
X107947115Y-82736807D01*
X107935878Y-82743218D01*
X107927395Y-82757697D01*
X107921286Y-82785133D01*
X107917168Y-82830411D01*
X107914659Y-82898420D01*
X107913379Y-82994047D01*
X107912946Y-83122180D01*
X107912923Y-83174701D01*
X107912923Y-83601845D01*
X108015500Y-83622091D01*
X108072569Y-83633070D01*
X108157731Y-83649095D01*
X108260628Y-83668233D01*
X108370904Y-83688551D01*
X108401385Y-83694132D01*
X108503145Y-83713917D01*
X108591795Y-83733373D01*
X108659892Y-83750697D01*
X108699996Y-83764088D01*
X108706677Y-83768079D01*
X108723081Y-83796342D01*
X108746601Y-83851109D01*
X108772684Y-83921588D01*
X108777858Y-83936769D01*
X108812044Y-84030896D01*
X108854477Y-84137101D01*
X108896003Y-84232473D01*
X108896208Y-84232916D01*
X108965360Y-84382525D01*
X108510488Y-85051617D01*
X108802500Y-85344116D01*
X108890820Y-85431170D01*
X108971375Y-85507909D01*
X109039640Y-85570237D01*
X109091092Y-85614056D01*
X109121206Y-85635270D01*
X109125526Y-85636616D01*
X109150889Y-85626016D01*
X109202642Y-85596547D01*
X109275132Y-85551705D01*
X109362706Y-85494984D01*
X109457388Y-85431462D01*
X109553484Y-85366668D01*
X109639163Y-85310287D01*
X109708984Y-85265788D01*
X109757506Y-85236639D01*
X109779218Y-85226308D01*
X109805707Y-85235050D01*
X109855938Y-85258087D01*
X109919549Y-85290631D01*
X109926292Y-85294249D01*
X110011954Y-85337210D01*
X110070694Y-85358279D01*
X110107228Y-85358503D01*
X110126269Y-85338928D01*
X110126380Y-85338654D01*
X110135898Y-85315472D01*
X110158597Y-85260441D01*
X110192718Y-85177822D01*
X110236500Y-85071872D01*
X110288184Y-84946852D01*
X110346008Y-84807020D01*
X110402009Y-84671637D01*
X110463553Y-84522234D01*
X110520061Y-84383832D01*
X110569839Y-84260673D01*
X110611194Y-84157002D01*
X110642432Y-84077059D01*
X110661859Y-84025088D01*
X110667846Y-84005692D01*
X110652832Y-83983443D01*
X110613561Y-83947982D01*
X110561193Y-83908887D01*
X110412059Y-83785245D01*
X110295489Y-83643522D01*
X110212882Y-83486704D01*
X110165634Y-83317775D01*
X110155143Y-83139722D01*
X110162769Y-83057539D01*
X110204318Y-82887031D01*
X110275877Y-82736459D01*
X110373005Y-82607309D01*
X110491266Y-82501064D01*
X110626220Y-82419210D01*
X110773429Y-82363232D01*
X110928456Y-82334615D01*
X111086861Y-82334844D01*
X111244206Y-82365405D01*
X111396054Y-82427782D01*
X111537965Y-82523460D01*
X111597197Y-82577572D01*
X111710797Y-82716520D01*
X111789894Y-82868361D01*
X111835014Y-83028667D01*
X111846684Y-83193012D01*
X111825431Y-83356971D01*
X111771780Y-83516118D01*
X111686260Y-83666025D01*
X111569395Y-83802267D01*
X111438807Y-83908887D01*
X111384412Y-83949642D01*
X111345986Y-83984718D01*
X111332154Y-84005726D01*
X111339397Y-84028635D01*
X111359995Y-84083365D01*
X111392254Y-84165672D01*
X111434479Y-84271315D01*
X111484977Y-84396050D01*
X111542052Y-84535636D01*
X111598146Y-84671670D01*
X111660033Y-84821201D01*
X111717356Y-84959767D01*
X111768356Y-85083107D01*
X111811273Y-85186964D01*
X111844347Y-85267080D01*
X111865819Y-85319195D01*
X111873775Y-85338654D01*
X111892571Y-85358423D01*
X111928926Y-85358365D01*
X111987521Y-85337441D01*
X112073032Y-85294613D01*
X112073708Y-85294249D01*
X112138093Y-85261012D01*
X112190139Y-85236802D01*
X112219488Y-85226404D01*
X112220783Y-85226308D01*
X112242876Y-85236855D01*
X112291652Y-85266184D01*
X112361669Y-85310827D01*
X112447486Y-85367314D01*
X112542612Y-85431462D01*
X112639460Y-85496411D01*
X112726747Y-85552896D01*
X112798819Y-85597421D01*
X112850023Y-85626490D01*
X112874474Y-85636616D01*
X112896990Y-85623307D01*
X112942258Y-85586112D01*
X113005756Y-85529128D01*
X113082961Y-85456449D01*
X113169349Y-85372171D01*
X113197601Y-85344016D01*
X113489713Y-85051416D01*
X113267369Y-84725104D01*
X113199798Y-84624897D01*
X113140493Y-84534963D01*
X113092783Y-84460510D01*
X113059993Y-84406751D01*
X113045452Y-84378894D01*
X113045026Y-84376912D01*
X113052692Y-84350655D01*
X113073311Y-84297837D01*
X113103315Y-84227310D01*
X113124375Y-84180093D01*
X113163752Y-84089694D01*
X113200835Y-83998366D01*
X113229585Y-83921200D01*
X113237395Y-83897692D01*
X113259583Y-83834916D01*
X113281273Y-83786411D01*
X113293187Y-83768079D01*
X113319477Y-83756859D01*
X113376858Y-83740954D01*
X113457882Y-83722167D01*
X113555105Y-83702299D01*
X113598615Y-83694132D01*
X113709104Y-83673829D01*
X113815084Y-83654170D01*
X113906199Y-83637088D01*
X113972092Y-83624518D01*
X113984500Y-83622091D01*
X114087077Y-83601845D01*
X114087077Y-83174701D01*
X114086847Y-83034246D01*
X114085901Y-82927979D01*
X114083859Y-82851013D01*
X114080338Y-82798460D01*
X114074957Y-82765433D01*
X114067334Y-82747045D01*
X114057088Y-82738408D01*
X114052885Y-82736807D01*
X114027530Y-82731127D01*
X113971516Y-82719795D01*
X113892036Y-82704179D01*
X113796288Y-82685647D01*
X113691467Y-82665569D01*
X113584768Y-82645312D01*
X113483387Y-82626246D01*
X113394521Y-82609739D01*
X113325363Y-82597159D01*
X113283111Y-82589875D01*
X113273710Y-82588616D01*
X113265193Y-82571763D01*
X113246340Y-82526870D01*
X113220676Y-82462430D01*
X113210877Y-82437192D01*
X113171352Y-82339686D01*
X113124808Y-82231959D01*
X113083123Y-82141172D01*
X113052450Y-82071753D01*
X113032044Y-82014710D01*
X113025232Y-81979777D01*
X113026318Y-81975095D01*
X113040715Y-81952991D01*
X113073588Y-81903831D01*
X113121410Y-81832848D01*
X113180652Y-81745278D01*
X113247785Y-81646357D01*
X113261059Y-81626830D01*
X113338954Y-81511140D01*
X113396213Y-81423044D01*
X113435119Y-81358486D01*
X113457956Y-81313411D01*
X113467006Y-81283763D01*
X113464552Y-81265485D01*
X113464489Y-81265369D01*
X113445173Y-81241361D01*
X113402449Y-81194947D01*
X113340949Y-81130937D01*
X113265302Y-81054145D01*
X113180139Y-80969382D01*
X113170535Y-80959922D01*
X113063210Y-80855989D01*
X112980385Y-80779675D01*
X112920395Y-80729571D01*
X112881577Y-80704270D01*
X112864480Y-80701004D01*
X112839527Y-80715250D01*
X112787745Y-80748156D01*
X112714480Y-80796208D01*
X112625080Y-80855890D01*
X112524889Y-80923688D01*
X112501499Y-80939639D01*
X112169407Y-81166420D01*
X112019435Y-81098353D01*
X111928230Y-81058685D01*
X111830331Y-81018791D01*
X111746169Y-80986983D01*
X111742462Y-80985674D01*
X111676631Y-80961576D01*
X111625884Y-80941200D01*
X111601158Y-80928936D01*
X111601116Y-80928901D01*
X111593271Y-80906734D01*
X111579934Y-80852217D01*
X111562430Y-80771480D01*
X111542083Y-80670650D01*
X111520218Y-80555856D01*
X111518429Y-80546178D01*
X111496496Y-80427904D01*
X111476360Y-80320542D01*
X111459320Y-80230917D01*
X111446672Y-80165851D01*
X111439716Y-80132168D01*
X111439594Y-80131654D01*
X111435361Y-80117325D01*
X111427129Y-80106507D01*
X111409967Y-80098706D01*
X111378942Y-80093429D01*
X111329122Y-80090182D01*
X111255576Y-80088472D01*
X111153371Y-80087807D01*
X111017575Y-80087693D01*
X111000000Y-80087692D01*
X110860122Y-80087776D01*
G36*
X106754776Y-86447838D02*
G01*
X106677472Y-86498361D01*
X106640186Y-86543590D01*
X106610647Y-86625663D01*
X106608301Y-86690607D01*
X106613615Y-86777445D01*
X106813885Y-86865103D01*
X106911261Y-86909887D01*
X106974887Y-86945913D01*
X107007971Y-86977117D01*
X107013720Y-87007436D01*
X106995342Y-87040805D01*
X106975077Y-87062923D01*
X106916111Y-87098393D01*
X106851976Y-87100879D01*
X106793074Y-87073235D01*
X106749803Y-87018320D01*
X106742064Y-86998928D01*
X106704994Y-86938364D01*
X106662346Y-86912552D01*
X106603846Y-86890471D01*
X106603846Y-86974184D01*
X106609018Y-87031150D01*
X106629277Y-87079189D01*
X106671738Y-87134346D01*
X106678049Y-87141514D01*
X106725280Y-87190585D01*
X106765879Y-87216920D01*
X106816672Y-87229035D01*
X106858780Y-87233003D01*
X106934098Y-87233991D01*
X106987714Y-87221466D01*
X107021162Y-87202869D01*
X107073732Y-87161975D01*
X107110121Y-87117748D01*
X107133150Y-87062126D01*
X107145641Y-86987047D01*
X107150413Y-86884449D01*
X107150794Y-86832376D01*
X107149499Y-86769948D01*
X107031529Y-86769948D01*
X107030161Y-86803438D01*
X107026751Y-86808923D01*
X107004247Y-86801472D01*
X106955818Y-86781753D01*
X106891092Y-86753718D01*
X106877557Y-86747692D01*
X106795756Y-86706096D01*
X106750688Y-86669538D01*
X106740783Y-86635296D01*
X106764474Y-86600648D01*
X106784040Y-86585339D01*
X106854640Y-86554721D01*
X106920720Y-86559780D01*
X106976041Y-86597151D01*
X107014364Y-86663473D01*
X107026651Y-86716116D01*
X107031529Y-86769948D01*
X107149499Y-86769948D01*
X107148270Y-86710720D01*
X107138968Y-86620710D01*
X107120540Y-86555167D01*
X107090640Y-86506912D01*
X107046920Y-86468767D01*
X107027859Y-86456440D01*
X106941274Y-86424336D01*
X106846478Y-86422316D01*
X106754776Y-86447838D01*
G37*
X106754776Y-86447838D02*
X106677472Y-86498361D01*
X106640186Y-86543590D01*
X106610647Y-86625663D01*
X106608301Y-86690607D01*
X106613615Y-86777445D01*
X106813885Y-86865103D01*
X106911261Y-86909887D01*
X106974887Y-86945913D01*
X107007971Y-86977117D01*
X107013720Y-87007436D01*
X106995342Y-87040805D01*
X106975077Y-87062923D01*
X106916111Y-87098393D01*
X106851976Y-87100879D01*
X106793074Y-87073235D01*
X106749803Y-87018320D01*
X106742064Y-86998928D01*
X106704994Y-86938364D01*
X106662346Y-86912552D01*
X106603846Y-86890471D01*
X106603846Y-86974184D01*
X106609018Y-87031150D01*
X106629277Y-87079189D01*
X106671738Y-87134346D01*
X106678049Y-87141514D01*
X106725280Y-87190585D01*
X106765879Y-87216920D01*
X106816672Y-87229035D01*
X106858780Y-87233003D01*
X106934098Y-87233991D01*
X106987714Y-87221466D01*
X107021162Y-87202869D01*
X107073732Y-87161975D01*
X107110121Y-87117748D01*
X107133150Y-87062126D01*
X107145641Y-86987047D01*
X107150413Y-86884449D01*
X107150794Y-86832376D01*
X107149499Y-86769948D01*
X107031529Y-86769948D01*
X107030161Y-86803438D01*
X107026751Y-86808923D01*
X107004247Y-86801472D01*
X106955818Y-86781753D01*
X106891092Y-86753718D01*
X106877557Y-86747692D01*
X106795756Y-86706096D01*
X106750688Y-86669538D01*
X106740783Y-86635296D01*
X106764474Y-86600648D01*
X106784040Y-86585339D01*
X106854640Y-86554721D01*
X106920720Y-86559780D01*
X106976041Y-86597151D01*
X107014364Y-86663473D01*
X107026651Y-86716116D01*
X107031529Y-86769948D01*
X107149499Y-86769948D01*
X107148270Y-86710720D01*
X107138968Y-86620710D01*
X107120540Y-86555167D01*
X107090640Y-86506912D01*
X107046920Y-86468767D01*
X107027859Y-86456440D01*
X106941274Y-86424336D01*
X106846478Y-86422316D01*
X106754776Y-86447838D01*
G36*
X107429193Y-86436782D02*
G01*
X107405839Y-86446988D01*
X107350098Y-86491134D01*
X107302431Y-86554967D01*
X107272952Y-86623087D01*
X107268154Y-86656670D01*
X107284240Y-86703556D01*
X107319525Y-86728365D01*
X107357356Y-86743387D01*
X107374679Y-86746155D01*
X107383114Y-86726066D01*
X107399770Y-86682351D01*
X107407077Y-86662598D01*
X107448052Y-86594271D01*
X107507378Y-86560191D01*
X107583448Y-86561239D01*
X107589082Y-86562581D01*
X107629695Y-86581836D01*
X107659552Y-86619375D01*
X107679945Y-86679809D01*
X107692164Y-86767751D01*
X107697500Y-86887813D01*
X107698000Y-86951698D01*
X107698248Y-87052403D01*
X107699874Y-87121054D01*
X107704199Y-87164673D01*
X107712546Y-87190282D01*
X107726235Y-87204903D01*
X107746589Y-87215558D01*
X107747766Y-87216095D01*
X107786962Y-87232667D01*
X107806381Y-87238769D01*
X107809365Y-87220319D01*
X107811919Y-87169323D01*
X107813860Y-87092308D01*
X107815003Y-86995805D01*
X107815231Y-86925184D01*
X107814068Y-86788525D01*
X107809521Y-86684851D01*
X107800001Y-86608108D01*
X107783919Y-86552246D01*
X107759687Y-86511212D01*
X107725714Y-86478954D01*
X107692167Y-86456440D01*
X107611501Y-86426476D01*
X107517619Y-86419718D01*
X107429193Y-86436782D01*
G37*
X107429193Y-86436782D02*
X107405839Y-86446988D01*
X107350098Y-86491134D01*
X107302431Y-86554967D01*
X107272952Y-86623087D01*
X107268154Y-86656670D01*
X107284240Y-86703556D01*
X107319525Y-86728365D01*
X107357356Y-86743387D01*
X107374679Y-86746155D01*
X107383114Y-86726066D01*
X107399770Y-86682351D01*
X107407077Y-86662598D01*
X107448052Y-86594271D01*
X107507378Y-86560191D01*
X107583448Y-86561239D01*
X107589082Y-86562581D01*
X107629695Y-86581836D01*
X107659552Y-86619375D01*
X107679945Y-86679809D01*
X107692164Y-86767751D01*
X107697500Y-86887813D01*
X107698000Y-86951698D01*
X107698248Y-87052403D01*
X107699874Y-87121054D01*
X107704199Y-87164673D01*
X107712546Y-87190282D01*
X107726235Y-87204903D01*
X107746589Y-87215558D01*
X107747766Y-87216095D01*
X107786962Y-87232667D01*
X107806381Y-87238769D01*
X107809365Y-87220319D01*
X107811919Y-87169323D01*
X107813860Y-87092308D01*
X107815003Y-86995805D01*
X107815231Y-86925184D01*
X107814068Y-86788525D01*
X107809521Y-86684851D01*
X107800001Y-86608108D01*
X107783919Y-86552246D01*
X107759687Y-86511212D01*
X107725714Y-86478954D01*
X107692167Y-86456440D01*
X107611501Y-86426476D01*
X107517619Y-86419718D01*
X107429193Y-86436782D01*
G36*
X108112667Y-86433528D02*
G01*
X108056410Y-86459117D01*
X108012253Y-86490124D01*
X107979899Y-86524795D01*
X107957562Y-86569520D01*
X107943454Y-86630692D01*
X107935789Y-86714701D01*
X107932780Y-86827940D01*
X107932462Y-86902509D01*
X107932462Y-87193420D01*
X107982227Y-87216095D01*
X108021424Y-87232667D01*
X108040843Y-87238769D01*
X108044558Y-87220610D01*
X108047505Y-87171648D01*
X108049309Y-87100153D01*
X108049692Y-87043385D01*
X108051339Y-86961371D01*
X108055778Y-86896309D01*
X108062260Y-86856467D01*
X108067410Y-86848000D01*
X108102023Y-86856646D01*
X108156360Y-86878823D01*
X108219278Y-86908886D01*
X108279632Y-86941192D01*
X108326279Y-86970098D01*
X108348074Y-86989961D01*
X108348161Y-86990175D01*
X108346286Y-87026935D01*
X108329475Y-87062026D01*
X108299961Y-87090528D01*
X108256884Y-87100061D01*
X108220068Y-87098950D01*
X108167926Y-87098133D01*
X108140556Y-87110349D01*
X108124118Y-87142624D01*
X108122045Y-87148710D01*
X108114919Y-87194739D01*
X108133976Y-87222687D01*
X108183647Y-87236007D01*
X108237303Y-87238470D01*
X108333858Y-87220210D01*
X108383841Y-87194131D01*
X108445571Y-87132868D01*
X108478310Y-87057670D01*
X108481247Y-86978211D01*
X108453576Y-86904167D01*
X108411953Y-86857769D01*
X108370396Y-86831793D01*
X108305078Y-86798907D01*
X108228962Y-86765557D01*
X108216274Y-86760461D01*
X108132667Y-86723565D01*
X108084470Y-86691046D01*
X108068970Y-86658718D01*
X108083450Y-86622394D01*
X108108308Y-86594000D01*
X108167061Y-86559039D01*
X108231707Y-86556417D01*
X108290992Y-86583358D01*
X108333661Y-86637088D01*
X108339261Y-86650950D01*
X108371867Y-86701936D01*
X108419470Y-86739787D01*
X108479539Y-86770850D01*
X108479539Y-86682768D01*
X108476003Y-86628951D01*
X108460844Y-86586534D01*
X108427232Y-86541279D01*
X108394965Y-86506420D01*
X108344791Y-86457062D01*
X108305807Y-86430547D01*
X108263936Y-86419911D01*
X108216540Y-86418154D01*
X108112667Y-86433528D01*
G37*
X108112667Y-86433528D02*
X108056410Y-86459117D01*
X108012253Y-86490124D01*
X107979899Y-86524795D01*
X107957562Y-86569520D01*
X107943454Y-86630692D01*
X107935789Y-86714701D01*
X107932780Y-86827940D01*
X107932462Y-86902509D01*
X107932462Y-87193420D01*
X107982227Y-87216095D01*
X108021424Y-87232667D01*
X108040843Y-87238769D01*
X108044558Y-87220610D01*
X108047505Y-87171648D01*
X108049309Y-87100153D01*
X108049692Y-87043385D01*
X108051339Y-86961371D01*
X108055778Y-86896309D01*
X108062260Y-86856467D01*
X108067410Y-86848000D01*
X108102023Y-86856646D01*
X108156360Y-86878823D01*
X108219278Y-86908886D01*
X108279632Y-86941192D01*
X108326279Y-86970098D01*
X108348074Y-86989961D01*
X108348161Y-86990175D01*
X108346286Y-87026935D01*
X108329475Y-87062026D01*
X108299961Y-87090528D01*
X108256884Y-87100061D01*
X108220068Y-87098950D01*
X108167926Y-87098133D01*
X108140556Y-87110349D01*
X108124118Y-87142624D01*
X108122045Y-87148710D01*
X108114919Y-87194739D01*
X108133976Y-87222687D01*
X108183647Y-87236007D01*
X108237303Y-87238470D01*
X108333858Y-87220210D01*
X108383841Y-87194131D01*
X108445571Y-87132868D01*
X108478310Y-87057670D01*
X108481247Y-86978211D01*
X108453576Y-86904167D01*
X108411953Y-86857769D01*
X108370396Y-86831793D01*
X108305078Y-86798907D01*
X108228962Y-86765557D01*
X108216274Y-86760461D01*
X108132667Y-86723565D01*
X108084470Y-86691046D01*
X108068970Y-86658718D01*
X108083450Y-86622394D01*
X108108308Y-86594000D01*
X108167061Y-86559039D01*
X108231707Y-86556417D01*
X108290992Y-86583358D01*
X108333661Y-86637088D01*
X108339261Y-86650950D01*
X108371867Y-86701936D01*
X108419470Y-86739787D01*
X108479539Y-86770850D01*
X108479539Y-86682768D01*
X108476003Y-86628951D01*
X108460844Y-86586534D01*
X108427232Y-86541279D01*
X108394965Y-86506420D01*
X108344791Y-86457062D01*
X108305807Y-86430547D01*
X108263936Y-86419911D01*
X108216540Y-86418154D01*
X108112667Y-86433528D01*
G36*
X108604071Y-86436662D02*
G01*
X108601089Y-86488068D01*
X108598753Y-86566192D01*
X108597251Y-86664857D01*
X108596769Y-86768343D01*
X108596769Y-87118533D01*
X108658599Y-87180363D01*
X108701207Y-87218462D01*
X108738610Y-87233895D01*
X108789730Y-87232918D01*
X108810022Y-87230433D01*
X108873446Y-87223200D01*
X108925905Y-87219055D01*
X108938692Y-87218672D01*
X108981801Y-87221176D01*
X109043456Y-87227462D01*
X109067362Y-87230433D01*
X109126078Y-87235028D01*
X109165536Y-87225046D01*
X109204662Y-87194228D01*
X109218785Y-87180363D01*
X109280615Y-87118533D01*
X109280615Y-86463503D01*
X109230850Y-86440829D01*
X109187998Y-86424034D01*
X109162927Y-86418154D01*
X109156499Y-86436736D01*
X109150491Y-86488655D01*
X109145303Y-86568172D01*
X109141336Y-86669546D01*
X109139423Y-86755192D01*
X109134077Y-87092231D01*
X109087440Y-87098825D01*
X109045024Y-87094214D01*
X109024240Y-87079287D01*
X109018430Y-87051377D01*
X109013470Y-86991925D01*
X109009754Y-86908466D01*
X109007676Y-86808532D01*
X109007376Y-86757104D01*
X109007077Y-86461054D01*
X108945546Y-86439604D01*
X108901996Y-86425020D01*
X108878306Y-86418219D01*
X108877623Y-86418154D01*
X108875246Y-86436642D01*
X108872634Y-86487906D01*
X108870005Y-86565649D01*
X108867579Y-86663574D01*
X108865885Y-86755192D01*
X108860539Y-87092231D01*
X108743308Y-87092231D01*
X108737928Y-86784746D01*
X108732549Y-86477261D01*
X108675399Y-86447707D01*
X108633203Y-86427413D01*
X108608230Y-86418204D01*
X108607509Y-86418154D01*
X108604071Y-86436662D01*
G37*
X108604071Y-86436662D02*
X108601089Y-86488068D01*
X108598753Y-86566192D01*
X108597251Y-86664857D01*
X108596769Y-86768343D01*
X108596769Y-87118533D01*
X108658599Y-87180363D01*
X108701207Y-87218462D01*
X108738610Y-87233895D01*
X108789730Y-87232918D01*
X108810022Y-87230433D01*
X108873446Y-87223200D01*
X108925905Y-87219055D01*
X108938692Y-87218672D01*
X108981801Y-87221176D01*
X109043456Y-87227462D01*
X109067362Y-87230433D01*
X109126078Y-87235028D01*
X109165536Y-87225046D01*
X109204662Y-87194228D01*
X109218785Y-87180363D01*
X109280615Y-87118533D01*
X109280615Y-86463503D01*
X109230850Y-86440829D01*
X109187998Y-86424034D01*
X109162927Y-86418154D01*
X109156499Y-86436736D01*
X109150491Y-86488655D01*
X109145303Y-86568172D01*
X109141336Y-86669546D01*
X109139423Y-86755192D01*
X109134077Y-87092231D01*
X109087440Y-87098825D01*
X109045024Y-87094214D01*
X109024240Y-87079287D01*
X109018430Y-87051377D01*
X109013470Y-86991925D01*
X109009754Y-86908466D01*
X109007676Y-86808532D01*
X109007376Y-86757104D01*
X109007077Y-86461054D01*
X108945546Y-86439604D01*
X108901996Y-86425020D01*
X108878306Y-86418219D01*
X108877623Y-86418154D01*
X108875246Y-86436642D01*
X108872634Y-86487906D01*
X108870005Y-86565649D01*
X108867579Y-86663574D01*
X108865885Y-86755192D01*
X108860539Y-87092231D01*
X108743308Y-87092231D01*
X108737928Y-86784746D01*
X108732549Y-86477261D01*
X108675399Y-86447707D01*
X108633203Y-86427413D01*
X108608230Y-86418204D01*
X108607509Y-86418154D01*
X108604071Y-86436662D01*
G36*
X109397919Y-86580289D02*
G01*
X109398167Y-86726320D01*
X109399128Y-86838655D01*
X109401206Y-86922678D01*
X109404807Y-86983769D01*
X109410335Y-87027309D01*
X109418196Y-87058679D01*
X109428793Y-87083262D01*
X109436818Y-87097294D01*
X109503272Y-87173388D01*
X109587530Y-87221084D01*
X109680751Y-87238199D01*
X109774100Y-87222546D01*
X109829688Y-87194418D01*
X109888043Y-87145760D01*
X109927814Y-87086333D01*
X109951810Y-87008507D01*
X109962839Y-86904652D01*
X109964401Y-86828462D01*
X109964191Y-86822986D01*
X109827692Y-86822986D01*
X109826859Y-86910355D01*
X109823039Y-86968192D01*
X109814254Y-87006029D01*
X109798526Y-87033398D01*
X109779734Y-87054042D01*
X109716625Y-87093890D01*
X109648863Y-87097295D01*
X109584821Y-87064025D01*
X109579836Y-87059517D01*
X109558561Y-87036067D01*
X109545221Y-87008166D01*
X109537999Y-86966641D01*
X109535077Y-86902316D01*
X109534615Y-86831200D01*
X109535617Y-86741858D01*
X109539762Y-86682258D01*
X109548764Y-86643089D01*
X109564333Y-86615040D01*
X109577098Y-86600144D01*
X109636400Y-86562575D01*
X109704699Y-86558057D01*
X109769890Y-86586753D01*
X109782472Y-86597406D01*
X109803889Y-86621063D01*
X109817256Y-86649251D01*
X109824434Y-86691245D01*
X109827281Y-86756319D01*
X109827692Y-86822986D01*
X109964191Y-86822986D01*
X109959678Y-86705765D01*
X109943638Y-86613577D01*
X109913472Y-86544269D01*
X109866371Y-86490211D01*
X109829688Y-86462505D01*
X109763010Y-86432572D01*
X109685728Y-86418678D01*
X109613890Y-86422397D01*
X109573692Y-86437400D01*
X109557918Y-86441670D01*
X109547450Y-86425750D01*
X109540144Y-86383089D01*
X109534615Y-86318106D01*
X109528563Y-86245732D01*
X109520156Y-86202187D01*
X109504859Y-86177287D01*
X109478136Y-86160845D01*
X109461346Y-86153564D01*
X109397846Y-86126963D01*
X109397919Y-86580289D01*
G37*
X109397919Y-86580289D02*
X109398167Y-86726320D01*
X109399128Y-86838655D01*
X109401206Y-86922678D01*
X109404807Y-86983769D01*
X109410335Y-87027309D01*
X109418196Y-87058679D01*
X109428793Y-87083262D01*
X109436818Y-87097294D01*
X109503272Y-87173388D01*
X109587530Y-87221084D01*
X109680751Y-87238199D01*
X109774100Y-87222546D01*
X109829688Y-87194418D01*
X109888043Y-87145760D01*
X109927814Y-87086333D01*
X109951810Y-87008507D01*
X109962839Y-86904652D01*
X109964401Y-86828462D01*
X109964191Y-86822986D01*
X109827692Y-86822986D01*
X109826859Y-86910355D01*
X109823039Y-86968192D01*
X109814254Y-87006029D01*
X109798526Y-87033398D01*
X109779734Y-87054042D01*
X109716625Y-87093890D01*
X109648863Y-87097295D01*
X109584821Y-87064025D01*
X109579836Y-87059517D01*
X109558561Y-87036067D01*
X109545221Y-87008166D01*
X109537999Y-86966641D01*
X109535077Y-86902316D01*
X109534615Y-86831200D01*
X109535617Y-86741858D01*
X109539762Y-86682258D01*
X109548764Y-86643089D01*
X109564333Y-86615040D01*
X109577098Y-86600144D01*
X109636400Y-86562575D01*
X109704699Y-86558057D01*
X109769890Y-86586753D01*
X109782472Y-86597406D01*
X109803889Y-86621063D01*
X109817256Y-86649251D01*
X109824434Y-86691245D01*
X109827281Y-86756319D01*
X109827692Y-86822986D01*
X109964191Y-86822986D01*
X109959678Y-86705765D01*
X109943638Y-86613577D01*
X109913472Y-86544269D01*
X109866371Y-86490211D01*
X109829688Y-86462505D01*
X109763010Y-86432572D01*
X109685728Y-86418678D01*
X109613890Y-86422397D01*
X109573692Y-86437400D01*
X109557918Y-86441670D01*
X109547450Y-86425750D01*
X109540144Y-86383089D01*
X109534615Y-86318106D01*
X109528563Y-86245732D01*
X109520156Y-86202187D01*
X109504859Y-86177287D01*
X109478136Y-86160845D01*
X109461346Y-86153564D01*
X109397846Y-86126963D01*
X109397919Y-86580289D01*
G36*
X110286638Y-86424670D02*
G01*
X110197883Y-86457421D01*
X110125978Y-86515350D01*
X110097856Y-86556128D01*
X110067198Y-86630954D01*
X110067835Y-86685058D01*
X110100013Y-86721446D01*
X110111919Y-86727633D01*
X110163325Y-86746925D01*
X110189578Y-86741982D01*
X110198470Y-86709587D01*
X110198923Y-86691692D01*
X110215203Y-86625859D01*
X110257635Y-86579807D01*
X110316612Y-86557564D01*
X110382525Y-86563161D01*
X110436105Y-86592229D01*
X110454202Y-86608810D01*
X110467029Y-86628925D01*
X110475694Y-86659332D01*
X110481304Y-86706788D01*
X110484965Y-86778050D01*
X110487785Y-86879875D01*
X110488516Y-86912115D01*
X110491180Y-87022410D01*
X110494208Y-87100036D01*
X110498750Y-87151396D01*
X110505954Y-87182890D01*
X110516967Y-87200920D01*
X110532940Y-87211888D01*
X110543166Y-87216733D01*
X110586594Y-87233301D01*
X110612158Y-87238769D01*
X110620605Y-87220507D01*
X110625761Y-87165296D01*
X110627654Y-87072499D01*
X110626311Y-86941478D01*
X110625893Y-86921269D01*
X110622942Y-86801733D01*
X110619452Y-86714449D01*
X110614486Y-86652591D01*
X110607107Y-86609336D01*
X110596376Y-86577860D01*
X110581355Y-86551339D01*
X110573498Y-86539975D01*
X110528447Y-86489692D01*
X110478060Y-86450581D01*
X110471892Y-86447167D01*
X110381542Y-86420212D01*
X110286638Y-86424670D01*
G37*
X110286638Y-86424670D02*
X110197883Y-86457421D01*
X110125978Y-86515350D01*
X110097856Y-86556128D01*
X110067198Y-86630954D01*
X110067835Y-86685058D01*
X110100013Y-86721446D01*
X110111919Y-86727633D01*
X110163325Y-86746925D01*
X110189578Y-86741982D01*
X110198470Y-86709587D01*
X110198923Y-86691692D01*
X110215203Y-86625859D01*
X110257635Y-86579807D01*
X110316612Y-86557564D01*
X110382525Y-86563161D01*
X110436105Y-86592229D01*
X110454202Y-86608810D01*
X110467029Y-86628925D01*
X110475694Y-86659332D01*
X110481304Y-86706788D01*
X110484965Y-86778050D01*
X110487785Y-86879875D01*
X110488516Y-86912115D01*
X110491180Y-87022410D01*
X110494208Y-87100036D01*
X110498750Y-87151396D01*
X110505954Y-87182890D01*
X110516967Y-87200920D01*
X110532940Y-87211888D01*
X110543166Y-87216733D01*
X110586594Y-87233301D01*
X110612158Y-87238769D01*
X110620605Y-87220507D01*
X110625761Y-87165296D01*
X110627654Y-87072499D01*
X110626311Y-86941478D01*
X110625893Y-86921269D01*
X110622942Y-86801733D01*
X110619452Y-86714449D01*
X110614486Y-86652591D01*
X110607107Y-86609336D01*
X110596376Y-86577860D01*
X110581355Y-86551339D01*
X110573498Y-86539975D01*
X110528447Y-86489692D01*
X110478060Y-86450581D01*
X110471892Y-86447167D01*
X110381542Y-86420212D01*
X110286638Y-86424670D01*
G36*
X110946499Y-86426303D02*
G01*
X110869940Y-86454733D01*
X110869064Y-86455279D01*
X110821715Y-86490127D01*
X110786759Y-86530852D01*
X110762175Y-86583925D01*
X110745938Y-86655814D01*
X110736025Y-86752992D01*
X110730414Y-86881928D01*
X110729923Y-86900298D01*
X110722859Y-87177287D01*
X110782305Y-87208028D01*
X110825319Y-87228802D01*
X110851290Y-87238646D01*
X110852491Y-87238769D01*
X110856986Y-87220606D01*
X110860556Y-87171612D01*
X110862752Y-87100031D01*
X110863231Y-87042068D01*
X110863242Y-86948170D01*
X110867534Y-86889203D01*
X110882497Y-86861079D01*
X110914518Y-86859706D01*
X110969986Y-86880998D01*
X111053731Y-86920136D01*
X111115311Y-86952643D01*
X111146983Y-86980845D01*
X111156294Y-87011582D01*
X111156308Y-87013104D01*
X111140943Y-87066054D01*
X111095453Y-87094660D01*
X111025834Y-87098803D01*
X110975687Y-87098084D01*
X110949246Y-87112527D01*
X110932757Y-87147218D01*
X110923267Y-87191416D01*
X110936943Y-87216493D01*
X110942093Y-87220082D01*
X110990575Y-87234496D01*
X111058469Y-87236537D01*
X111128388Y-87226983D01*
X111177932Y-87209522D01*
X111246430Y-87151364D01*
X111285366Y-87070408D01*
X111293077Y-87007160D01*
X111287193Y-86950111D01*
X111265899Y-86903542D01*
X111223735Y-86862181D01*
X111155241Y-86820755D01*
X111054956Y-86773993D01*
X111048846Y-86771350D01*
X110958510Y-86729617D01*
X110902765Y-86695391D01*
X110878871Y-86664635D01*
X110884087Y-86633311D01*
X110915672Y-86597383D01*
X110925117Y-86589116D01*
X110988383Y-86557058D01*
X111053936Y-86558407D01*
X111111028Y-86589838D01*
X111148907Y-86648024D01*
X111152426Y-86659446D01*
X111186700Y-86714837D01*
X111230191Y-86741518D01*
X111293077Y-86767960D01*
X111293077Y-86699548D01*
X111273948Y-86600110D01*
X111217169Y-86508902D01*
X111187622Y-86478389D01*
X111120458Y-86439228D01*
X111035044Y-86421500D01*
X110946499Y-86426303D01*
G37*
X110946499Y-86426303D02*
X110869940Y-86454733D01*
X110869064Y-86455279D01*
X110821715Y-86490127D01*
X110786759Y-86530852D01*
X110762175Y-86583925D01*
X110745938Y-86655814D01*
X110736025Y-86752992D01*
X110730414Y-86881928D01*
X110729923Y-86900298D01*
X110722859Y-87177287D01*
X110782305Y-87208028D01*
X110825319Y-87228802D01*
X110851290Y-87238646D01*
X110852491Y-87238769D01*
X110856986Y-87220606D01*
X110860556Y-87171612D01*
X110862752Y-87100031D01*
X110863231Y-87042068D01*
X110863242Y-86948170D01*
X110867534Y-86889203D01*
X110882497Y-86861079D01*
X110914518Y-86859706D01*
X110969986Y-86880998D01*
X111053731Y-86920136D01*
X111115311Y-86952643D01*
X111146983Y-86980845D01*
X111156294Y-87011582D01*
X111156308Y-87013104D01*
X111140943Y-87066054D01*
X111095453Y-87094660D01*
X111025834Y-87098803D01*
X110975687Y-87098084D01*
X110949246Y-87112527D01*
X110932757Y-87147218D01*
X110923267Y-87191416D01*
X110936943Y-87216493D01*
X110942093Y-87220082D01*
X110990575Y-87234496D01*
X111058469Y-87236537D01*
X111128388Y-87226983D01*
X111177932Y-87209522D01*
X111246430Y-87151364D01*
X111285366Y-87070408D01*
X111293077Y-87007160D01*
X111287193Y-86950111D01*
X111265899Y-86903542D01*
X111223735Y-86862181D01*
X111155241Y-86820755D01*
X111054956Y-86773993D01*
X111048846Y-86771350D01*
X110958510Y-86729617D01*
X110902765Y-86695391D01*
X110878871Y-86664635D01*
X110884087Y-86633311D01*
X110915672Y-86597383D01*
X110925117Y-86589116D01*
X110988383Y-86557058D01*
X111053936Y-86558407D01*
X111111028Y-86589838D01*
X111148907Y-86648024D01*
X111152426Y-86659446D01*
X111186700Y-86714837D01*
X111230191Y-86741518D01*
X111293077Y-86767960D01*
X111293077Y-86699548D01*
X111273948Y-86600110D01*
X111217169Y-86508902D01*
X111187622Y-86478389D01*
X111120458Y-86439228D01*
X111035044Y-86421500D01*
X110946499Y-86426303D01*
G36*
X111840154Y-86292120D02*
G01*
X111834428Y-86371980D01*
X111827851Y-86419039D01*
X111818738Y-86439566D01*
X111805402Y-86439829D01*
X111801077Y-86437378D01*
X111743556Y-86419636D01*
X111668732Y-86420672D01*
X111592661Y-86438910D01*
X111545082Y-86462505D01*
X111496298Y-86500198D01*
X111460636Y-86542855D01*
X111436155Y-86597057D01*
X111420913Y-86669384D01*
X111412970Y-86766419D01*
X111410384Y-86894742D01*
X111410338Y-86919358D01*
X111410308Y-87195870D01*
X111471839Y-87217320D01*
X111515541Y-87231912D01*
X111539518Y-87238706D01*
X111540223Y-87238769D01*
X111542585Y-87220345D01*
X111544594Y-87169526D01*
X111546099Y-87092993D01*
X111546947Y-86997430D01*
X111547077Y-86939329D01*
X111547349Y-86824771D01*
X111548748Y-86742667D01*
X111552151Y-86686393D01*
X111558433Y-86649326D01*
X111568471Y-86624844D01*
X111583139Y-86606325D01*
X111592298Y-86597406D01*
X111655211Y-86561466D01*
X111723864Y-86558775D01*
X111786152Y-86589170D01*
X111797671Y-86600144D01*
X111814567Y-86620779D01*
X111826286Y-86645256D01*
X111833767Y-86680647D01*
X111837946Y-86734026D01*
X111839763Y-86812466D01*
X111840154Y-86920617D01*
X111840154Y-87195870D01*
X111901685Y-87217320D01*
X111945387Y-87231912D01*
X111969364Y-87238706D01*
X111970070Y-87238769D01*
X111971874Y-87220069D01*
X111973500Y-87167322D01*
X111974883Y-87085557D01*
X111975958Y-86979805D01*
X111976660Y-86855094D01*
X111976923Y-86716455D01*
X111976923Y-86181806D01*
X111849923Y-86128236D01*
X111840154Y-86292120D01*
G37*
X111840154Y-86292120D02*
X111834428Y-86371980D01*
X111827851Y-86419039D01*
X111818738Y-86439566D01*
X111805402Y-86439829D01*
X111801077Y-86437378D01*
X111743556Y-86419636D01*
X111668732Y-86420672D01*
X111592661Y-86438910D01*
X111545082Y-86462505D01*
X111496298Y-86500198D01*
X111460636Y-86542855D01*
X111436155Y-86597057D01*
X111420913Y-86669384D01*
X111412970Y-86766419D01*
X111410384Y-86894742D01*
X111410338Y-86919358D01*
X111410308Y-87195870D01*
X111471839Y-87217320D01*
X111515541Y-87231912D01*
X111539518Y-87238706D01*
X111540223Y-87238769D01*
X111542585Y-87220345D01*
X111544594Y-87169526D01*
X111546099Y-87092993D01*
X111546947Y-86997430D01*
X111547077Y-86939329D01*
X111547349Y-86824771D01*
X111548748Y-86742667D01*
X111552151Y-86686393D01*
X111558433Y-86649326D01*
X111568471Y-86624844D01*
X111583139Y-86606325D01*
X111592298Y-86597406D01*
X111655211Y-86561466D01*
X111723864Y-86558775D01*
X111786152Y-86589170D01*
X111797671Y-86600144D01*
X111814567Y-86620779D01*
X111826286Y-86645256D01*
X111833767Y-86680647D01*
X111837946Y-86734026D01*
X111839763Y-86812466D01*
X111840154Y-86920617D01*
X111840154Y-87195870D01*
X111901685Y-87217320D01*
X111945387Y-87231912D01*
X111969364Y-87238706D01*
X111970070Y-87238769D01*
X111971874Y-87220069D01*
X111973500Y-87167322D01*
X111974883Y-87085557D01*
X111975958Y-86979805D01*
X111976660Y-86855094D01*
X111976923Y-86716455D01*
X111976923Y-86181806D01*
X111849923Y-86128236D01*
X111840154Y-86292120D01*
G36*
X113465746Y-86399745D02*
G01*
X113388714Y-86451567D01*
X113329184Y-86526412D01*
X113293622Y-86621654D01*
X113286429Y-86691756D01*
X113287246Y-86721009D01*
X113294086Y-86743407D01*
X113312888Y-86763474D01*
X113349592Y-86785733D01*
X113410138Y-86814709D01*
X113500466Y-86854927D01*
X113500923Y-86855129D01*
X113584067Y-86893210D01*
X113652247Y-86927025D01*
X113698495Y-86952933D01*
X113715842Y-86967295D01*
X113715846Y-86967411D01*
X113700557Y-86998685D01*
X113664804Y-87033157D01*
X113623758Y-87057990D01*
X113602963Y-87062923D01*
X113546230Y-87045862D01*
X113497373Y-87003133D01*
X113473535Y-86956155D01*
X113450603Y-86921522D01*
X113405682Y-86882081D01*
X113352877Y-86848009D01*
X113306290Y-86829480D01*
X113296548Y-86828462D01*
X113285582Y-86845215D01*
X113284921Y-86888039D01*
X113292980Y-86945781D01*
X113308173Y-87007289D01*
X113328914Y-87061409D01*
X113329962Y-87063510D01*
X113392379Y-87150660D01*
X113473274Y-87209939D01*
X113565144Y-87239034D01*
X113660487Y-87235634D01*
X113751802Y-87197428D01*
X113755862Y-87194741D01*
X113827694Y-87129642D01*
X113874927Y-87044705D01*
X113901066Y-86933021D01*
X113904574Y-86901643D01*
X113910787Y-86753536D01*
X113903339Y-86684468D01*
X113715846Y-86684468D01*
X113713410Y-86727552D01*
X113700086Y-86740126D01*
X113666868Y-86730719D01*
X113614506Y-86708483D01*
X113555976Y-86680610D01*
X113554521Y-86679872D01*
X113504911Y-86653777D01*
X113485000Y-86636363D01*
X113489910Y-86618107D01*
X113510584Y-86594120D01*
X113563181Y-86559406D01*
X113619823Y-86556856D01*
X113670631Y-86582119D01*
X113705724Y-86630847D01*
X113715846Y-86684468D01*
X113903339Y-86684468D01*
X113898008Y-86635036D01*
X113865222Y-86541055D01*
X113819579Y-86475215D01*
X113737198Y-86408681D01*
X113646454Y-86375676D01*
X113553815Y-86373573D01*
X113465746Y-86399745D01*
G37*
X113465746Y-86399745D02*
X113388714Y-86451567D01*
X113329184Y-86526412D01*
X113293622Y-86621654D01*
X113286429Y-86691756D01*
X113287246Y-86721009D01*
X113294086Y-86743407D01*
X113312888Y-86763474D01*
X113349592Y-86785733D01*
X113410138Y-86814709D01*
X113500466Y-86854927D01*
X113500923Y-86855129D01*
X113584067Y-86893210D01*
X113652247Y-86927025D01*
X113698495Y-86952933D01*
X113715842Y-86967295D01*
X113715846Y-86967411D01*
X113700557Y-86998685D01*
X113664804Y-87033157D01*
X113623758Y-87057990D01*
X113602963Y-87062923D01*
X113546230Y-87045862D01*
X113497373Y-87003133D01*
X113473535Y-86956155D01*
X113450603Y-86921522D01*
X113405682Y-86882081D01*
X113352877Y-86848009D01*
X113306290Y-86829480D01*
X113296548Y-86828462D01*
X113285582Y-86845215D01*
X113284921Y-86888039D01*
X113292980Y-86945781D01*
X113308173Y-87007289D01*
X113328914Y-87061409D01*
X113329962Y-87063510D01*
X113392379Y-87150660D01*
X113473274Y-87209939D01*
X113565144Y-87239034D01*
X113660487Y-87235634D01*
X113751802Y-87197428D01*
X113755862Y-87194741D01*
X113827694Y-87129642D01*
X113874927Y-87044705D01*
X113901066Y-86933021D01*
X113904574Y-86901643D01*
X113910787Y-86753536D01*
X113903339Y-86684468D01*
X113715846Y-86684468D01*
X113713410Y-86727552D01*
X113700086Y-86740126D01*
X113666868Y-86730719D01*
X113614506Y-86708483D01*
X113555976Y-86680610D01*
X113554521Y-86679872D01*
X113504911Y-86653777D01*
X113485000Y-86636363D01*
X113489910Y-86618107D01*
X113510584Y-86594120D01*
X113563181Y-86559406D01*
X113619823Y-86556856D01*
X113670631Y-86582119D01*
X113705724Y-86630847D01*
X113715846Y-86684468D01*
X113903339Y-86684468D01*
X113898008Y-86635036D01*
X113865222Y-86541055D01*
X113819579Y-86475215D01*
X113737198Y-86408681D01*
X113646454Y-86375676D01*
X113553815Y-86373573D01*
X113465746Y-86399745D01*
G36*
X114983114Y-86387256D02*
G01*
X114891536Y-86435409D01*
X114823951Y-86512905D01*
X114799943Y-86562727D01*
X114781262Y-86637533D01*
X114771699Y-86732052D01*
X114770792Y-86835210D01*
X114778079Y-86935935D01*
X114793097Y-87023153D01*
X114815385Y-87085791D01*
X114822235Y-87096579D01*
X114903368Y-87177105D01*
X114999734Y-87225336D01*
X115104299Y-87239450D01*
X115210032Y-87217629D01*
X115239457Y-87204547D01*
X115296759Y-87164231D01*
X115347050Y-87110775D01*
X115351803Y-87103995D01*
X115371122Y-87071321D01*
X115383892Y-87036394D01*
X115391436Y-86990414D01*
X115395076Y-86924584D01*
X115396135Y-86830105D01*
X115396154Y-86808923D01*
X115396106Y-86802182D01*
X115200769Y-86802182D01*
X115199632Y-86891349D01*
X115195159Y-86950520D01*
X115185754Y-86988741D01*
X115169824Y-87015053D01*
X115161692Y-87023846D01*
X115114942Y-87057261D01*
X115069553Y-87055737D01*
X115023660Y-87026752D01*
X114996288Y-86995809D01*
X114980077Y-86950643D01*
X114970974Y-86879420D01*
X114970349Y-86871114D01*
X114968796Y-86742037D01*
X114985035Y-86646172D01*
X115018848Y-86584107D01*
X115070016Y-86556432D01*
X115088280Y-86554923D01*
X115136240Y-86562513D01*
X115169047Y-86588808D01*
X115189105Y-86639095D01*
X115198822Y-86718664D01*
X115200769Y-86802182D01*
X115396106Y-86802182D01*
X115395426Y-86708249D01*
X115392371Y-86637906D01*
X115385678Y-86589163D01*
X115374040Y-86553288D01*
X115356147Y-86521548D01*
X115352192Y-86515648D01*
X115285733Y-86436104D01*
X115213315Y-86389929D01*
X115125151Y-86371599D01*
X115095213Y-86370703D01*
X114983114Y-86387256D01*
G37*
X114983114Y-86387256D02*
X114891536Y-86435409D01*
X114823951Y-86512905D01*
X114799943Y-86562727D01*
X114781262Y-86637533D01*
X114771699Y-86732052D01*
X114770792Y-86835210D01*
X114778079Y-86935935D01*
X114793097Y-87023153D01*
X114815385Y-87085791D01*
X114822235Y-87096579D01*
X114903368Y-87177105D01*
X114999734Y-87225336D01*
X115104299Y-87239450D01*
X115210032Y-87217629D01*
X115239457Y-87204547D01*
X115296759Y-87164231D01*
X115347050Y-87110775D01*
X115351803Y-87103995D01*
X115371122Y-87071321D01*
X115383892Y-87036394D01*
X115391436Y-86990414D01*
X115395076Y-86924584D01*
X115396135Y-86830105D01*
X115396154Y-86808923D01*
X115396106Y-86802182D01*
X115200769Y-86802182D01*
X115199632Y-86891349D01*
X115195159Y-86950520D01*
X115185754Y-86988741D01*
X115169824Y-87015053D01*
X115161692Y-87023846D01*
X115114942Y-87057261D01*
X115069553Y-87055737D01*
X115023660Y-87026752D01*
X114996288Y-86995809D01*
X114980077Y-86950643D01*
X114970974Y-86879420D01*
X114970349Y-86871114D01*
X114968796Y-86742037D01*
X114985035Y-86646172D01*
X115018848Y-86584107D01*
X115070016Y-86556432D01*
X115088280Y-86554923D01*
X115136240Y-86562513D01*
X115169047Y-86588808D01*
X115189105Y-86639095D01*
X115198822Y-86718664D01*
X115200769Y-86802182D01*
X115396106Y-86802182D01*
X115395426Y-86708249D01*
X115392371Y-86637906D01*
X115385678Y-86589163D01*
X115374040Y-86553288D01*
X115356147Y-86521548D01*
X115352192Y-86515648D01*
X115285733Y-86436104D01*
X115213315Y-86389929D01*
X115125151Y-86371599D01*
X115095213Y-86370703D01*
X114983114Y-86387256D01*
G36*
X112728336Y-86395089D02*
G01*
X112665633Y-86431358D01*
X112622039Y-86467358D01*
X112590155Y-86505075D01*
X112568190Y-86551199D01*
X112554351Y-86612421D01*
X112546847Y-86695431D01*
X112543883Y-86806919D01*
X112543539Y-86887062D01*
X112543539Y-87182065D01*
X112709615Y-87256515D01*
X112719385Y-86933402D01*
X112723421Y-86812729D01*
X112727656Y-86725141D01*
X112732903Y-86664650D01*
X112739975Y-86625268D01*
X112749689Y-86601007D01*
X112762856Y-86585880D01*
X112767081Y-86582606D01*
X112831091Y-86557034D01*
X112895792Y-86567153D01*
X112934308Y-86594000D01*
X112949975Y-86613024D01*
X112960820Y-86637988D01*
X112967712Y-86675834D01*
X112971521Y-86733502D01*
X112973117Y-86817935D01*
X112973385Y-86905928D01*
X112973437Y-87016323D01*
X112975328Y-87094463D01*
X112981655Y-87147165D01*
X112995017Y-87181242D01*
X113018015Y-87203511D01*
X113053246Y-87220787D01*
X113100303Y-87238738D01*
X113151697Y-87258278D01*
X113145579Y-86911485D01*
X113143116Y-86786468D01*
X113140233Y-86694082D01*
X113136102Y-86627881D01*
X113129893Y-86581420D01*
X113120774Y-86548256D01*
X113107917Y-86521944D01*
X113092416Y-86498729D01*
X113017629Y-86424569D01*
X112926372Y-86381684D01*
X112827117Y-86371412D01*
X112728336Y-86395089D01*
G37*
X112728336Y-86395089D02*
X112665633Y-86431358D01*
X112622039Y-86467358D01*
X112590155Y-86505075D01*
X112568190Y-86551199D01*
X112554351Y-86612421D01*
X112546847Y-86695431D01*
X112543883Y-86806919D01*
X112543539Y-86887062D01*
X112543539Y-87182065D01*
X112709615Y-87256515D01*
X112719385Y-86933402D01*
X112723421Y-86812729D01*
X112727656Y-86725141D01*
X112732903Y-86664650D01*
X112739975Y-86625268D01*
X112749689Y-86601007D01*
X112762856Y-86585880D01*
X112767081Y-86582606D01*
X112831091Y-86557034D01*
X112895792Y-86567153D01*
X112934308Y-86594000D01*
X112949975Y-86613024D01*
X112960820Y-86637988D01*
X112967712Y-86675834D01*
X112971521Y-86733502D01*
X112973117Y-86817935D01*
X112973385Y-86905928D01*
X112973437Y-87016323D01*
X112975328Y-87094463D01*
X112981655Y-87147165D01*
X112995017Y-87181242D01*
X113018015Y-87203511D01*
X113053246Y-87220787D01*
X113100303Y-87238738D01*
X113151697Y-87258278D01*
X113145579Y-86911485D01*
X113143116Y-86786468D01*
X113140233Y-86694082D01*
X113136102Y-86627881D01*
X113129893Y-86581420D01*
X113120774Y-86548256D01*
X113107917Y-86521944D01*
X113092416Y-86498729D01*
X113017629Y-86424569D01*
X112926372Y-86381684D01*
X112827117Y-86371412D01*
X112728336Y-86395089D01*
G36*
X114231114Y-86384505D02*
G01*
X114156461Y-86421727D01*
X114090569Y-86490261D01*
X114072423Y-86515648D01*
X114052655Y-86548866D01*
X114039828Y-86584945D01*
X114032490Y-86633098D01*
X114029187Y-86702536D01*
X114028462Y-86794206D01*
X114031737Y-86919830D01*
X114043123Y-87014154D01*
X114064959Y-87084523D01*
X114099581Y-87138286D01*
X114149330Y-87182788D01*
X114152986Y-87185423D01*
X114202015Y-87212377D01*
X114261055Y-87225712D01*
X114336141Y-87229000D01*
X114458205Y-87229000D01*
X114458256Y-87347497D01*
X114459392Y-87413492D01*
X114466314Y-87452202D01*
X114484402Y-87475419D01*
X114519038Y-87494933D01*
X114527355Y-87498920D01*
X114566280Y-87517603D01*
X114596417Y-87529403D01*
X114618826Y-87530422D01*
X114634567Y-87516761D01*
X114644698Y-87484522D01*
X114650277Y-87429804D01*
X114652365Y-87348711D01*
X114652019Y-87237344D01*
X114650300Y-87091802D01*
X114649763Y-87048269D01*
X114647828Y-86898205D01*
X114646096Y-86800042D01*
X114458308Y-86800042D01*
X114457252Y-86883364D01*
X114452562Y-86937880D01*
X114441949Y-86973837D01*
X114423128Y-87001482D01*
X114410350Y-87014965D01*
X114358110Y-87054417D01*
X114311858Y-87057628D01*
X114264133Y-87025049D01*
X114262923Y-87023846D01*
X114243506Y-86998668D01*
X114231693Y-86964447D01*
X114225735Y-86911748D01*
X114223880Y-86831131D01*
X114223846Y-86813271D01*
X114228330Y-86702175D01*
X114242926Y-86625161D01*
X114269350Y-86578147D01*
X114309317Y-86557050D01*
X114332416Y-86554923D01*
X114387238Y-86564900D01*
X114424842Y-86597752D01*
X114447477Y-86657857D01*
X114457394Y-86749598D01*
X114458308Y-86800042D01*
X114646096Y-86800042D01*
X114645778Y-86782060D01*
X114643127Y-86694679D01*
X114639394Y-86630905D01*
X114634093Y-86585582D01*
X114626742Y-86553555D01*
X114616857Y-86529668D01*
X114603954Y-86508764D01*
X114598421Y-86500898D01*
X114525031Y-86426595D01*
X114432240Y-86384467D01*
X114324904Y-86372722D01*
X114231114Y-86384505D01*
G37*
X114231114Y-86384505D02*
X114156461Y-86421727D01*
X114090569Y-86490261D01*
X114072423Y-86515648D01*
X114052655Y-86548866D01*
X114039828Y-86584945D01*
X114032490Y-86633098D01*
X114029187Y-86702536D01*
X114028462Y-86794206D01*
X114031737Y-86919830D01*
X114043123Y-87014154D01*
X114064959Y-87084523D01*
X114099581Y-87138286D01*
X114149330Y-87182788D01*
X114152986Y-87185423D01*
X114202015Y-87212377D01*
X114261055Y-87225712D01*
X114336141Y-87229000D01*
X114458205Y-87229000D01*
X114458256Y-87347497D01*
X114459392Y-87413492D01*
X114466314Y-87452202D01*
X114484402Y-87475419D01*
X114519038Y-87494933D01*
X114527355Y-87498920D01*
X114566280Y-87517603D01*
X114596417Y-87529403D01*
X114618826Y-87530422D01*
X114634567Y-87516761D01*
X114644698Y-87484522D01*
X114650277Y-87429804D01*
X114652365Y-87348711D01*
X114652019Y-87237344D01*
X114650300Y-87091802D01*
X114649763Y-87048269D01*
X114647828Y-86898205D01*
X114646096Y-86800042D01*
X114458308Y-86800042D01*
X114457252Y-86883364D01*
X114452562Y-86937880D01*
X114441949Y-86973837D01*
X114423128Y-87001482D01*
X114410350Y-87014965D01*
X114358110Y-87054417D01*
X114311858Y-87057628D01*
X114264133Y-87025049D01*
X114262923Y-87023846D01*
X114243506Y-86998668D01*
X114231693Y-86964447D01*
X114225735Y-86911748D01*
X114223880Y-86831131D01*
X114223846Y-86813271D01*
X114228330Y-86702175D01*
X114242926Y-86625161D01*
X114269350Y-86578147D01*
X114309317Y-86557050D01*
X114332416Y-86554923D01*
X114387238Y-86564900D01*
X114424842Y-86597752D01*
X114447477Y-86657857D01*
X114457394Y-86749598D01*
X114458308Y-86800042D01*
X114646096Y-86800042D01*
X114645778Y-86782060D01*
X114643127Y-86694679D01*
X114639394Y-86630905D01*
X114634093Y-86585582D01*
X114626742Y-86553555D01*
X114616857Y-86529668D01*
X114603954Y-86508764D01*
X114598421Y-86500898D01*
X114525031Y-86426595D01*
X114432240Y-86384467D01*
X114324904Y-86372722D01*
X114231114Y-86384505D01*
M02*
