%TF.GenerationSoftware,KiCad,Pcbnew,5.1.5*%
%TF.CreationDate,2020-05-13T22:00:42+02:00*%
%TF.ProjectId,thinkpad-keyboard,7468696e-6b70-4616-942d-6b6579626f61,rev?*%
%TF.SameCoordinates,Original*%
%TF.FileFunction,Soldermask,Top*%
%TF.FilePolarity,Negative*%
%FSLAX46Y46*%
G04 Gerber Fmt 4.6, Leading zero omitted, Abs format (unit mm)*
G04 Created by KiCad (PCBNEW 5.1.5) date 2020-05-13 22:00:42*
%MOMM*%
%LPD*%
G04 APERTURE LIST*
%ADD10C,0.050000*%
G04 APERTURE END LIST*
D10*
G36*
X150113512Y-106443927D02*
G01*
X150262812Y-106473624D01*
X150426784Y-106541544D01*
X150574354Y-106640147D01*
X150699853Y-106765646D01*
X150798456Y-106913216D01*
X150866376Y-107077188D01*
X150901000Y-107251259D01*
X150901000Y-107428741D01*
X150866376Y-107602812D01*
X150798456Y-107766784D01*
X150699853Y-107914354D01*
X150574354Y-108039853D01*
X150426784Y-108138456D01*
X150262812Y-108206376D01*
X150113512Y-108236073D01*
X150088742Y-108241000D01*
X149911258Y-108241000D01*
X149886488Y-108236073D01*
X149737188Y-108206376D01*
X149573216Y-108138456D01*
X149425646Y-108039853D01*
X149300147Y-107914354D01*
X149201544Y-107766784D01*
X149133624Y-107602812D01*
X149099000Y-107428741D01*
X149099000Y-107251259D01*
X149133624Y-107077188D01*
X149201544Y-106913216D01*
X149300147Y-106765646D01*
X149425646Y-106640147D01*
X149573216Y-106541544D01*
X149737188Y-106473624D01*
X149886488Y-106443927D01*
X149911258Y-106439000D01*
X150088742Y-106439000D01*
X150113512Y-106443927D01*
G37*
G36*
X124713512Y-106443927D02*
G01*
X124862812Y-106473624D01*
X125026784Y-106541544D01*
X125174354Y-106640147D01*
X125299853Y-106765646D01*
X125398456Y-106913216D01*
X125466376Y-107077188D01*
X125501000Y-107251259D01*
X125501000Y-107428741D01*
X125466376Y-107602812D01*
X125398456Y-107766784D01*
X125299853Y-107914354D01*
X125174354Y-108039853D01*
X125026784Y-108138456D01*
X124862812Y-108206376D01*
X124713512Y-108236073D01*
X124688742Y-108241000D01*
X124511258Y-108241000D01*
X124486488Y-108236073D01*
X124337188Y-108206376D01*
X124173216Y-108138456D01*
X124025646Y-108039853D01*
X123900147Y-107914354D01*
X123801544Y-107766784D01*
X123733624Y-107602812D01*
X123699000Y-107428741D01*
X123699000Y-107251259D01*
X123733624Y-107077188D01*
X123801544Y-106913216D01*
X123900147Y-106765646D01*
X124025646Y-106640147D01*
X124173216Y-106541544D01*
X124337188Y-106473624D01*
X124486488Y-106443927D01*
X124511258Y-106439000D01*
X124688742Y-106439000D01*
X124713512Y-106443927D01*
G37*
G36*
X106933512Y-106443927D02*
G01*
X107082812Y-106473624D01*
X107246784Y-106541544D01*
X107394354Y-106640147D01*
X107519853Y-106765646D01*
X107618456Y-106913216D01*
X107686376Y-107077188D01*
X107721000Y-107251259D01*
X107721000Y-107428741D01*
X107686376Y-107602812D01*
X107618456Y-107766784D01*
X107519853Y-107914354D01*
X107394354Y-108039853D01*
X107246784Y-108138456D01*
X107082812Y-108206376D01*
X106933512Y-108236073D01*
X106908742Y-108241000D01*
X106731258Y-108241000D01*
X106706488Y-108236073D01*
X106557188Y-108206376D01*
X106393216Y-108138456D01*
X106245646Y-108039853D01*
X106120147Y-107914354D01*
X106021544Y-107766784D01*
X105953624Y-107602812D01*
X105919000Y-107428741D01*
X105919000Y-107251259D01*
X105953624Y-107077188D01*
X106021544Y-106913216D01*
X106120147Y-106765646D01*
X106245646Y-106640147D01*
X106393216Y-106541544D01*
X106557188Y-106473624D01*
X106706488Y-106443927D01*
X106731258Y-106439000D01*
X106908742Y-106439000D01*
X106933512Y-106443927D01*
G37*
G36*
X104393512Y-106443927D02*
G01*
X104542812Y-106473624D01*
X104706784Y-106541544D01*
X104854354Y-106640147D01*
X104979853Y-106765646D01*
X105078456Y-106913216D01*
X105146376Y-107077188D01*
X105181000Y-107251259D01*
X105181000Y-107428741D01*
X105146376Y-107602812D01*
X105078456Y-107766784D01*
X104979853Y-107914354D01*
X104854354Y-108039853D01*
X104706784Y-108138456D01*
X104542812Y-108206376D01*
X104393512Y-108236073D01*
X104368742Y-108241000D01*
X104191258Y-108241000D01*
X104166488Y-108236073D01*
X104017188Y-108206376D01*
X103853216Y-108138456D01*
X103705646Y-108039853D01*
X103580147Y-107914354D01*
X103481544Y-107766784D01*
X103413624Y-107602812D01*
X103379000Y-107428741D01*
X103379000Y-107251259D01*
X103413624Y-107077188D01*
X103481544Y-106913216D01*
X103580147Y-106765646D01*
X103705646Y-106640147D01*
X103853216Y-106541544D01*
X104017188Y-106473624D01*
X104166488Y-106443927D01*
X104191258Y-106439000D01*
X104368742Y-106439000D01*
X104393512Y-106443927D01*
G37*
G36*
X101853512Y-106443927D02*
G01*
X102002812Y-106473624D01*
X102166784Y-106541544D01*
X102314354Y-106640147D01*
X102439853Y-106765646D01*
X102538456Y-106913216D01*
X102606376Y-107077188D01*
X102641000Y-107251259D01*
X102641000Y-107428741D01*
X102606376Y-107602812D01*
X102538456Y-107766784D01*
X102439853Y-107914354D01*
X102314354Y-108039853D01*
X102166784Y-108138456D01*
X102002812Y-108206376D01*
X101853512Y-108236073D01*
X101828742Y-108241000D01*
X101651258Y-108241000D01*
X101626488Y-108236073D01*
X101477188Y-108206376D01*
X101313216Y-108138456D01*
X101165646Y-108039853D01*
X101040147Y-107914354D01*
X100941544Y-107766784D01*
X100873624Y-107602812D01*
X100839000Y-107428741D01*
X100839000Y-107251259D01*
X100873624Y-107077188D01*
X100941544Y-106913216D01*
X101040147Y-106765646D01*
X101165646Y-106640147D01*
X101313216Y-106541544D01*
X101477188Y-106473624D01*
X101626488Y-106443927D01*
X101651258Y-106439000D01*
X101828742Y-106439000D01*
X101853512Y-106443927D01*
G37*
G36*
X109473512Y-106443927D02*
G01*
X109622812Y-106473624D01*
X109786784Y-106541544D01*
X109934354Y-106640147D01*
X110059853Y-106765646D01*
X110158456Y-106913216D01*
X110226376Y-107077188D01*
X110261000Y-107251259D01*
X110261000Y-107428741D01*
X110226376Y-107602812D01*
X110158456Y-107766784D01*
X110059853Y-107914354D01*
X109934354Y-108039853D01*
X109786784Y-108138456D01*
X109622812Y-108206376D01*
X109473512Y-108236073D01*
X109448742Y-108241000D01*
X109271258Y-108241000D01*
X109246488Y-108236073D01*
X109097188Y-108206376D01*
X108933216Y-108138456D01*
X108785646Y-108039853D01*
X108660147Y-107914354D01*
X108561544Y-107766784D01*
X108493624Y-107602812D01*
X108459000Y-107428741D01*
X108459000Y-107251259D01*
X108493624Y-107077188D01*
X108561544Y-106913216D01*
X108660147Y-106765646D01*
X108785646Y-106640147D01*
X108933216Y-106541544D01*
X109097188Y-106473624D01*
X109246488Y-106443927D01*
X109271258Y-106439000D01*
X109448742Y-106439000D01*
X109473512Y-106443927D01*
G37*
G36*
X112013512Y-106443927D02*
G01*
X112162812Y-106473624D01*
X112326784Y-106541544D01*
X112474354Y-106640147D01*
X112599853Y-106765646D01*
X112698456Y-106913216D01*
X112766376Y-107077188D01*
X112801000Y-107251259D01*
X112801000Y-107428741D01*
X112766376Y-107602812D01*
X112698456Y-107766784D01*
X112599853Y-107914354D01*
X112474354Y-108039853D01*
X112326784Y-108138456D01*
X112162812Y-108206376D01*
X112013512Y-108236073D01*
X111988742Y-108241000D01*
X111811258Y-108241000D01*
X111786488Y-108236073D01*
X111637188Y-108206376D01*
X111473216Y-108138456D01*
X111325646Y-108039853D01*
X111200147Y-107914354D01*
X111101544Y-107766784D01*
X111033624Y-107602812D01*
X110999000Y-107428741D01*
X110999000Y-107251259D01*
X111033624Y-107077188D01*
X111101544Y-106913216D01*
X111200147Y-106765646D01*
X111325646Y-106640147D01*
X111473216Y-106541544D01*
X111637188Y-106473624D01*
X111786488Y-106443927D01*
X111811258Y-106439000D01*
X111988742Y-106439000D01*
X112013512Y-106443927D01*
G37*
G36*
X114553512Y-106443927D02*
G01*
X114702812Y-106473624D01*
X114866784Y-106541544D01*
X115014354Y-106640147D01*
X115139853Y-106765646D01*
X115238456Y-106913216D01*
X115306376Y-107077188D01*
X115341000Y-107251259D01*
X115341000Y-107428741D01*
X115306376Y-107602812D01*
X115238456Y-107766784D01*
X115139853Y-107914354D01*
X115014354Y-108039853D01*
X114866784Y-108138456D01*
X114702812Y-108206376D01*
X114553512Y-108236073D01*
X114528742Y-108241000D01*
X114351258Y-108241000D01*
X114326488Y-108236073D01*
X114177188Y-108206376D01*
X114013216Y-108138456D01*
X113865646Y-108039853D01*
X113740147Y-107914354D01*
X113641544Y-107766784D01*
X113573624Y-107602812D01*
X113539000Y-107428741D01*
X113539000Y-107251259D01*
X113573624Y-107077188D01*
X113641544Y-106913216D01*
X113740147Y-106765646D01*
X113865646Y-106640147D01*
X114013216Y-106541544D01*
X114177188Y-106473624D01*
X114326488Y-106443927D01*
X114351258Y-106439000D01*
X114528742Y-106439000D01*
X114553512Y-106443927D01*
G37*
G36*
X117093512Y-106443927D02*
G01*
X117242812Y-106473624D01*
X117406784Y-106541544D01*
X117554354Y-106640147D01*
X117679853Y-106765646D01*
X117778456Y-106913216D01*
X117846376Y-107077188D01*
X117881000Y-107251259D01*
X117881000Y-107428741D01*
X117846376Y-107602812D01*
X117778456Y-107766784D01*
X117679853Y-107914354D01*
X117554354Y-108039853D01*
X117406784Y-108138456D01*
X117242812Y-108206376D01*
X117093512Y-108236073D01*
X117068742Y-108241000D01*
X116891258Y-108241000D01*
X116866488Y-108236073D01*
X116717188Y-108206376D01*
X116553216Y-108138456D01*
X116405646Y-108039853D01*
X116280147Y-107914354D01*
X116181544Y-107766784D01*
X116113624Y-107602812D01*
X116079000Y-107428741D01*
X116079000Y-107251259D01*
X116113624Y-107077188D01*
X116181544Y-106913216D01*
X116280147Y-106765646D01*
X116405646Y-106640147D01*
X116553216Y-106541544D01*
X116717188Y-106473624D01*
X116866488Y-106443927D01*
X116891258Y-106439000D01*
X117068742Y-106439000D01*
X117093512Y-106443927D01*
G37*
G36*
X119633512Y-106443927D02*
G01*
X119782812Y-106473624D01*
X119946784Y-106541544D01*
X120094354Y-106640147D01*
X120219853Y-106765646D01*
X120318456Y-106913216D01*
X120386376Y-107077188D01*
X120421000Y-107251259D01*
X120421000Y-107428741D01*
X120386376Y-107602812D01*
X120318456Y-107766784D01*
X120219853Y-107914354D01*
X120094354Y-108039853D01*
X119946784Y-108138456D01*
X119782812Y-108206376D01*
X119633512Y-108236073D01*
X119608742Y-108241000D01*
X119431258Y-108241000D01*
X119406488Y-108236073D01*
X119257188Y-108206376D01*
X119093216Y-108138456D01*
X118945646Y-108039853D01*
X118820147Y-107914354D01*
X118721544Y-107766784D01*
X118653624Y-107602812D01*
X118619000Y-107428741D01*
X118619000Y-107251259D01*
X118653624Y-107077188D01*
X118721544Y-106913216D01*
X118820147Y-106765646D01*
X118945646Y-106640147D01*
X119093216Y-106541544D01*
X119257188Y-106473624D01*
X119406488Y-106443927D01*
X119431258Y-106439000D01*
X119608742Y-106439000D01*
X119633512Y-106443927D01*
G37*
G36*
X122173512Y-106443927D02*
G01*
X122322812Y-106473624D01*
X122486784Y-106541544D01*
X122634354Y-106640147D01*
X122759853Y-106765646D01*
X122858456Y-106913216D01*
X122926376Y-107077188D01*
X122961000Y-107251259D01*
X122961000Y-107428741D01*
X122926376Y-107602812D01*
X122858456Y-107766784D01*
X122759853Y-107914354D01*
X122634354Y-108039853D01*
X122486784Y-108138456D01*
X122322812Y-108206376D01*
X122173512Y-108236073D01*
X122148742Y-108241000D01*
X121971258Y-108241000D01*
X121946488Y-108236073D01*
X121797188Y-108206376D01*
X121633216Y-108138456D01*
X121485646Y-108039853D01*
X121360147Y-107914354D01*
X121261544Y-107766784D01*
X121193624Y-107602812D01*
X121159000Y-107428741D01*
X121159000Y-107251259D01*
X121193624Y-107077188D01*
X121261544Y-106913216D01*
X121360147Y-106765646D01*
X121485646Y-106640147D01*
X121633216Y-106541544D01*
X121797188Y-106473624D01*
X121946488Y-106443927D01*
X121971258Y-106439000D01*
X122148742Y-106439000D01*
X122173512Y-106443927D01*
G37*
G36*
X129793512Y-106443927D02*
G01*
X129942812Y-106473624D01*
X130106784Y-106541544D01*
X130254354Y-106640147D01*
X130379853Y-106765646D01*
X130478456Y-106913216D01*
X130546376Y-107077188D01*
X130581000Y-107251259D01*
X130581000Y-107428741D01*
X130546376Y-107602812D01*
X130478456Y-107766784D01*
X130379853Y-107914354D01*
X130254354Y-108039853D01*
X130106784Y-108138456D01*
X129942812Y-108206376D01*
X129793512Y-108236073D01*
X129768742Y-108241000D01*
X129591258Y-108241000D01*
X129566488Y-108236073D01*
X129417188Y-108206376D01*
X129253216Y-108138456D01*
X129105646Y-108039853D01*
X128980147Y-107914354D01*
X128881544Y-107766784D01*
X128813624Y-107602812D01*
X128779000Y-107428741D01*
X128779000Y-107251259D01*
X128813624Y-107077188D01*
X128881544Y-106913216D01*
X128980147Y-106765646D01*
X129105646Y-106640147D01*
X129253216Y-106541544D01*
X129417188Y-106473624D01*
X129566488Y-106443927D01*
X129591258Y-106439000D01*
X129768742Y-106439000D01*
X129793512Y-106443927D01*
G37*
G36*
X132333512Y-106443927D02*
G01*
X132482812Y-106473624D01*
X132646784Y-106541544D01*
X132794354Y-106640147D01*
X132919853Y-106765646D01*
X133018456Y-106913216D01*
X133086376Y-107077188D01*
X133121000Y-107251259D01*
X133121000Y-107428741D01*
X133086376Y-107602812D01*
X133018456Y-107766784D01*
X132919853Y-107914354D01*
X132794354Y-108039853D01*
X132646784Y-108138456D01*
X132482812Y-108206376D01*
X132333512Y-108236073D01*
X132308742Y-108241000D01*
X132131258Y-108241000D01*
X132106488Y-108236073D01*
X131957188Y-108206376D01*
X131793216Y-108138456D01*
X131645646Y-108039853D01*
X131520147Y-107914354D01*
X131421544Y-107766784D01*
X131353624Y-107602812D01*
X131319000Y-107428741D01*
X131319000Y-107251259D01*
X131353624Y-107077188D01*
X131421544Y-106913216D01*
X131520147Y-106765646D01*
X131645646Y-106640147D01*
X131793216Y-106541544D01*
X131957188Y-106473624D01*
X132106488Y-106443927D01*
X132131258Y-106439000D01*
X132308742Y-106439000D01*
X132333512Y-106443927D01*
G37*
G36*
X134873512Y-106443927D02*
G01*
X135022812Y-106473624D01*
X135186784Y-106541544D01*
X135334354Y-106640147D01*
X135459853Y-106765646D01*
X135558456Y-106913216D01*
X135626376Y-107077188D01*
X135661000Y-107251259D01*
X135661000Y-107428741D01*
X135626376Y-107602812D01*
X135558456Y-107766784D01*
X135459853Y-107914354D01*
X135334354Y-108039853D01*
X135186784Y-108138456D01*
X135022812Y-108206376D01*
X134873512Y-108236073D01*
X134848742Y-108241000D01*
X134671258Y-108241000D01*
X134646488Y-108236073D01*
X134497188Y-108206376D01*
X134333216Y-108138456D01*
X134185646Y-108039853D01*
X134060147Y-107914354D01*
X133961544Y-107766784D01*
X133893624Y-107602812D01*
X133859000Y-107428741D01*
X133859000Y-107251259D01*
X133893624Y-107077188D01*
X133961544Y-106913216D01*
X134060147Y-106765646D01*
X134185646Y-106640147D01*
X134333216Y-106541544D01*
X134497188Y-106473624D01*
X134646488Y-106443927D01*
X134671258Y-106439000D01*
X134848742Y-106439000D01*
X134873512Y-106443927D01*
G37*
G36*
X137413512Y-106443927D02*
G01*
X137562812Y-106473624D01*
X137726784Y-106541544D01*
X137874354Y-106640147D01*
X137999853Y-106765646D01*
X138098456Y-106913216D01*
X138166376Y-107077188D01*
X138201000Y-107251259D01*
X138201000Y-107428741D01*
X138166376Y-107602812D01*
X138098456Y-107766784D01*
X137999853Y-107914354D01*
X137874354Y-108039853D01*
X137726784Y-108138456D01*
X137562812Y-108206376D01*
X137413512Y-108236073D01*
X137388742Y-108241000D01*
X137211258Y-108241000D01*
X137186488Y-108236073D01*
X137037188Y-108206376D01*
X136873216Y-108138456D01*
X136725646Y-108039853D01*
X136600147Y-107914354D01*
X136501544Y-107766784D01*
X136433624Y-107602812D01*
X136399000Y-107428741D01*
X136399000Y-107251259D01*
X136433624Y-107077188D01*
X136501544Y-106913216D01*
X136600147Y-106765646D01*
X136725646Y-106640147D01*
X136873216Y-106541544D01*
X137037188Y-106473624D01*
X137186488Y-106443927D01*
X137211258Y-106439000D01*
X137388742Y-106439000D01*
X137413512Y-106443927D01*
G37*
G36*
X139953512Y-106443927D02*
G01*
X140102812Y-106473624D01*
X140266784Y-106541544D01*
X140414354Y-106640147D01*
X140539853Y-106765646D01*
X140638456Y-106913216D01*
X140706376Y-107077188D01*
X140741000Y-107251259D01*
X140741000Y-107428741D01*
X140706376Y-107602812D01*
X140638456Y-107766784D01*
X140539853Y-107914354D01*
X140414354Y-108039853D01*
X140266784Y-108138456D01*
X140102812Y-108206376D01*
X139953512Y-108236073D01*
X139928742Y-108241000D01*
X139751258Y-108241000D01*
X139726488Y-108236073D01*
X139577188Y-108206376D01*
X139413216Y-108138456D01*
X139265646Y-108039853D01*
X139140147Y-107914354D01*
X139041544Y-107766784D01*
X138973624Y-107602812D01*
X138939000Y-107428741D01*
X138939000Y-107251259D01*
X138973624Y-107077188D01*
X139041544Y-106913216D01*
X139140147Y-106765646D01*
X139265646Y-106640147D01*
X139413216Y-106541544D01*
X139577188Y-106473624D01*
X139726488Y-106443927D01*
X139751258Y-106439000D01*
X139928742Y-106439000D01*
X139953512Y-106443927D01*
G37*
G36*
X142493512Y-106443927D02*
G01*
X142642812Y-106473624D01*
X142806784Y-106541544D01*
X142954354Y-106640147D01*
X143079853Y-106765646D01*
X143178456Y-106913216D01*
X143246376Y-107077188D01*
X143281000Y-107251259D01*
X143281000Y-107428741D01*
X143246376Y-107602812D01*
X143178456Y-107766784D01*
X143079853Y-107914354D01*
X142954354Y-108039853D01*
X142806784Y-108138456D01*
X142642812Y-108206376D01*
X142493512Y-108236073D01*
X142468742Y-108241000D01*
X142291258Y-108241000D01*
X142266488Y-108236073D01*
X142117188Y-108206376D01*
X141953216Y-108138456D01*
X141805646Y-108039853D01*
X141680147Y-107914354D01*
X141581544Y-107766784D01*
X141513624Y-107602812D01*
X141479000Y-107428741D01*
X141479000Y-107251259D01*
X141513624Y-107077188D01*
X141581544Y-106913216D01*
X141680147Y-106765646D01*
X141805646Y-106640147D01*
X141953216Y-106541544D01*
X142117188Y-106473624D01*
X142266488Y-106443927D01*
X142291258Y-106439000D01*
X142468742Y-106439000D01*
X142493512Y-106443927D01*
G37*
G36*
X145033512Y-106443927D02*
G01*
X145182812Y-106473624D01*
X145346784Y-106541544D01*
X145494354Y-106640147D01*
X145619853Y-106765646D01*
X145718456Y-106913216D01*
X145786376Y-107077188D01*
X145821000Y-107251259D01*
X145821000Y-107428741D01*
X145786376Y-107602812D01*
X145718456Y-107766784D01*
X145619853Y-107914354D01*
X145494354Y-108039853D01*
X145346784Y-108138456D01*
X145182812Y-108206376D01*
X145033512Y-108236073D01*
X145008742Y-108241000D01*
X144831258Y-108241000D01*
X144806488Y-108236073D01*
X144657188Y-108206376D01*
X144493216Y-108138456D01*
X144345646Y-108039853D01*
X144220147Y-107914354D01*
X144121544Y-107766784D01*
X144053624Y-107602812D01*
X144019000Y-107428741D01*
X144019000Y-107251259D01*
X144053624Y-107077188D01*
X144121544Y-106913216D01*
X144220147Y-106765646D01*
X144345646Y-106640147D01*
X144493216Y-106541544D01*
X144657188Y-106473624D01*
X144806488Y-106443927D01*
X144831258Y-106439000D01*
X145008742Y-106439000D01*
X145033512Y-106443927D01*
G37*
G36*
X147573512Y-106443927D02*
G01*
X147722812Y-106473624D01*
X147886784Y-106541544D01*
X148034354Y-106640147D01*
X148159853Y-106765646D01*
X148258456Y-106913216D01*
X148326376Y-107077188D01*
X148361000Y-107251259D01*
X148361000Y-107428741D01*
X148326376Y-107602812D01*
X148258456Y-107766784D01*
X148159853Y-107914354D01*
X148034354Y-108039853D01*
X147886784Y-108138456D01*
X147722812Y-108206376D01*
X147573512Y-108236073D01*
X147548742Y-108241000D01*
X147371258Y-108241000D01*
X147346488Y-108236073D01*
X147197188Y-108206376D01*
X147033216Y-108138456D01*
X146885646Y-108039853D01*
X146760147Y-107914354D01*
X146661544Y-107766784D01*
X146593624Y-107602812D01*
X146559000Y-107428741D01*
X146559000Y-107251259D01*
X146593624Y-107077188D01*
X146661544Y-106913216D01*
X146760147Y-106765646D01*
X146885646Y-106640147D01*
X147033216Y-106541544D01*
X147197188Y-106473624D01*
X147346488Y-106443927D01*
X147371258Y-106439000D01*
X147548742Y-106439000D01*
X147573512Y-106443927D01*
G37*
G36*
X127253512Y-106443927D02*
G01*
X127402812Y-106473624D01*
X127566784Y-106541544D01*
X127714354Y-106640147D01*
X127839853Y-106765646D01*
X127938456Y-106913216D01*
X128006376Y-107077188D01*
X128041000Y-107251259D01*
X128041000Y-107428741D01*
X128006376Y-107602812D01*
X127938456Y-107766784D01*
X127839853Y-107914354D01*
X127714354Y-108039853D01*
X127566784Y-108138456D01*
X127402812Y-108206376D01*
X127253512Y-108236073D01*
X127228742Y-108241000D01*
X127051258Y-108241000D01*
X127026488Y-108236073D01*
X126877188Y-108206376D01*
X126713216Y-108138456D01*
X126565646Y-108039853D01*
X126440147Y-107914354D01*
X126341544Y-107766784D01*
X126273624Y-107602812D01*
X126239000Y-107428741D01*
X126239000Y-107251259D01*
X126273624Y-107077188D01*
X126341544Y-106913216D01*
X126440147Y-106765646D01*
X126565646Y-106640147D01*
X126713216Y-106541544D01*
X126877188Y-106473624D01*
X127026488Y-106443927D01*
X127051258Y-106439000D01*
X127228742Y-106439000D01*
X127253512Y-106443927D01*
G37*
G36*
X124713512Y-103903927D02*
G01*
X124862812Y-103933624D01*
X125026784Y-104001544D01*
X125174354Y-104100147D01*
X125299853Y-104225646D01*
X125398456Y-104373216D01*
X125466376Y-104537188D01*
X125501000Y-104711259D01*
X125501000Y-104888741D01*
X125466376Y-105062812D01*
X125398456Y-105226784D01*
X125299853Y-105374354D01*
X125174354Y-105499853D01*
X125026784Y-105598456D01*
X124862812Y-105666376D01*
X124713512Y-105696073D01*
X124688742Y-105701000D01*
X124511258Y-105701000D01*
X124486488Y-105696073D01*
X124337188Y-105666376D01*
X124173216Y-105598456D01*
X124025646Y-105499853D01*
X123900147Y-105374354D01*
X123801544Y-105226784D01*
X123733624Y-105062812D01*
X123699000Y-104888741D01*
X123699000Y-104711259D01*
X123733624Y-104537188D01*
X123801544Y-104373216D01*
X123900147Y-104225646D01*
X124025646Y-104100147D01*
X124173216Y-104001544D01*
X124337188Y-103933624D01*
X124486488Y-103903927D01*
X124511258Y-103899000D01*
X124688742Y-103899000D01*
X124713512Y-103903927D01*
G37*
G36*
X122173512Y-103903927D02*
G01*
X122322812Y-103933624D01*
X122486784Y-104001544D01*
X122634354Y-104100147D01*
X122759853Y-104225646D01*
X122858456Y-104373216D01*
X122926376Y-104537188D01*
X122961000Y-104711259D01*
X122961000Y-104888741D01*
X122926376Y-105062812D01*
X122858456Y-105226784D01*
X122759853Y-105374354D01*
X122634354Y-105499853D01*
X122486784Y-105598456D01*
X122322812Y-105666376D01*
X122173512Y-105696073D01*
X122148742Y-105701000D01*
X121971258Y-105701000D01*
X121946488Y-105696073D01*
X121797188Y-105666376D01*
X121633216Y-105598456D01*
X121485646Y-105499853D01*
X121360147Y-105374354D01*
X121261544Y-105226784D01*
X121193624Y-105062812D01*
X121159000Y-104888741D01*
X121159000Y-104711259D01*
X121193624Y-104537188D01*
X121261544Y-104373216D01*
X121360147Y-104225646D01*
X121485646Y-104100147D01*
X121633216Y-104001544D01*
X121797188Y-103933624D01*
X121946488Y-103903927D01*
X121971258Y-103899000D01*
X122148742Y-103899000D01*
X122173512Y-103903927D01*
G37*
G36*
X104393512Y-103903927D02*
G01*
X104542812Y-103933624D01*
X104706784Y-104001544D01*
X104854354Y-104100147D01*
X104979853Y-104225646D01*
X105078456Y-104373216D01*
X105146376Y-104537188D01*
X105181000Y-104711259D01*
X105181000Y-104888741D01*
X105146376Y-105062812D01*
X105078456Y-105226784D01*
X104979853Y-105374354D01*
X104854354Y-105499853D01*
X104706784Y-105598456D01*
X104542812Y-105666376D01*
X104393512Y-105696073D01*
X104368742Y-105701000D01*
X104191258Y-105701000D01*
X104166488Y-105696073D01*
X104017188Y-105666376D01*
X103853216Y-105598456D01*
X103705646Y-105499853D01*
X103580147Y-105374354D01*
X103481544Y-105226784D01*
X103413624Y-105062812D01*
X103379000Y-104888741D01*
X103379000Y-104711259D01*
X103413624Y-104537188D01*
X103481544Y-104373216D01*
X103580147Y-104225646D01*
X103705646Y-104100147D01*
X103853216Y-104001544D01*
X104017188Y-103933624D01*
X104166488Y-103903927D01*
X104191258Y-103899000D01*
X104368742Y-103899000D01*
X104393512Y-103903927D01*
G37*
G36*
X119633512Y-103903927D02*
G01*
X119782812Y-103933624D01*
X119946784Y-104001544D01*
X120094354Y-104100147D01*
X120219853Y-104225646D01*
X120318456Y-104373216D01*
X120386376Y-104537188D01*
X120421000Y-104711259D01*
X120421000Y-104888741D01*
X120386376Y-105062812D01*
X120318456Y-105226784D01*
X120219853Y-105374354D01*
X120094354Y-105499853D01*
X119946784Y-105598456D01*
X119782812Y-105666376D01*
X119633512Y-105696073D01*
X119608742Y-105701000D01*
X119431258Y-105701000D01*
X119406488Y-105696073D01*
X119257188Y-105666376D01*
X119093216Y-105598456D01*
X118945646Y-105499853D01*
X118820147Y-105374354D01*
X118721544Y-105226784D01*
X118653624Y-105062812D01*
X118619000Y-104888741D01*
X118619000Y-104711259D01*
X118653624Y-104537188D01*
X118721544Y-104373216D01*
X118820147Y-104225646D01*
X118945646Y-104100147D01*
X119093216Y-104001544D01*
X119257188Y-103933624D01*
X119406488Y-103903927D01*
X119431258Y-103899000D01*
X119608742Y-103899000D01*
X119633512Y-103903927D01*
G37*
G36*
X117093512Y-103903927D02*
G01*
X117242812Y-103933624D01*
X117406784Y-104001544D01*
X117554354Y-104100147D01*
X117679853Y-104225646D01*
X117778456Y-104373216D01*
X117846376Y-104537188D01*
X117881000Y-104711259D01*
X117881000Y-104888741D01*
X117846376Y-105062812D01*
X117778456Y-105226784D01*
X117679853Y-105374354D01*
X117554354Y-105499853D01*
X117406784Y-105598456D01*
X117242812Y-105666376D01*
X117093512Y-105696073D01*
X117068742Y-105701000D01*
X116891258Y-105701000D01*
X116866488Y-105696073D01*
X116717188Y-105666376D01*
X116553216Y-105598456D01*
X116405646Y-105499853D01*
X116280147Y-105374354D01*
X116181544Y-105226784D01*
X116113624Y-105062812D01*
X116079000Y-104888741D01*
X116079000Y-104711259D01*
X116113624Y-104537188D01*
X116181544Y-104373216D01*
X116280147Y-104225646D01*
X116405646Y-104100147D01*
X116553216Y-104001544D01*
X116717188Y-103933624D01*
X116866488Y-103903927D01*
X116891258Y-103899000D01*
X117068742Y-103899000D01*
X117093512Y-103903927D01*
G37*
G36*
X114553512Y-103903927D02*
G01*
X114702812Y-103933624D01*
X114866784Y-104001544D01*
X115014354Y-104100147D01*
X115139853Y-104225646D01*
X115238456Y-104373216D01*
X115306376Y-104537188D01*
X115341000Y-104711259D01*
X115341000Y-104888741D01*
X115306376Y-105062812D01*
X115238456Y-105226784D01*
X115139853Y-105374354D01*
X115014354Y-105499853D01*
X114866784Y-105598456D01*
X114702812Y-105666376D01*
X114553512Y-105696073D01*
X114528742Y-105701000D01*
X114351258Y-105701000D01*
X114326488Y-105696073D01*
X114177188Y-105666376D01*
X114013216Y-105598456D01*
X113865646Y-105499853D01*
X113740147Y-105374354D01*
X113641544Y-105226784D01*
X113573624Y-105062812D01*
X113539000Y-104888741D01*
X113539000Y-104711259D01*
X113573624Y-104537188D01*
X113641544Y-104373216D01*
X113740147Y-104225646D01*
X113865646Y-104100147D01*
X114013216Y-104001544D01*
X114177188Y-103933624D01*
X114326488Y-103903927D01*
X114351258Y-103899000D01*
X114528742Y-103899000D01*
X114553512Y-103903927D01*
G37*
G36*
X112013512Y-103903927D02*
G01*
X112162812Y-103933624D01*
X112326784Y-104001544D01*
X112474354Y-104100147D01*
X112599853Y-104225646D01*
X112698456Y-104373216D01*
X112766376Y-104537188D01*
X112801000Y-104711259D01*
X112801000Y-104888741D01*
X112766376Y-105062812D01*
X112698456Y-105226784D01*
X112599853Y-105374354D01*
X112474354Y-105499853D01*
X112326784Y-105598456D01*
X112162812Y-105666376D01*
X112013512Y-105696073D01*
X111988742Y-105701000D01*
X111811258Y-105701000D01*
X111786488Y-105696073D01*
X111637188Y-105666376D01*
X111473216Y-105598456D01*
X111325646Y-105499853D01*
X111200147Y-105374354D01*
X111101544Y-105226784D01*
X111033624Y-105062812D01*
X110999000Y-104888741D01*
X110999000Y-104711259D01*
X111033624Y-104537188D01*
X111101544Y-104373216D01*
X111200147Y-104225646D01*
X111325646Y-104100147D01*
X111473216Y-104001544D01*
X111637188Y-103933624D01*
X111786488Y-103903927D01*
X111811258Y-103899000D01*
X111988742Y-103899000D01*
X112013512Y-103903927D01*
G37*
G36*
X109473512Y-103903927D02*
G01*
X109622812Y-103933624D01*
X109786784Y-104001544D01*
X109934354Y-104100147D01*
X110059853Y-104225646D01*
X110158456Y-104373216D01*
X110226376Y-104537188D01*
X110261000Y-104711259D01*
X110261000Y-104888741D01*
X110226376Y-105062812D01*
X110158456Y-105226784D01*
X110059853Y-105374354D01*
X109934354Y-105499853D01*
X109786784Y-105598456D01*
X109622812Y-105666376D01*
X109473512Y-105696073D01*
X109448742Y-105701000D01*
X109271258Y-105701000D01*
X109246488Y-105696073D01*
X109097188Y-105666376D01*
X108933216Y-105598456D01*
X108785646Y-105499853D01*
X108660147Y-105374354D01*
X108561544Y-105226784D01*
X108493624Y-105062812D01*
X108459000Y-104888741D01*
X108459000Y-104711259D01*
X108493624Y-104537188D01*
X108561544Y-104373216D01*
X108660147Y-104225646D01*
X108785646Y-104100147D01*
X108933216Y-104001544D01*
X109097188Y-103933624D01*
X109246488Y-103903927D01*
X109271258Y-103899000D01*
X109448742Y-103899000D01*
X109473512Y-103903927D01*
G37*
G36*
X101853512Y-103903927D02*
G01*
X102002812Y-103933624D01*
X102166784Y-104001544D01*
X102314354Y-104100147D01*
X102439853Y-104225646D01*
X102538456Y-104373216D01*
X102606376Y-104537188D01*
X102641000Y-104711259D01*
X102641000Y-104888741D01*
X102606376Y-105062812D01*
X102538456Y-105226784D01*
X102439853Y-105374354D01*
X102314354Y-105499853D01*
X102166784Y-105598456D01*
X102002812Y-105666376D01*
X101853512Y-105696073D01*
X101828742Y-105701000D01*
X101651258Y-105701000D01*
X101626488Y-105696073D01*
X101477188Y-105666376D01*
X101313216Y-105598456D01*
X101165646Y-105499853D01*
X101040147Y-105374354D01*
X100941544Y-105226784D01*
X100873624Y-105062812D01*
X100839000Y-104888741D01*
X100839000Y-104711259D01*
X100873624Y-104537188D01*
X100941544Y-104373216D01*
X101040147Y-104225646D01*
X101165646Y-104100147D01*
X101313216Y-104001544D01*
X101477188Y-103933624D01*
X101626488Y-103903927D01*
X101651258Y-103899000D01*
X101828742Y-103899000D01*
X101853512Y-103903927D01*
G37*
G36*
X106933512Y-103903927D02*
G01*
X107082812Y-103933624D01*
X107246784Y-104001544D01*
X107394354Y-104100147D01*
X107519853Y-104225646D01*
X107618456Y-104373216D01*
X107686376Y-104537188D01*
X107721000Y-104711259D01*
X107721000Y-104888741D01*
X107686376Y-105062812D01*
X107618456Y-105226784D01*
X107519853Y-105374354D01*
X107394354Y-105499853D01*
X107246784Y-105598456D01*
X107082812Y-105666376D01*
X106933512Y-105696073D01*
X106908742Y-105701000D01*
X106731258Y-105701000D01*
X106706488Y-105696073D01*
X106557188Y-105666376D01*
X106393216Y-105598456D01*
X106245646Y-105499853D01*
X106120147Y-105374354D01*
X106021544Y-105226784D01*
X105953624Y-105062812D01*
X105919000Y-104888741D01*
X105919000Y-104711259D01*
X105953624Y-104537188D01*
X106021544Y-104373216D01*
X106120147Y-104225646D01*
X106245646Y-104100147D01*
X106393216Y-104001544D01*
X106557188Y-103933624D01*
X106706488Y-103903927D01*
X106731258Y-103899000D01*
X106908742Y-103899000D01*
X106933512Y-103903927D01*
G37*
G36*
X129793512Y-103903927D02*
G01*
X129942812Y-103933624D01*
X130106784Y-104001544D01*
X130254354Y-104100147D01*
X130379853Y-104225646D01*
X130478456Y-104373216D01*
X130546376Y-104537188D01*
X130581000Y-104711259D01*
X130581000Y-104888741D01*
X130546376Y-105062812D01*
X130478456Y-105226784D01*
X130379853Y-105374354D01*
X130254354Y-105499853D01*
X130106784Y-105598456D01*
X129942812Y-105666376D01*
X129793512Y-105696073D01*
X129768742Y-105701000D01*
X129591258Y-105701000D01*
X129566488Y-105696073D01*
X129417188Y-105666376D01*
X129253216Y-105598456D01*
X129105646Y-105499853D01*
X128980147Y-105374354D01*
X128881544Y-105226784D01*
X128813624Y-105062812D01*
X128779000Y-104888741D01*
X128779000Y-104711259D01*
X128813624Y-104537188D01*
X128881544Y-104373216D01*
X128980147Y-104225646D01*
X129105646Y-104100147D01*
X129253216Y-104001544D01*
X129417188Y-103933624D01*
X129566488Y-103903927D01*
X129591258Y-103899000D01*
X129768742Y-103899000D01*
X129793512Y-103903927D01*
G37*
G36*
X127253512Y-103903927D02*
G01*
X127402812Y-103933624D01*
X127566784Y-104001544D01*
X127714354Y-104100147D01*
X127839853Y-104225646D01*
X127938456Y-104373216D01*
X128006376Y-104537188D01*
X128041000Y-104711259D01*
X128041000Y-104888741D01*
X128006376Y-105062812D01*
X127938456Y-105226784D01*
X127839853Y-105374354D01*
X127714354Y-105499853D01*
X127566784Y-105598456D01*
X127402812Y-105666376D01*
X127253512Y-105696073D01*
X127228742Y-105701000D01*
X127051258Y-105701000D01*
X127026488Y-105696073D01*
X126877188Y-105666376D01*
X126713216Y-105598456D01*
X126565646Y-105499853D01*
X126440147Y-105374354D01*
X126341544Y-105226784D01*
X126273624Y-105062812D01*
X126239000Y-104888741D01*
X126239000Y-104711259D01*
X126273624Y-104537188D01*
X126341544Y-104373216D01*
X126440147Y-104225646D01*
X126565646Y-104100147D01*
X126713216Y-104001544D01*
X126877188Y-103933624D01*
X127026488Y-103903927D01*
X127051258Y-103899000D01*
X127228742Y-103899000D01*
X127253512Y-103903927D01*
G37*
G36*
X142493512Y-103903927D02*
G01*
X142642812Y-103933624D01*
X142806784Y-104001544D01*
X142954354Y-104100147D01*
X143079853Y-104225646D01*
X143178456Y-104373216D01*
X143246376Y-104537188D01*
X143281000Y-104711259D01*
X143281000Y-104888741D01*
X143246376Y-105062812D01*
X143178456Y-105226784D01*
X143079853Y-105374354D01*
X142954354Y-105499853D01*
X142806784Y-105598456D01*
X142642812Y-105666376D01*
X142493512Y-105696073D01*
X142468742Y-105701000D01*
X142291258Y-105701000D01*
X142266488Y-105696073D01*
X142117188Y-105666376D01*
X141953216Y-105598456D01*
X141805646Y-105499853D01*
X141680147Y-105374354D01*
X141581544Y-105226784D01*
X141513624Y-105062812D01*
X141479000Y-104888741D01*
X141479000Y-104711259D01*
X141513624Y-104537188D01*
X141581544Y-104373216D01*
X141680147Y-104225646D01*
X141805646Y-104100147D01*
X141953216Y-104001544D01*
X142117188Y-103933624D01*
X142266488Y-103903927D01*
X142291258Y-103899000D01*
X142468742Y-103899000D01*
X142493512Y-103903927D01*
G37*
G36*
X147573512Y-103903927D02*
G01*
X147722812Y-103933624D01*
X147886784Y-104001544D01*
X148034354Y-104100147D01*
X148159853Y-104225646D01*
X148258456Y-104373216D01*
X148326376Y-104537188D01*
X148361000Y-104711259D01*
X148361000Y-104888741D01*
X148326376Y-105062812D01*
X148258456Y-105226784D01*
X148159853Y-105374354D01*
X148034354Y-105499853D01*
X147886784Y-105598456D01*
X147722812Y-105666376D01*
X147573512Y-105696073D01*
X147548742Y-105701000D01*
X147371258Y-105701000D01*
X147346488Y-105696073D01*
X147197188Y-105666376D01*
X147033216Y-105598456D01*
X146885646Y-105499853D01*
X146760147Y-105374354D01*
X146661544Y-105226784D01*
X146593624Y-105062812D01*
X146559000Y-104888741D01*
X146559000Y-104711259D01*
X146593624Y-104537188D01*
X146661544Y-104373216D01*
X146760147Y-104225646D01*
X146885646Y-104100147D01*
X147033216Y-104001544D01*
X147197188Y-103933624D01*
X147346488Y-103903927D01*
X147371258Y-103899000D01*
X147548742Y-103899000D01*
X147573512Y-103903927D01*
G37*
G36*
X139953512Y-103903927D02*
G01*
X140102812Y-103933624D01*
X140266784Y-104001544D01*
X140414354Y-104100147D01*
X140539853Y-104225646D01*
X140638456Y-104373216D01*
X140706376Y-104537188D01*
X140741000Y-104711259D01*
X140741000Y-104888741D01*
X140706376Y-105062812D01*
X140638456Y-105226784D01*
X140539853Y-105374354D01*
X140414354Y-105499853D01*
X140266784Y-105598456D01*
X140102812Y-105666376D01*
X139953512Y-105696073D01*
X139928742Y-105701000D01*
X139751258Y-105701000D01*
X139726488Y-105696073D01*
X139577188Y-105666376D01*
X139413216Y-105598456D01*
X139265646Y-105499853D01*
X139140147Y-105374354D01*
X139041544Y-105226784D01*
X138973624Y-105062812D01*
X138939000Y-104888741D01*
X138939000Y-104711259D01*
X138973624Y-104537188D01*
X139041544Y-104373216D01*
X139140147Y-104225646D01*
X139265646Y-104100147D01*
X139413216Y-104001544D01*
X139577188Y-103933624D01*
X139726488Y-103903927D01*
X139751258Y-103899000D01*
X139928742Y-103899000D01*
X139953512Y-103903927D01*
G37*
G36*
X137413512Y-103903927D02*
G01*
X137562812Y-103933624D01*
X137726784Y-104001544D01*
X137874354Y-104100147D01*
X137999853Y-104225646D01*
X138098456Y-104373216D01*
X138166376Y-104537188D01*
X138201000Y-104711259D01*
X138201000Y-104888741D01*
X138166376Y-105062812D01*
X138098456Y-105226784D01*
X137999853Y-105374354D01*
X137874354Y-105499853D01*
X137726784Y-105598456D01*
X137562812Y-105666376D01*
X137413512Y-105696073D01*
X137388742Y-105701000D01*
X137211258Y-105701000D01*
X137186488Y-105696073D01*
X137037188Y-105666376D01*
X136873216Y-105598456D01*
X136725646Y-105499853D01*
X136600147Y-105374354D01*
X136501544Y-105226784D01*
X136433624Y-105062812D01*
X136399000Y-104888741D01*
X136399000Y-104711259D01*
X136433624Y-104537188D01*
X136501544Y-104373216D01*
X136600147Y-104225646D01*
X136725646Y-104100147D01*
X136873216Y-104001544D01*
X137037188Y-103933624D01*
X137186488Y-103903927D01*
X137211258Y-103899000D01*
X137388742Y-103899000D01*
X137413512Y-103903927D01*
G37*
G36*
X134873512Y-103903927D02*
G01*
X135022812Y-103933624D01*
X135186784Y-104001544D01*
X135334354Y-104100147D01*
X135459853Y-104225646D01*
X135558456Y-104373216D01*
X135626376Y-104537188D01*
X135661000Y-104711259D01*
X135661000Y-104888741D01*
X135626376Y-105062812D01*
X135558456Y-105226784D01*
X135459853Y-105374354D01*
X135334354Y-105499853D01*
X135186784Y-105598456D01*
X135022812Y-105666376D01*
X134873512Y-105696073D01*
X134848742Y-105701000D01*
X134671258Y-105701000D01*
X134646488Y-105696073D01*
X134497188Y-105666376D01*
X134333216Y-105598456D01*
X134185646Y-105499853D01*
X134060147Y-105374354D01*
X133961544Y-105226784D01*
X133893624Y-105062812D01*
X133859000Y-104888741D01*
X133859000Y-104711259D01*
X133893624Y-104537188D01*
X133961544Y-104373216D01*
X134060147Y-104225646D01*
X134185646Y-104100147D01*
X134333216Y-104001544D01*
X134497188Y-103933624D01*
X134646488Y-103903927D01*
X134671258Y-103899000D01*
X134848742Y-103899000D01*
X134873512Y-103903927D01*
G37*
G36*
X150901000Y-105701000D02*
G01*
X149099000Y-105701000D01*
X149099000Y-103899000D01*
X150901000Y-103899000D01*
X150901000Y-105701000D01*
G37*
G36*
X132333512Y-103903927D02*
G01*
X132482812Y-103933624D01*
X132646784Y-104001544D01*
X132794354Y-104100147D01*
X132919853Y-104225646D01*
X133018456Y-104373216D01*
X133086376Y-104537188D01*
X133121000Y-104711259D01*
X133121000Y-104888741D01*
X133086376Y-105062812D01*
X133018456Y-105226784D01*
X132919853Y-105374354D01*
X132794354Y-105499853D01*
X132646784Y-105598456D01*
X132482812Y-105666376D01*
X132333512Y-105696073D01*
X132308742Y-105701000D01*
X132131258Y-105701000D01*
X132106488Y-105696073D01*
X131957188Y-105666376D01*
X131793216Y-105598456D01*
X131645646Y-105499853D01*
X131520147Y-105374354D01*
X131421544Y-105226784D01*
X131353624Y-105062812D01*
X131319000Y-104888741D01*
X131319000Y-104711259D01*
X131353624Y-104537188D01*
X131421544Y-104373216D01*
X131520147Y-104225646D01*
X131645646Y-104100147D01*
X131793216Y-104001544D01*
X131957188Y-103933624D01*
X132106488Y-103903927D01*
X132131258Y-103899000D01*
X132308742Y-103899000D01*
X132333512Y-103903927D01*
G37*
G36*
X145033512Y-103903927D02*
G01*
X145182812Y-103933624D01*
X145346784Y-104001544D01*
X145494354Y-104100147D01*
X145619853Y-104225646D01*
X145718456Y-104373216D01*
X145786376Y-104537188D01*
X145821000Y-104711259D01*
X145821000Y-104888741D01*
X145786376Y-105062812D01*
X145718456Y-105226784D01*
X145619853Y-105374354D01*
X145494354Y-105499853D01*
X145346784Y-105598456D01*
X145182812Y-105666376D01*
X145033512Y-105696073D01*
X145008742Y-105701000D01*
X144831258Y-105701000D01*
X144806488Y-105696073D01*
X144657188Y-105666376D01*
X144493216Y-105598456D01*
X144345646Y-105499853D01*
X144220147Y-105374354D01*
X144121544Y-105226784D01*
X144053624Y-105062812D01*
X144019000Y-104888741D01*
X144019000Y-104711259D01*
X144053624Y-104537188D01*
X144121544Y-104373216D01*
X144220147Y-104225646D01*
X144345646Y-104100147D01*
X144493216Y-104001544D01*
X144657188Y-103933624D01*
X144806488Y-103903927D01*
X144831258Y-103899000D01*
X145008742Y-103899000D01*
X145033512Y-103903927D01*
G37*
G36*
X150113512Y-99043927D02*
G01*
X150262812Y-99073624D01*
X150426784Y-99141544D01*
X150574354Y-99240147D01*
X150699853Y-99365646D01*
X150798456Y-99513216D01*
X150866376Y-99677188D01*
X150901000Y-99851259D01*
X150901000Y-100028741D01*
X150866376Y-100202812D01*
X150798456Y-100366784D01*
X150699853Y-100514354D01*
X150574354Y-100639853D01*
X150426784Y-100738456D01*
X150262812Y-100806376D01*
X150113512Y-100836073D01*
X150088742Y-100841000D01*
X149911258Y-100841000D01*
X149886488Y-100836073D01*
X149737188Y-100806376D01*
X149573216Y-100738456D01*
X149425646Y-100639853D01*
X149300147Y-100514354D01*
X149201544Y-100366784D01*
X149133624Y-100202812D01*
X149099000Y-100028741D01*
X149099000Y-99851259D01*
X149133624Y-99677188D01*
X149201544Y-99513216D01*
X149300147Y-99365646D01*
X149425646Y-99240147D01*
X149573216Y-99141544D01*
X149737188Y-99073624D01*
X149886488Y-99043927D01*
X149911258Y-99039000D01*
X150088742Y-99039000D01*
X150113512Y-99043927D01*
G37*
G36*
X145033512Y-99043927D02*
G01*
X145182812Y-99073624D01*
X145346784Y-99141544D01*
X145494354Y-99240147D01*
X145619853Y-99365646D01*
X145718456Y-99513216D01*
X145786376Y-99677188D01*
X145821000Y-99851259D01*
X145821000Y-100028741D01*
X145786376Y-100202812D01*
X145718456Y-100366784D01*
X145619853Y-100514354D01*
X145494354Y-100639853D01*
X145346784Y-100738456D01*
X145182812Y-100806376D01*
X145033512Y-100836073D01*
X145008742Y-100841000D01*
X144831258Y-100841000D01*
X144806488Y-100836073D01*
X144657188Y-100806376D01*
X144493216Y-100738456D01*
X144345646Y-100639853D01*
X144220147Y-100514354D01*
X144121544Y-100366784D01*
X144053624Y-100202812D01*
X144019000Y-100028741D01*
X144019000Y-99851259D01*
X144053624Y-99677188D01*
X144121544Y-99513216D01*
X144220147Y-99365646D01*
X144345646Y-99240147D01*
X144493216Y-99141544D01*
X144657188Y-99073624D01*
X144806488Y-99043927D01*
X144831258Y-99039000D01*
X145008742Y-99039000D01*
X145033512Y-99043927D01*
G37*
G36*
X147573512Y-99043927D02*
G01*
X147722812Y-99073624D01*
X147886784Y-99141544D01*
X148034354Y-99240147D01*
X148159853Y-99365646D01*
X148258456Y-99513216D01*
X148326376Y-99677188D01*
X148361000Y-99851259D01*
X148361000Y-100028741D01*
X148326376Y-100202812D01*
X148258456Y-100366784D01*
X148159853Y-100514354D01*
X148034354Y-100639853D01*
X147886784Y-100738456D01*
X147722812Y-100806376D01*
X147573512Y-100836073D01*
X147548742Y-100841000D01*
X147371258Y-100841000D01*
X147346488Y-100836073D01*
X147197188Y-100806376D01*
X147033216Y-100738456D01*
X146885646Y-100639853D01*
X146760147Y-100514354D01*
X146661544Y-100366784D01*
X146593624Y-100202812D01*
X146559000Y-100028741D01*
X146559000Y-99851259D01*
X146593624Y-99677188D01*
X146661544Y-99513216D01*
X146760147Y-99365646D01*
X146885646Y-99240147D01*
X147033216Y-99141544D01*
X147197188Y-99073624D01*
X147346488Y-99043927D01*
X147371258Y-99039000D01*
X147548742Y-99039000D01*
X147573512Y-99043927D01*
G37*
G36*
X147573512Y-96503927D02*
G01*
X147722812Y-96533624D01*
X147886784Y-96601544D01*
X148034354Y-96700147D01*
X148159853Y-96825646D01*
X148258456Y-96973216D01*
X148326376Y-97137188D01*
X148361000Y-97311259D01*
X148361000Y-97488741D01*
X148326376Y-97662812D01*
X148258456Y-97826784D01*
X148159853Y-97974354D01*
X148034354Y-98099853D01*
X147886784Y-98198456D01*
X147722812Y-98266376D01*
X147573512Y-98296073D01*
X147548742Y-98301000D01*
X147371258Y-98301000D01*
X147346488Y-98296073D01*
X147197188Y-98266376D01*
X147033216Y-98198456D01*
X146885646Y-98099853D01*
X146760147Y-97974354D01*
X146661544Y-97826784D01*
X146593624Y-97662812D01*
X146559000Y-97488741D01*
X146559000Y-97311259D01*
X146593624Y-97137188D01*
X146661544Y-96973216D01*
X146760147Y-96825646D01*
X146885646Y-96700147D01*
X147033216Y-96601544D01*
X147197188Y-96533624D01*
X147346488Y-96503927D01*
X147371258Y-96499000D01*
X147548742Y-96499000D01*
X147573512Y-96503927D01*
G37*
G36*
X150901000Y-98301000D02*
G01*
X149099000Y-98301000D01*
X149099000Y-96499000D01*
X150901000Y-96499000D01*
X150901000Y-98301000D01*
G37*
G36*
X145033512Y-96503927D02*
G01*
X145182812Y-96533624D01*
X145346784Y-96601544D01*
X145494354Y-96700147D01*
X145619853Y-96825646D01*
X145718456Y-96973216D01*
X145786376Y-97137188D01*
X145821000Y-97311259D01*
X145821000Y-97488741D01*
X145786376Y-97662812D01*
X145718456Y-97826784D01*
X145619853Y-97974354D01*
X145494354Y-98099853D01*
X145346784Y-98198456D01*
X145182812Y-98266376D01*
X145033512Y-98296073D01*
X145008742Y-98301000D01*
X144831258Y-98301000D01*
X144806488Y-98296073D01*
X144657188Y-98266376D01*
X144493216Y-98198456D01*
X144345646Y-98099853D01*
X144220147Y-97974354D01*
X144121544Y-97826784D01*
X144053624Y-97662812D01*
X144019000Y-97488741D01*
X144019000Y-97311259D01*
X144053624Y-97137188D01*
X144121544Y-96973216D01*
X144220147Y-96825646D01*
X144345646Y-96700147D01*
X144493216Y-96601544D01*
X144657188Y-96533624D01*
X144806488Y-96503927D01*
X144831258Y-96499000D01*
X145008742Y-96499000D01*
X145033512Y-96503927D01*
G37*
G36*
X103624549Y-91871116D02*
G01*
X103735734Y-91893232D01*
X103945203Y-91979997D01*
X104133720Y-92105960D01*
X104294040Y-92266280D01*
X104420003Y-92454797D01*
X104506768Y-92664266D01*
X104551000Y-92886636D01*
X104551000Y-93113364D01*
X104506768Y-93335734D01*
X104420003Y-93545203D01*
X104294040Y-93733720D01*
X104133720Y-93894040D01*
X103945203Y-94020003D01*
X103735734Y-94106768D01*
X103624549Y-94128884D01*
X103513365Y-94151000D01*
X103286635Y-94151000D01*
X103175451Y-94128884D01*
X103064266Y-94106768D01*
X102854797Y-94020003D01*
X102666280Y-93894040D01*
X102505960Y-93733720D01*
X102379997Y-93545203D01*
X102293232Y-93335734D01*
X102249000Y-93113364D01*
X102249000Y-92886636D01*
X102293232Y-92664266D01*
X102379997Y-92454797D01*
X102505960Y-92266280D01*
X102666280Y-92105960D01*
X102854797Y-91979997D01*
X103064266Y-91893232D01*
X103175451Y-91871116D01*
X103286635Y-91849000D01*
X103513365Y-91849000D01*
X103624549Y-91871116D01*
G37*
G36*
X144726000Y-94101000D02*
G01*
X136074000Y-94101000D01*
X136074000Y-92499000D01*
X144726000Y-92499000D01*
X144726000Y-94101000D01*
G37*
G36*
X135501000Y-91926000D02*
G01*
X133899000Y-91926000D01*
X133899000Y-83274000D01*
X135501000Y-83274000D01*
X135501000Y-91926000D01*
G37*
G36*
X146901000Y-91926000D02*
G01*
X145299000Y-91926000D01*
X145299000Y-83274000D01*
X146901000Y-83274000D01*
X146901000Y-91926000D01*
G37*
G36*
X112851020Y-91501790D02*
G01*
X111199620Y-91501790D01*
X111199620Y-90249170D01*
X112851020Y-90249170D01*
X112851020Y-91501790D01*
G37*
G36*
X124900780Y-91501790D02*
G01*
X123249380Y-91501790D01*
X123249380Y-90249170D01*
X124900780Y-90249170D01*
X124900780Y-91501790D01*
G37*
G36*
X122952600Y-91500520D02*
G01*
X113147800Y-91500520D01*
X113147800Y-90397760D01*
X122952600Y-90397760D01*
X122952600Y-91500520D01*
G37*
G36*
X149354591Y-86878085D02*
G01*
X149388569Y-86888393D01*
X149419890Y-86905134D01*
X149447339Y-86927661D01*
X149469866Y-86955110D01*
X149486607Y-86986431D01*
X149496915Y-87020409D01*
X149501000Y-87061890D01*
X149501000Y-87738110D01*
X149496915Y-87779591D01*
X149486607Y-87813569D01*
X149469866Y-87844890D01*
X149447339Y-87872339D01*
X149419890Y-87894866D01*
X149388569Y-87911607D01*
X149354591Y-87921915D01*
X149313110Y-87926000D01*
X148711890Y-87926000D01*
X148670409Y-87921915D01*
X148636431Y-87911607D01*
X148605110Y-87894866D01*
X148577661Y-87872339D01*
X148555134Y-87844890D01*
X148538393Y-87813569D01*
X148528085Y-87779591D01*
X148524000Y-87738110D01*
X148524000Y-87061890D01*
X148528085Y-87020409D01*
X148538393Y-86986431D01*
X148555134Y-86955110D01*
X148577661Y-86927661D01*
X148605110Y-86905134D01*
X148636431Y-86888393D01*
X148670409Y-86878085D01*
X148711890Y-86874000D01*
X149313110Y-86874000D01*
X149354591Y-86878085D01*
G37*
G36*
X150929591Y-86878085D02*
G01*
X150963569Y-86888393D01*
X150994890Y-86905134D01*
X151022339Y-86927661D01*
X151044866Y-86955110D01*
X151061607Y-86986431D01*
X151071915Y-87020409D01*
X151076000Y-87061890D01*
X151076000Y-87738110D01*
X151071915Y-87779591D01*
X151061607Y-87813569D01*
X151044866Y-87844890D01*
X151022339Y-87872339D01*
X150994890Y-87894866D01*
X150963569Y-87911607D01*
X150929591Y-87921915D01*
X150888110Y-87926000D01*
X150286890Y-87926000D01*
X150245409Y-87921915D01*
X150211431Y-87911607D01*
X150180110Y-87894866D01*
X150152661Y-87872339D01*
X150130134Y-87844890D01*
X150113393Y-87813569D01*
X150103085Y-87779591D01*
X150099000Y-87738110D01*
X150099000Y-87061890D01*
X150103085Y-87020409D01*
X150113393Y-86986431D01*
X150130134Y-86955110D01*
X150152661Y-86927661D01*
X150180110Y-86905134D01*
X150211431Y-86888393D01*
X150245409Y-86878085D01*
X150286890Y-86874000D01*
X150888110Y-86874000D01*
X150929591Y-86878085D01*
G37*
G36*
X112851020Y-87351430D02*
G01*
X111199620Y-87351430D01*
X111199620Y-86098810D01*
X112851020Y-86098810D01*
X112851020Y-87351430D01*
G37*
G36*
X124900780Y-87351430D02*
G01*
X123249380Y-87351430D01*
X123249380Y-86098810D01*
X124900780Y-86098810D01*
X124900780Y-87351430D01*
G37*
G36*
X122952600Y-87200300D02*
G01*
X113147800Y-87200300D01*
X113147800Y-86097540D01*
X122952600Y-86097540D01*
X122952600Y-87200300D01*
G37*
G36*
X144726000Y-82701000D02*
G01*
X136074000Y-82701000D01*
X136074000Y-81099000D01*
X144726000Y-81099000D01*
X144726000Y-82701000D01*
G37*
G36*
X147529591Y-79278085D02*
G01*
X147563569Y-79288393D01*
X147594890Y-79305134D01*
X147622339Y-79327661D01*
X147644866Y-79355110D01*
X147661607Y-79386431D01*
X147671915Y-79420409D01*
X147676000Y-79461890D01*
X147676000Y-80138110D01*
X147671915Y-80179591D01*
X147661607Y-80213569D01*
X147644866Y-80244890D01*
X147622339Y-80272339D01*
X147594890Y-80294866D01*
X147563569Y-80311607D01*
X147529591Y-80321915D01*
X147488110Y-80326000D01*
X146886890Y-80326000D01*
X146845409Y-80321915D01*
X146811431Y-80311607D01*
X146780110Y-80294866D01*
X146752661Y-80272339D01*
X146730134Y-80244890D01*
X146713393Y-80213569D01*
X146703085Y-80179591D01*
X146699000Y-80138110D01*
X146699000Y-79461890D01*
X146703085Y-79420409D01*
X146713393Y-79386431D01*
X146730134Y-79355110D01*
X146752661Y-79327661D01*
X146780110Y-79305134D01*
X146811431Y-79288393D01*
X146845409Y-79278085D01*
X146886890Y-79274000D01*
X147488110Y-79274000D01*
X147529591Y-79278085D01*
G37*
G36*
X145954591Y-79278085D02*
G01*
X145988569Y-79288393D01*
X146019890Y-79305134D01*
X146047339Y-79327661D01*
X146069866Y-79355110D01*
X146086607Y-79386431D01*
X146096915Y-79420409D01*
X146101000Y-79461890D01*
X146101000Y-80138110D01*
X146096915Y-80179591D01*
X146086607Y-80213569D01*
X146069866Y-80244890D01*
X146047339Y-80272339D01*
X146019890Y-80294866D01*
X145988569Y-80311607D01*
X145954591Y-80321915D01*
X145913110Y-80326000D01*
X145311890Y-80326000D01*
X145270409Y-80321915D01*
X145236431Y-80311607D01*
X145205110Y-80294866D01*
X145177661Y-80272339D01*
X145155134Y-80244890D01*
X145138393Y-80213569D01*
X145128085Y-80179591D01*
X145124000Y-80138110D01*
X145124000Y-79461890D01*
X145128085Y-79420409D01*
X145138393Y-79386431D01*
X145155134Y-79355110D01*
X145177661Y-79327661D01*
X145205110Y-79305134D01*
X145236431Y-79288393D01*
X145270409Y-79278085D01*
X145311890Y-79274000D01*
X145913110Y-79274000D01*
X145954591Y-79278085D01*
G37*
G36*
X148901000Y-78251000D02*
G01*
X146799000Y-78251000D01*
X146799000Y-75749000D01*
X148901000Y-75749000D01*
X148901000Y-78251000D01*
G37*
G36*
X145201000Y-78251000D02*
G01*
X143099000Y-78251000D01*
X143099000Y-75749000D01*
X145201000Y-75749000D01*
X145201000Y-78251000D01*
G37*
G36*
X145942091Y-73678085D02*
G01*
X145976069Y-73688393D01*
X146007390Y-73705134D01*
X146034839Y-73727661D01*
X146057366Y-73755110D01*
X146074107Y-73786431D01*
X146084415Y-73820409D01*
X146088500Y-73861890D01*
X146088500Y-74538110D01*
X146084415Y-74579591D01*
X146074107Y-74613569D01*
X146057366Y-74644890D01*
X146034839Y-74672339D01*
X146007390Y-74694866D01*
X145976069Y-74711607D01*
X145942091Y-74721915D01*
X145900610Y-74726000D01*
X145299390Y-74726000D01*
X145257909Y-74721915D01*
X145223931Y-74711607D01*
X145192610Y-74694866D01*
X145165161Y-74672339D01*
X145142634Y-74644890D01*
X145125893Y-74613569D01*
X145115585Y-74579591D01*
X145111500Y-74538110D01*
X145111500Y-73861890D01*
X145115585Y-73820409D01*
X145125893Y-73786431D01*
X145142634Y-73755110D01*
X145165161Y-73727661D01*
X145192610Y-73705134D01*
X145223931Y-73688393D01*
X145257909Y-73678085D01*
X145299390Y-73674000D01*
X145900610Y-73674000D01*
X145942091Y-73678085D01*
G37*
G36*
X147517091Y-73678085D02*
G01*
X147551069Y-73688393D01*
X147582390Y-73705134D01*
X147609839Y-73727661D01*
X147632366Y-73755110D01*
X147649107Y-73786431D01*
X147659415Y-73820409D01*
X147663500Y-73861890D01*
X147663500Y-74538110D01*
X147659415Y-74579591D01*
X147649107Y-74613569D01*
X147632366Y-74644890D01*
X147609839Y-74672339D01*
X147582390Y-74694866D01*
X147551069Y-74711607D01*
X147517091Y-74721915D01*
X147475610Y-74726000D01*
X146874390Y-74726000D01*
X146832909Y-74721915D01*
X146798931Y-74711607D01*
X146767610Y-74694866D01*
X146740161Y-74672339D01*
X146717634Y-74644890D01*
X146700893Y-74613569D01*
X146690585Y-74579591D01*
X146686500Y-74538110D01*
X146686500Y-73861890D01*
X146690585Y-73820409D01*
X146700893Y-73786431D01*
X146717634Y-73755110D01*
X146740161Y-73727661D01*
X146767610Y-73705134D01*
X146798931Y-73688393D01*
X146832909Y-73678085D01*
X146874390Y-73674000D01*
X147475610Y-73674000D01*
X147517091Y-73678085D01*
G37*
G36*
X103582797Y-71862811D02*
G01*
X103735734Y-71893232D01*
X103945203Y-71979997D01*
X104133720Y-72105960D01*
X104294040Y-72266280D01*
X104420003Y-72454797D01*
X104506768Y-72664266D01*
X104551000Y-72886636D01*
X104551000Y-73113364D01*
X104506768Y-73335734D01*
X104420003Y-73545203D01*
X104294040Y-73733720D01*
X104133720Y-73894040D01*
X103945203Y-74020003D01*
X103735734Y-74106768D01*
X103624549Y-74128884D01*
X103513365Y-74151000D01*
X103286635Y-74151000D01*
X103175451Y-74128884D01*
X103064266Y-74106768D01*
X102854797Y-74020003D01*
X102666280Y-73894040D01*
X102505960Y-73733720D01*
X102379997Y-73545203D01*
X102293232Y-73335734D01*
X102249000Y-73113364D01*
X102249000Y-72886636D01*
X102293232Y-72664266D01*
X102379997Y-72454797D01*
X102505960Y-72266280D01*
X102666280Y-72105960D01*
X102854797Y-71979997D01*
X103064266Y-71893232D01*
X103217203Y-71862811D01*
X103286635Y-71849000D01*
X103513365Y-71849000D01*
X103582797Y-71862811D01*
G37*
G36*
X118582797Y-71862811D02*
G01*
X118735734Y-71893232D01*
X118945203Y-71979997D01*
X119133720Y-72105960D01*
X119294040Y-72266280D01*
X119420003Y-72454797D01*
X119506768Y-72664266D01*
X119551000Y-72886636D01*
X119551000Y-73113364D01*
X119506768Y-73335734D01*
X119420003Y-73545203D01*
X119294040Y-73733720D01*
X119133720Y-73894040D01*
X118945203Y-74020003D01*
X118735734Y-74106768D01*
X118624549Y-74128884D01*
X118513365Y-74151000D01*
X118286635Y-74151000D01*
X118175451Y-74128884D01*
X118064266Y-74106768D01*
X117854797Y-74020003D01*
X117666280Y-73894040D01*
X117505960Y-73733720D01*
X117379997Y-73545203D01*
X117293232Y-73335734D01*
X117249000Y-73113364D01*
X117249000Y-72886636D01*
X117293232Y-72664266D01*
X117379997Y-72454797D01*
X117505960Y-72266280D01*
X117666280Y-72105960D01*
X117854797Y-71979997D01*
X118064266Y-71893232D01*
X118217203Y-71862811D01*
X118286635Y-71849000D01*
X118513365Y-71849000D01*
X118582797Y-71862811D01*
G37*
G36*
X135701000Y-72501000D02*
G01*
X133899000Y-72501000D01*
X133899000Y-70699000D01*
X135701000Y-70699000D01*
X135701000Y-72501000D01*
G37*
G36*
X139993512Y-70703927D02*
G01*
X140142812Y-70733624D01*
X140306784Y-70801544D01*
X140454354Y-70900147D01*
X140579853Y-71025646D01*
X140678456Y-71173216D01*
X140746376Y-71337188D01*
X140781000Y-71511259D01*
X140781000Y-71688741D01*
X140746376Y-71862812D01*
X140678456Y-72026784D01*
X140579853Y-72174354D01*
X140454354Y-72299853D01*
X140306784Y-72398456D01*
X140142812Y-72466376D01*
X139993512Y-72496073D01*
X139968742Y-72501000D01*
X139791258Y-72501000D01*
X139766488Y-72496073D01*
X139617188Y-72466376D01*
X139453216Y-72398456D01*
X139305646Y-72299853D01*
X139180147Y-72174354D01*
X139081544Y-72026784D01*
X139013624Y-71862812D01*
X138979000Y-71688741D01*
X138979000Y-71511259D01*
X139013624Y-71337188D01*
X139081544Y-71173216D01*
X139180147Y-71025646D01*
X139305646Y-70900147D01*
X139453216Y-70801544D01*
X139617188Y-70733624D01*
X139766488Y-70703927D01*
X139791258Y-70699000D01*
X139968742Y-70699000D01*
X139993512Y-70703927D01*
G37*
G36*
X137453512Y-70703927D02*
G01*
X137602812Y-70733624D01*
X137766784Y-70801544D01*
X137914354Y-70900147D01*
X138039853Y-71025646D01*
X138138456Y-71173216D01*
X138206376Y-71337188D01*
X138241000Y-71511259D01*
X138241000Y-71688741D01*
X138206376Y-71862812D01*
X138138456Y-72026784D01*
X138039853Y-72174354D01*
X137914354Y-72299853D01*
X137766784Y-72398456D01*
X137602812Y-72466376D01*
X137453512Y-72496073D01*
X137428742Y-72501000D01*
X137251258Y-72501000D01*
X137226488Y-72496073D01*
X137077188Y-72466376D01*
X136913216Y-72398456D01*
X136765646Y-72299853D01*
X136640147Y-72174354D01*
X136541544Y-72026784D01*
X136473624Y-71862812D01*
X136439000Y-71688741D01*
X136439000Y-71511259D01*
X136473624Y-71337188D01*
X136541544Y-71173216D01*
X136640147Y-71025646D01*
X136765646Y-70900147D01*
X136913216Y-70801544D01*
X137077188Y-70733624D01*
X137226488Y-70703927D01*
X137251258Y-70699000D01*
X137428742Y-70699000D01*
X137453512Y-70703927D01*
G37*
G36*
X142533512Y-70703927D02*
G01*
X142682812Y-70733624D01*
X142846784Y-70801544D01*
X142994354Y-70900147D01*
X143119853Y-71025646D01*
X143218456Y-71173216D01*
X143286376Y-71337188D01*
X143321000Y-71511259D01*
X143321000Y-71688741D01*
X143286376Y-71862812D01*
X143218456Y-72026784D01*
X143119853Y-72174354D01*
X142994354Y-72299853D01*
X142846784Y-72398456D01*
X142682812Y-72466376D01*
X142533512Y-72496073D01*
X142508742Y-72501000D01*
X142331258Y-72501000D01*
X142306488Y-72496073D01*
X142157188Y-72466376D01*
X141993216Y-72398456D01*
X141845646Y-72299853D01*
X141720147Y-72174354D01*
X141621544Y-72026784D01*
X141553624Y-71862812D01*
X141519000Y-71688741D01*
X141519000Y-71511259D01*
X141553624Y-71337188D01*
X141621544Y-71173216D01*
X141720147Y-71025646D01*
X141845646Y-70900147D01*
X141993216Y-70801544D01*
X142157188Y-70733624D01*
X142306488Y-70703927D01*
X142331258Y-70699000D01*
X142508742Y-70699000D01*
X142533512Y-70703927D01*
G37*
G36*
X145073512Y-70703927D02*
G01*
X145222812Y-70733624D01*
X145386784Y-70801544D01*
X145534354Y-70900147D01*
X145659853Y-71025646D01*
X145758456Y-71173216D01*
X145826376Y-71337188D01*
X145861000Y-71511259D01*
X145861000Y-71688741D01*
X145826376Y-71862812D01*
X145758456Y-72026784D01*
X145659853Y-72174354D01*
X145534354Y-72299853D01*
X145386784Y-72398456D01*
X145222812Y-72466376D01*
X145073512Y-72496073D01*
X145048742Y-72501000D01*
X144871258Y-72501000D01*
X144846488Y-72496073D01*
X144697188Y-72466376D01*
X144533216Y-72398456D01*
X144385646Y-72299853D01*
X144260147Y-72174354D01*
X144161544Y-72026784D01*
X144093624Y-71862812D01*
X144059000Y-71688741D01*
X144059000Y-71511259D01*
X144093624Y-71337188D01*
X144161544Y-71173216D01*
X144260147Y-71025646D01*
X144385646Y-70900147D01*
X144533216Y-70801544D01*
X144697188Y-70733624D01*
X144846488Y-70703927D01*
X144871258Y-70699000D01*
X145048742Y-70699000D01*
X145073512Y-70703927D01*
G37*
G36*
X147613512Y-70703927D02*
G01*
X147762812Y-70733624D01*
X147926784Y-70801544D01*
X148074354Y-70900147D01*
X148199853Y-71025646D01*
X148298456Y-71173216D01*
X148366376Y-71337188D01*
X148401000Y-71511259D01*
X148401000Y-71688741D01*
X148366376Y-71862812D01*
X148298456Y-72026784D01*
X148199853Y-72174354D01*
X148074354Y-72299853D01*
X147926784Y-72398456D01*
X147762812Y-72466376D01*
X147613512Y-72496073D01*
X147588742Y-72501000D01*
X147411258Y-72501000D01*
X147386488Y-72496073D01*
X147237188Y-72466376D01*
X147073216Y-72398456D01*
X146925646Y-72299853D01*
X146800147Y-72174354D01*
X146701544Y-72026784D01*
X146633624Y-71862812D01*
X146599000Y-71688741D01*
X146599000Y-71511259D01*
X146633624Y-71337188D01*
X146701544Y-71173216D01*
X146800147Y-71025646D01*
X146925646Y-70900147D01*
X147073216Y-70801544D01*
X147237188Y-70733624D01*
X147386488Y-70703927D01*
X147411258Y-70699000D01*
X147588742Y-70699000D01*
X147613512Y-70703927D01*
G37*
G36*
X150153512Y-70703927D02*
G01*
X150302812Y-70733624D01*
X150466784Y-70801544D01*
X150614354Y-70900147D01*
X150739853Y-71025646D01*
X150838456Y-71173216D01*
X150906376Y-71337188D01*
X150941000Y-71511259D01*
X150941000Y-71688741D01*
X150906376Y-71862812D01*
X150838456Y-72026784D01*
X150739853Y-72174354D01*
X150614354Y-72299853D01*
X150466784Y-72398456D01*
X150302812Y-72466376D01*
X150153512Y-72496073D01*
X150128742Y-72501000D01*
X149951258Y-72501000D01*
X149926488Y-72496073D01*
X149777188Y-72466376D01*
X149613216Y-72398456D01*
X149465646Y-72299853D01*
X149340147Y-72174354D01*
X149241544Y-72026784D01*
X149173624Y-71862812D01*
X149139000Y-71688741D01*
X149139000Y-71511259D01*
X149173624Y-71337188D01*
X149241544Y-71173216D01*
X149340147Y-71025646D01*
X149465646Y-70900147D01*
X149613216Y-70801544D01*
X149777188Y-70733624D01*
X149926488Y-70703927D01*
X149951258Y-70699000D01*
X150128742Y-70699000D01*
X150153512Y-70703927D01*
G37*
M02*
