M48
; DRILL file {KiCad 5.1.5} date Wed May 13 22:00:34 2020
; FORMAT={-:-/ absolute / inch / decimal}
; #@! TF.CreationDate,2020-05-13T22:00:34+02:00
; #@! TF.GenerationSoftware,Kicad,Pcbnew,5.1.5
FMAT,2
INCH
T1C0.0157
T2C0.0394
T3C0.0866
%
G90
G05
T1
X4.0866Y-3.8976
X4.0945Y-3.5512
X4.0945Y-3.9685
X4.1575Y-3.4724
X4.1575Y-3.9291
X4.2047Y-3.0394
X4.2047Y-3.5512
X4.2598Y-2.9685
X4.2992Y-3.4724
X4.3071Y-3.0394
X4.3307Y-3.4409
X4.3701Y-3.7008
X4.3858Y-3.6535
X4.4543Y-3.7772
X4.5512Y-3.3543
X4.5591Y-3.4646
X4.5984Y-3.4882
X4.6378Y-3.1811
X4.6518Y-4.0648
X4.6535Y-3.0945
X4.6614Y-3.5118
X4.7402Y-3.0079
X4.7402Y-3.4724
X4.7953Y-2.9528
X4.8661Y-2.8819
X4.8898Y-3.3701
X4.9213Y-3.8976
X4.9449Y-3.8583
X4.9454Y-3.5979
X4.9606Y-2.7559
X4.9764Y-3.9449
X5.0079Y-2.7559
X5.0236Y-3.9213
X5.0472Y-2.7559
X5.063Y-2.8661
X5.0787Y-3.1732
X5.0945Y-2.8976
X5.1024Y-3.2126
X5.1181Y-2.9291
X5.1181Y-3.9291
X5.1339Y-3.252
X5.1496Y-2.9606
X5.1575Y-3.2992
X5.1732Y-2.9921
X5.1969Y-3.0315
X5.2283Y-3.063
X5.252Y-3.0945
X5.2835Y-3.126
X5.3465Y-3.7402
X5.3543Y-4.0
X5.3858Y-3.748
X5.3917Y-3.4429
X5.4016Y-3.937
X5.4331Y-3.7638
X5.4409Y-3.4646
X5.4488Y-3.5039
X5.4567Y-3.1339
X5.4724Y-3.5354
X5.5197Y-3.2992
X5.5354Y-2.9921
X5.5591Y-3.3465
X5.5827Y-3.9291
X5.5984Y-2.9921
X5.5984Y-3.0472
X5.6063Y-3.4803
X5.6142Y-3.8819
X5.6378Y-3.8268
X5.6535Y-3.5709
X5.6772Y-3.3543
X5.748Y-3.0236
X5.748Y-3.0709
X5.748Y-3.6614
X5.7593Y-3.7447
X5.815Y-3.4449
X5.8583Y-3.7087
X5.8661Y-3.5197
X5.8661Y-3.6299
X5.874Y-3.5748
X5.874Y-3.7559
X5.9055Y-4.0472
X5.9291Y-4.0079
X5.9528Y-4.0472
X5.9606Y-2.8976
X5.9606Y-2.9606
T2
X5.7055Y-3.8346
X5.7055Y-3.9346
X5.8055Y-3.8346
X5.8055Y-3.9346
X5.9055Y-3.8346
X5.9055Y-3.9346
X5.3071Y-2.8189
X5.4071Y-2.8189
X5.5071Y-2.8189
X5.6071Y-2.8189
X5.7071Y-2.8189
X5.8071Y-2.8189
X5.9071Y-2.8189
X4.0055Y-4.126
X4.0055Y-4.226
X4.1055Y-4.126
X4.1055Y-4.226
X4.2055Y-4.126
X4.2055Y-4.226
X4.3055Y-4.126
X4.3055Y-4.226
X4.4055Y-4.126
X4.4055Y-4.226
X4.5055Y-4.126
X4.5055Y-4.226
X4.6055Y-4.126
X4.6055Y-4.226
X4.7055Y-4.126
X4.7055Y-4.226
X4.8055Y-4.126
X4.8055Y-4.226
X4.9055Y-4.126
X4.9055Y-4.226
X5.0055Y-4.126
X5.0055Y-4.226
X5.1055Y-4.126
X5.1055Y-4.226
X5.2055Y-4.126
X5.2055Y-4.226
X5.3055Y-4.126
X5.3055Y-4.226
X5.4055Y-4.126
X5.4055Y-4.226
X5.5055Y-4.126
X5.5055Y-4.226
X5.6055Y-4.126
X5.6055Y-4.226
X5.7055Y-4.126
X5.7055Y-4.226
X5.8055Y-4.126
X5.8055Y-4.226
X5.9055Y-4.126
X5.9055Y-4.226
T3
X4.0709Y-2.874
X4.0709Y-3.6614
X4.6614Y-2.874
T0
M30
