%TF.GenerationSoftware,KiCad,Pcbnew,5.1.5*%
%TF.CreationDate,2020-05-13T22:00:42+02:00*%
%TF.ProjectId,thinkpad-keyboard,7468696e-6b70-4616-942d-6b6579626f61,rev?*%
%TF.SameCoordinates,Original*%
%TF.FileFunction,Paste,Top*%
%TF.FilePolarity,Positive*%
%FSLAX46Y46*%
G04 Gerber Fmt 4.6, Leading zero omitted, Abs format (unit mm)*
G04 Created by KiCad (PCBNEW 5.1.5) date 2020-05-13 22:00:42*
%MOMM*%
%LPD*%
G04 APERTURE LIST*
%ADD10R,0.550000X1.500000*%
%ADD11R,1.500000X0.550000*%
%ADD12R,2.000000X2.400000*%
%ADD13R,1.549400X1.150620*%
%ADD14R,0.203200X1.000760*%
%ADD15C,0.050000*%
G04 APERTURE END LIST*
D10*
X144400000Y-93300000D03*
X143600000Y-93300000D03*
X142800000Y-93300000D03*
X142000000Y-93300000D03*
X141200000Y-93300000D03*
X140400000Y-93300000D03*
X139600000Y-93300000D03*
X138800000Y-93300000D03*
X138000000Y-93300000D03*
X137200000Y-93300000D03*
X136400000Y-93300000D03*
D11*
X134700000Y-91600000D03*
X134700000Y-90800000D03*
X134700000Y-90000000D03*
X134700000Y-89200000D03*
X134700000Y-88400000D03*
X134700000Y-87600000D03*
X134700000Y-86800000D03*
X134700000Y-86000000D03*
X134700000Y-85200000D03*
X134700000Y-84400000D03*
X134700000Y-83600000D03*
D10*
X136400000Y-81900000D03*
X137200000Y-81900000D03*
X138000000Y-81900000D03*
X138800000Y-81900000D03*
X139600000Y-81900000D03*
X140400000Y-81900000D03*
X141200000Y-81900000D03*
X142000000Y-81900000D03*
X142800000Y-81900000D03*
X143600000Y-81900000D03*
X144400000Y-81900000D03*
D11*
X146100000Y-83600000D03*
X146100000Y-84400000D03*
X146100000Y-85200000D03*
X146100000Y-86000000D03*
X146100000Y-86800000D03*
X146100000Y-87600000D03*
X146100000Y-88400000D03*
X146100000Y-89200000D03*
X146100000Y-90000000D03*
X146100000Y-90800000D03*
X146100000Y-91600000D03*
D12*
X147850000Y-77000000D03*
X144150000Y-77000000D03*
D13*
X124075080Y-86725120D03*
D14*
X122299620Y-86648920D03*
X122800000Y-86648920D03*
X121799240Y-86648920D03*
X121298860Y-86648920D03*
X119299880Y-86648920D03*
X119800260Y-86648920D03*
X120801020Y-86648920D03*
X120300640Y-86648920D03*
X118799500Y-86648920D03*
X118299120Y-86648920D03*
X113300400Y-86648920D03*
X113800780Y-86648920D03*
X115299380Y-86648920D03*
X115799760Y-86648920D03*
X114799000Y-86648920D03*
X114301160Y-86648920D03*
X116300140Y-86648920D03*
X116800520Y-86648920D03*
X117798740Y-86648920D03*
X117300900Y-86648920D03*
D13*
X124075080Y-90875480D03*
D14*
X117300900Y-90949140D03*
X117798740Y-90949140D03*
X116800520Y-90949140D03*
X116300140Y-90949140D03*
X114301160Y-90949140D03*
X114799000Y-90949140D03*
X115799760Y-90949140D03*
X115299380Y-90949140D03*
X113800780Y-90949140D03*
X113300400Y-90949140D03*
X118299120Y-90949140D03*
X118799500Y-90949140D03*
X120300640Y-90949140D03*
X120801020Y-90949140D03*
X119800260Y-90949140D03*
X119299880Y-90949140D03*
X121298860Y-90949140D03*
X121799240Y-90949140D03*
X122800000Y-90949140D03*
X122299620Y-90949140D03*
D13*
X112025320Y-86725120D03*
X112025320Y-90875480D03*
D15*
G36*
X149252691Y-86926053D02*
G01*
X149273926Y-86929203D01*
X149294750Y-86934419D01*
X149314962Y-86941651D01*
X149334368Y-86950830D01*
X149352781Y-86961866D01*
X149370024Y-86974654D01*
X149385930Y-86989070D01*
X149400346Y-87004976D01*
X149413134Y-87022219D01*
X149424170Y-87040632D01*
X149433349Y-87060038D01*
X149440581Y-87080250D01*
X149445797Y-87101074D01*
X149448947Y-87122309D01*
X149450000Y-87143750D01*
X149450000Y-87656250D01*
X149448947Y-87677691D01*
X149445797Y-87698926D01*
X149440581Y-87719750D01*
X149433349Y-87739962D01*
X149424170Y-87759368D01*
X149413134Y-87777781D01*
X149400346Y-87795024D01*
X149385930Y-87810930D01*
X149370024Y-87825346D01*
X149352781Y-87838134D01*
X149334368Y-87849170D01*
X149314962Y-87858349D01*
X149294750Y-87865581D01*
X149273926Y-87870797D01*
X149252691Y-87873947D01*
X149231250Y-87875000D01*
X148793750Y-87875000D01*
X148772309Y-87873947D01*
X148751074Y-87870797D01*
X148730250Y-87865581D01*
X148710038Y-87858349D01*
X148690632Y-87849170D01*
X148672219Y-87838134D01*
X148654976Y-87825346D01*
X148639070Y-87810930D01*
X148624654Y-87795024D01*
X148611866Y-87777781D01*
X148600830Y-87759368D01*
X148591651Y-87739962D01*
X148584419Y-87719750D01*
X148579203Y-87698926D01*
X148576053Y-87677691D01*
X148575000Y-87656250D01*
X148575000Y-87143750D01*
X148576053Y-87122309D01*
X148579203Y-87101074D01*
X148584419Y-87080250D01*
X148591651Y-87060038D01*
X148600830Y-87040632D01*
X148611866Y-87022219D01*
X148624654Y-87004976D01*
X148639070Y-86989070D01*
X148654976Y-86974654D01*
X148672219Y-86961866D01*
X148690632Y-86950830D01*
X148710038Y-86941651D01*
X148730250Y-86934419D01*
X148751074Y-86929203D01*
X148772309Y-86926053D01*
X148793750Y-86925000D01*
X149231250Y-86925000D01*
X149252691Y-86926053D01*
G37*
G36*
X150827691Y-86926053D02*
G01*
X150848926Y-86929203D01*
X150869750Y-86934419D01*
X150889962Y-86941651D01*
X150909368Y-86950830D01*
X150927781Y-86961866D01*
X150945024Y-86974654D01*
X150960930Y-86989070D01*
X150975346Y-87004976D01*
X150988134Y-87022219D01*
X150999170Y-87040632D01*
X151008349Y-87060038D01*
X151015581Y-87080250D01*
X151020797Y-87101074D01*
X151023947Y-87122309D01*
X151025000Y-87143750D01*
X151025000Y-87656250D01*
X151023947Y-87677691D01*
X151020797Y-87698926D01*
X151015581Y-87719750D01*
X151008349Y-87739962D01*
X150999170Y-87759368D01*
X150988134Y-87777781D01*
X150975346Y-87795024D01*
X150960930Y-87810930D01*
X150945024Y-87825346D01*
X150927781Y-87838134D01*
X150909368Y-87849170D01*
X150889962Y-87858349D01*
X150869750Y-87865581D01*
X150848926Y-87870797D01*
X150827691Y-87873947D01*
X150806250Y-87875000D01*
X150368750Y-87875000D01*
X150347309Y-87873947D01*
X150326074Y-87870797D01*
X150305250Y-87865581D01*
X150285038Y-87858349D01*
X150265632Y-87849170D01*
X150247219Y-87838134D01*
X150229976Y-87825346D01*
X150214070Y-87810930D01*
X150199654Y-87795024D01*
X150186866Y-87777781D01*
X150175830Y-87759368D01*
X150166651Y-87739962D01*
X150159419Y-87719750D01*
X150154203Y-87698926D01*
X150151053Y-87677691D01*
X150150000Y-87656250D01*
X150150000Y-87143750D01*
X150151053Y-87122309D01*
X150154203Y-87101074D01*
X150159419Y-87080250D01*
X150166651Y-87060038D01*
X150175830Y-87040632D01*
X150186866Y-87022219D01*
X150199654Y-87004976D01*
X150214070Y-86989070D01*
X150229976Y-86974654D01*
X150247219Y-86961866D01*
X150265632Y-86950830D01*
X150285038Y-86941651D01*
X150305250Y-86934419D01*
X150326074Y-86929203D01*
X150347309Y-86926053D01*
X150368750Y-86925000D01*
X150806250Y-86925000D01*
X150827691Y-86926053D01*
G37*
G36*
X147427691Y-79326053D02*
G01*
X147448926Y-79329203D01*
X147469750Y-79334419D01*
X147489962Y-79341651D01*
X147509368Y-79350830D01*
X147527781Y-79361866D01*
X147545024Y-79374654D01*
X147560930Y-79389070D01*
X147575346Y-79404976D01*
X147588134Y-79422219D01*
X147599170Y-79440632D01*
X147608349Y-79460038D01*
X147615581Y-79480250D01*
X147620797Y-79501074D01*
X147623947Y-79522309D01*
X147625000Y-79543750D01*
X147625000Y-80056250D01*
X147623947Y-80077691D01*
X147620797Y-80098926D01*
X147615581Y-80119750D01*
X147608349Y-80139962D01*
X147599170Y-80159368D01*
X147588134Y-80177781D01*
X147575346Y-80195024D01*
X147560930Y-80210930D01*
X147545024Y-80225346D01*
X147527781Y-80238134D01*
X147509368Y-80249170D01*
X147489962Y-80258349D01*
X147469750Y-80265581D01*
X147448926Y-80270797D01*
X147427691Y-80273947D01*
X147406250Y-80275000D01*
X146968750Y-80275000D01*
X146947309Y-80273947D01*
X146926074Y-80270797D01*
X146905250Y-80265581D01*
X146885038Y-80258349D01*
X146865632Y-80249170D01*
X146847219Y-80238134D01*
X146829976Y-80225346D01*
X146814070Y-80210930D01*
X146799654Y-80195024D01*
X146786866Y-80177781D01*
X146775830Y-80159368D01*
X146766651Y-80139962D01*
X146759419Y-80119750D01*
X146754203Y-80098926D01*
X146751053Y-80077691D01*
X146750000Y-80056250D01*
X146750000Y-79543750D01*
X146751053Y-79522309D01*
X146754203Y-79501074D01*
X146759419Y-79480250D01*
X146766651Y-79460038D01*
X146775830Y-79440632D01*
X146786866Y-79422219D01*
X146799654Y-79404976D01*
X146814070Y-79389070D01*
X146829976Y-79374654D01*
X146847219Y-79361866D01*
X146865632Y-79350830D01*
X146885038Y-79341651D01*
X146905250Y-79334419D01*
X146926074Y-79329203D01*
X146947309Y-79326053D01*
X146968750Y-79325000D01*
X147406250Y-79325000D01*
X147427691Y-79326053D01*
G37*
G36*
X145852691Y-79326053D02*
G01*
X145873926Y-79329203D01*
X145894750Y-79334419D01*
X145914962Y-79341651D01*
X145934368Y-79350830D01*
X145952781Y-79361866D01*
X145970024Y-79374654D01*
X145985930Y-79389070D01*
X146000346Y-79404976D01*
X146013134Y-79422219D01*
X146024170Y-79440632D01*
X146033349Y-79460038D01*
X146040581Y-79480250D01*
X146045797Y-79501074D01*
X146048947Y-79522309D01*
X146050000Y-79543750D01*
X146050000Y-80056250D01*
X146048947Y-80077691D01*
X146045797Y-80098926D01*
X146040581Y-80119750D01*
X146033349Y-80139962D01*
X146024170Y-80159368D01*
X146013134Y-80177781D01*
X146000346Y-80195024D01*
X145985930Y-80210930D01*
X145970024Y-80225346D01*
X145952781Y-80238134D01*
X145934368Y-80249170D01*
X145914962Y-80258349D01*
X145894750Y-80265581D01*
X145873926Y-80270797D01*
X145852691Y-80273947D01*
X145831250Y-80275000D01*
X145393750Y-80275000D01*
X145372309Y-80273947D01*
X145351074Y-80270797D01*
X145330250Y-80265581D01*
X145310038Y-80258349D01*
X145290632Y-80249170D01*
X145272219Y-80238134D01*
X145254976Y-80225346D01*
X145239070Y-80210930D01*
X145224654Y-80195024D01*
X145211866Y-80177781D01*
X145200830Y-80159368D01*
X145191651Y-80139962D01*
X145184419Y-80119750D01*
X145179203Y-80098926D01*
X145176053Y-80077691D01*
X145175000Y-80056250D01*
X145175000Y-79543750D01*
X145176053Y-79522309D01*
X145179203Y-79501074D01*
X145184419Y-79480250D01*
X145191651Y-79460038D01*
X145200830Y-79440632D01*
X145211866Y-79422219D01*
X145224654Y-79404976D01*
X145239070Y-79389070D01*
X145254976Y-79374654D01*
X145272219Y-79361866D01*
X145290632Y-79350830D01*
X145310038Y-79341651D01*
X145330250Y-79334419D01*
X145351074Y-79329203D01*
X145372309Y-79326053D01*
X145393750Y-79325000D01*
X145831250Y-79325000D01*
X145852691Y-79326053D01*
G37*
G36*
X145840191Y-73726053D02*
G01*
X145861426Y-73729203D01*
X145882250Y-73734419D01*
X145902462Y-73741651D01*
X145921868Y-73750830D01*
X145940281Y-73761866D01*
X145957524Y-73774654D01*
X145973430Y-73789070D01*
X145987846Y-73804976D01*
X146000634Y-73822219D01*
X146011670Y-73840632D01*
X146020849Y-73860038D01*
X146028081Y-73880250D01*
X146033297Y-73901074D01*
X146036447Y-73922309D01*
X146037500Y-73943750D01*
X146037500Y-74456250D01*
X146036447Y-74477691D01*
X146033297Y-74498926D01*
X146028081Y-74519750D01*
X146020849Y-74539962D01*
X146011670Y-74559368D01*
X146000634Y-74577781D01*
X145987846Y-74595024D01*
X145973430Y-74610930D01*
X145957524Y-74625346D01*
X145940281Y-74638134D01*
X145921868Y-74649170D01*
X145902462Y-74658349D01*
X145882250Y-74665581D01*
X145861426Y-74670797D01*
X145840191Y-74673947D01*
X145818750Y-74675000D01*
X145381250Y-74675000D01*
X145359809Y-74673947D01*
X145338574Y-74670797D01*
X145317750Y-74665581D01*
X145297538Y-74658349D01*
X145278132Y-74649170D01*
X145259719Y-74638134D01*
X145242476Y-74625346D01*
X145226570Y-74610930D01*
X145212154Y-74595024D01*
X145199366Y-74577781D01*
X145188330Y-74559368D01*
X145179151Y-74539962D01*
X145171919Y-74519750D01*
X145166703Y-74498926D01*
X145163553Y-74477691D01*
X145162500Y-74456250D01*
X145162500Y-73943750D01*
X145163553Y-73922309D01*
X145166703Y-73901074D01*
X145171919Y-73880250D01*
X145179151Y-73860038D01*
X145188330Y-73840632D01*
X145199366Y-73822219D01*
X145212154Y-73804976D01*
X145226570Y-73789070D01*
X145242476Y-73774654D01*
X145259719Y-73761866D01*
X145278132Y-73750830D01*
X145297538Y-73741651D01*
X145317750Y-73734419D01*
X145338574Y-73729203D01*
X145359809Y-73726053D01*
X145381250Y-73725000D01*
X145818750Y-73725000D01*
X145840191Y-73726053D01*
G37*
G36*
X147415191Y-73726053D02*
G01*
X147436426Y-73729203D01*
X147457250Y-73734419D01*
X147477462Y-73741651D01*
X147496868Y-73750830D01*
X147515281Y-73761866D01*
X147532524Y-73774654D01*
X147548430Y-73789070D01*
X147562846Y-73804976D01*
X147575634Y-73822219D01*
X147586670Y-73840632D01*
X147595849Y-73860038D01*
X147603081Y-73880250D01*
X147608297Y-73901074D01*
X147611447Y-73922309D01*
X147612500Y-73943750D01*
X147612500Y-74456250D01*
X147611447Y-74477691D01*
X147608297Y-74498926D01*
X147603081Y-74519750D01*
X147595849Y-74539962D01*
X147586670Y-74559368D01*
X147575634Y-74577781D01*
X147562846Y-74595024D01*
X147548430Y-74610930D01*
X147532524Y-74625346D01*
X147515281Y-74638134D01*
X147496868Y-74649170D01*
X147477462Y-74658349D01*
X147457250Y-74665581D01*
X147436426Y-74670797D01*
X147415191Y-74673947D01*
X147393750Y-74675000D01*
X146956250Y-74675000D01*
X146934809Y-74673947D01*
X146913574Y-74670797D01*
X146892750Y-74665581D01*
X146872538Y-74658349D01*
X146853132Y-74649170D01*
X146834719Y-74638134D01*
X146817476Y-74625346D01*
X146801570Y-74610930D01*
X146787154Y-74595024D01*
X146774366Y-74577781D01*
X146763330Y-74559368D01*
X146754151Y-74539962D01*
X146746919Y-74519750D01*
X146741703Y-74498926D01*
X146738553Y-74477691D01*
X146737500Y-74456250D01*
X146737500Y-73943750D01*
X146738553Y-73922309D01*
X146741703Y-73901074D01*
X146746919Y-73880250D01*
X146754151Y-73860038D01*
X146763330Y-73840632D01*
X146774366Y-73822219D01*
X146787154Y-73804976D01*
X146801570Y-73789070D01*
X146817476Y-73774654D01*
X146834719Y-73761866D01*
X146853132Y-73750830D01*
X146872538Y-73741651D01*
X146892750Y-73734419D01*
X146913574Y-73729203D01*
X146934809Y-73726053D01*
X146956250Y-73725000D01*
X147393750Y-73725000D01*
X147415191Y-73726053D01*
G37*
M02*
